<?xml version="1.0" encoding="UTF-8" standalone="no"?>
<svg
   xmlns:dc="http://purl.org/dc/elements/1.1/"
   xmlns:cc="http://creativecommons.org/ns#"
   xmlns:rdf="http://www.w3.org/1999/02/22-rdf-syntax-ns#"
   xmlns:svg="http://www.w3.org/2000/svg"
   xmlns="http://www.w3.org/2000/svg"
   xmlns:sodipodi="http://sodipodi.sourceforge.net/DTD/sodipodi-0.dtd"
   xmlns:inkscape="http://www.inkscape.org/namespaces/inkscape"
   version="1.1"
   viewBox="0.00 0.00 617.00 404.00"
   id="svg909"
   sodipodi:docname="richard.svg"
   inkscape:version="0.92.4 (5da689c313, 2019-01-14)">
  <metadata
     id="metadata915">
    <rdf:RDF>
      <cc:Work
         rdf:about="">
        <dc:format>image/svg+xml</dc:format>
        <dc:type
           rdf:resource="http://purl.org/dc/dcmitype/StillImage" />
      </cc:Work>
    </rdf:RDF>
  </metadata>
  <defs
     id="defs913" />
  <sodipodi:namedview
     pagecolor="#ffffff"
     bordercolor="#666666"
     borderopacity="1"
     objecttolerance="10"
     gridtolerance="10"
     guidetolerance="10"
     inkscape:pageopacity="0"
     inkscape:pageshadow="2"
     inkscape:window-width="1358"
     inkscape:window-height="745"
     id="namedview911"
     showgrid="false"
     inkscape:zoom="1.299505"
     inkscape:cx="308.5"
     inkscape:cy="202"
     inkscape:window-x="0"
     inkscape:window-y="0"
     inkscape:window-maximized="0"
     inkscape:current-layer="svg909" />
  <path
     fill="#847d7b"
     d="   M 382.72 265.44   L 382.53 265.21   A 0.44 0.43 -47.2 0 0 381.84 265.24   Q 378.81 269.50 376.36 273.44   C 375.29 275.17 373.74 276.23 372.54 277.86   Q 367.47 284.77 362.47 291.74   Q 360.79 294.07 358.69 295.91   C 356.70 297.64 355.08 299.64 352.97 301.23   Q 349.44 303.90 345.79 305.49   C 343.25 306.60 339.50 305.68 338.90 302.57   C 338.58 300.92 338.02 298.98 336.75 297.83   A 1.50 1.50 0.0 0 0 334.47 298.16   Q 328.78 307.43 321.61 316.66   Q 319.85 318.93 317.21 320.17   Q 316.04 320.72 315.32 319.65   L 315.11 319.34   Q 314.33 318.19 315.65 317.75   Q 319.48 316.45 322.39 312.79   C 327.81 305.99 332.87 298.22 334.84 289.77   Q 336.53 282.53 337.13 274.95   C 337.32 272.52 337.95 270.50 338.76 268.25   Q 339.19 267.05 339.26 265.79   C 339.48 261.96 341.08 258.73 341.70 254.99   C 342.36 250.98 342.70 247.25 344.15 243.33   C 345.36 240.06 345.06 236.69 345.96 233.30   C 347.20 228.63 348.85 224.28 349.64 219.48   Q 350.97 211.34 353.37 204.03   Q 355.13 198.64 356.59 193.09   C 357.64 189.13 359.39 185.34 361.07 181.65   A 1.20 1.19 -60.1 0 1 362.84 181.17   Q 363.32 181.51 363.44 182.13   Q 364.34 186.63 363.68 190.62   C 363.18 193.68 364.39 196.35 363.74 199.43   Q 363.26 201.71 363.08 204.12   Q 362.77 208.38 361.75 212.93   C 361.33 214.80 361.40 216.75 361.04 218.68   C 359.17 228.51 357.42 238.26 354.07 247.81   Q 352.01 253.66 349.73 261.28   Q 347.70 268.04 344.77 274.64   C 342.42 279.95 335.89 295.30 340.18 300.11   C 344.80 305.28 354.92 296.05 358.30 292.79   Q 360.45 290.73 362.05 287.95   Q 365.11 282.66 368.50 279.18   Q 371.09 276.54 372.95 273.40   Q 376.82 266.85 381.07 260.70   C 382.89 258.06 384.02 255.08 385.51 252.25   Q 391.25 241.39 397.65 229.95   C 401.02 223.93 404.02 213.97 407.32 206.07   Q 408.92 202.25 410.62 197.30   Q 415.84 182.03 420.62 169.94   Q 423.42 162.86 424.78 157.31   C 426.15 151.71 428.66 146.57 430.19 141.23   Q 434.20 127.24 439.68 110.31   Q 443.03 99.95 444.93 93.57   C 447.16 86.06 449.21 78.93 452.00 71.38   C 456.26 59.86 458.71 47.68 462.34 35.80   A 0.73 0.73 0.0 0 1 463.26 35.32   Q 463.85 35.50 463.92 36.14   Q 464.24 39.29 463.61 42.14   C 462.25 48.26 460.60 54.23 459.27 60.31   Q 457.06 70.36 453.37 85.28   Q 447.54 108.86 442.21 127.86   C 440.70 133.25 438.60 138.21 436.88 143.28   Q 433.02 154.63 429.90 163.76   Q 428.49 167.89 426.67 172.03   C 421.20 184.51 415.47 196.60 409.84 209.64   Q 407.37 215.37 403.86 222.12   C 402.42 224.88 401.50 228.11 400.28 231.09   Q 395.07 243.82 389.72 256.33   C 388.23 259.81 387.71 263.40 386.07 266.79   C 384.03 271.03 381.73 275.30 380.55 279.93   C 379.06 285.77 376.81 291.10 373.92 296.35   C 371.62 300.54 370.75 306.05 368.59 310.14   Q 365.46 316.07 364.12 320.04   Q 360.20 331.68 356.13 342.40   C 354.65 346.29 353.90 351.69 354.87 355.96   C 355.21 357.47 355.81 359.04 355.33 360.58   C 354.38 363.65 353.12 368.65 350.40 370.59   Q 349.98 370.89 349.56 370.61   C 345.98 368.28 346.84 361.98 347.76 358.51   C 351.31 345.10 356.85 332.84 361.55 319.92   C 363.68 314.09 366.54 308.03 368.59 301.99   Q 369.85 298.29 371.46 294.86   Q 377.58 281.81 380.02 274.24   Q 381.33 270.21 382.85 266.24   Q 383.02 265.80 382.72 265.44   Z   M 342.46 271.23   C 343.73 269.05 345.42 267.40 345.80 264.75   C 346.39 260.70 348.68 257.36 349.87 253.40   Q 353.91 239.96 356.73 226.21   C 357.98 220.08 359.98 214.55 360.57 208.31   Q 361.31 200.61 361.13 192.91   Q 361.09 191.20 360.19 192.66   Q 358.41 195.51 357.41 198.90   Q 353.87 210.94 351.27 224.02   C 350.38 228.48 348.83 232.67 348.14 237.24   C 347.78 239.58 346.63 241.68 346.24 244.04   Q 345.49 248.51 343.96 252.97   C 342.69 256.68 342.76 260.48 341.81 264.28   C 341.27 266.46 341.33 268.95 341.84 271.14   A 0.34 0.34 0.0 0 0 342.46 271.23   Z"
     id="path885"
     style="fill:#000000;fill-opacity:1;stroke-width:0.75590551;stroke-miterlimit:4;stroke-dasharray:none;stroke:#000000;stroke-opacity:1" />
  <path
     fill="#847d7b"
     d="   M 124.70 309.35   C 123.48 312.76 125.67 315.51 124.62 318.66   Q 122.75 324.31 120.59 329.70   A 1.16 1.16 0.0 0 1 118.72 330.12   C 115.81 327.42 117.81 321.55 118.65 318.10   C 119.51 314.54 121.01 311.34 121.98 307.75   A 2.70 2.70 0.0 0 0 120.67 304.68   Q 118.15 303.30 115.69 301.44   C 111.98 298.65 107.49 297.44 103.25 295.70   Q 101.27 294.88 98.89 295.25   Q 95.92 295.70 93.52 296.91   Q 82.49 302.47 70.26 307.40   Q 65.12 309.47 59.17 310.87   C 53.41 312.23 47.20 313.54 41.43 312.88   Q 40.32 312.75 39.98 311.82   A 1.68 1.67 -25.9 0 1 40.68 309.81   C 43.34 308.19 45.89 306.73 49.05 306.09   C 52.43 305.41 56.31 303.48 59.00 302.60   C 63.93 300.97 68.73 299.10 73.80 297.70   Q 83.49 295.03 93.12 292.75   C 98.50 291.47 102.59 288.69 107.39 286.50   C 109.83 285.39 111.85 283.82 113.99 282.22   Q 121.66 276.44 129.52 270.81   C 132.57 268.62 134.48 265.01 135.03 261.27   C 136.90 248.72 136.94 235.75 131.94 224.73   C 128.83 217.89 123.74 213.12 115.88 213.44   C 101.88 214.02 88.45 218.29 74.93 223.23   C 68.33 225.63 59.27 227.16 52.61 225.11   C 46.49 223.23 40.32 217.12 40.02 210.12   C 39.71 203.02 40.55 195.36 42.89 188.61   C 47.01 176.72 51.54 164.17 58.70 154.22   Q 64.14 146.66 70.32 140.41   Q 76.80 133.85 85.53 126.26   Q 92.69 120.04 97.25 116.59   Q 111.67 105.66 130.70 93.52   Q 135.73 90.31 140.76 87.97   Q 145.72 85.67 150.30 83.52   Q 158.27 79.79 168.05 78.10   C 178.24 76.34 189.25 74.62 199.74 74.84   Q 218.55 75.23 239.00 80.28   Q 252.36 83.58 260.82 95.27   C 266.87 103.62 264.22 113.98 260.32 122.95   Q 254.04 137.41 247.80 147.89   Q 242.79 156.31 236.80 164.44   Q 222.69 183.61 208.95 198.45   Q 188.31 220.75 176.94 231.25   C 168.26 239.28 159.20 248.05 149.96 255.35   Q 143.04 260.83 137.03 267.28   C 136.01 268.37 135.15 269.76 134.79 271.23   Q 131.08 286.12 126.59 302.20   Q 125.87 304.81 127.85 306.49   Q 137.21 314.43 149.75 319.08   Q 154.28 320.75 158.36 318.91   C 163.76 316.46 167.78 312.31 169.13 306.47   C 170.15 302.09 171.77 298.37 170.95 293.66   Q 170.82 292.90 171.50 293.28   C 173.01 294.12 173.40 297.56 173.18 298.81   C 171.80 306.70 168.80 316.07 161.76 320.34   C 156.63 323.46 152.09 322.92 146.47 320.30   C 141.63 318.03 136.54 316.16 132.41 312.94   C 130.18 311.21 127.58 310.75 125.35 309.14   Q 124.89 308.81 124.70 309.35   Z   M 234.04 80.86   Q 223.94 78.29 215.84 77.80   Q 205.79 77.18 193.76 77.41   Q 183.15 77.60 174.13 79.08   Q 150.83 82.90 130.67 95.70   C 125.20 99.18 119.75 102.79 114.52 106.55   Q 110.33 109.58 105.99 112.39   C 102.04 114.96 97.72 119.10 93.56 122.40   Q 81.41 132.03 70.84 142.94   Q 58.94 155.22 51.72 169.87   C 48.00 177.42 46.17 186.48 43.94 194.65   C 41.70 202.85 40.52 213.84 47.43 220.11   Q 50.59 222.98 56.12 223.90   Q 61.22 224.75 65.74 223.43   Q 81.78 218.77 97.74 214.09   Q 100.57 213.26 103.29 212.32   C 110.65 209.75 120.89 208.71 126.90 214.18   Q 133.42 220.11 136.10 229.34   Q 138.99 239.33 138.42 249.32   Q 138.08 255.47 137.55 261.87   A 0.45 0.45 0.0 0 0 138.26 262.27   C 141.47 259.93 144.24 257.01 147.48 254.73   Q 149.19 253.52 151.04 251.76   Q 158.84 244.32 166.77 237.12   C 172.91 231.55 178.72 225.44 184.83 219.71   C 193.77 211.31 202.08 202.20 210.26 193.31   Q 233.05 168.59 249.95 138.90   C 253.81 132.12 255.88 125.12 258.90 118.11   C 260.42 114.59 260.75 111.11 260.78 107.32   C 260.86 92.89 246.74 84.10 234.04 80.86   Z   M 131.69 272.64   A 0.57 0.57 0.0 0 0 131.07 272.29   Q 128.96 272.65 127.48 274.16   C 124.73 276.98 121.18 278.74 118.07 281.14   Q 112.12 285.75 106.41 289.93   Q 105.20 290.81 104.29 292.17   A 0.87 0.86 -65.7 0 0 104.78 293.48   C 107.88 294.33 111.70 295.08 114.39 297.14   Q 118.27 300.10 122.70 301.88   A 0.45 0.45 0.0 0 0 123.28 301.63   C 126.00 294.95 128.35 288.02 129.94 280.75   C 130.32 278.98 132.45 274.48 131.69 272.64   Z   M 77.8312 300.4149   A 13.80 1.68 -20.2 0 0 64.2999 303.6033   A 13.80 1.68 -20.2 0 0 51.9288 309.9451   A 13.80 1.68 -20.2 0 0 65.4601 306.7567   A 13.80 1.68 -20.2 0 0 77.8312 300.4149   Z"
     id="path887"
     style="fill:#000000;fill-opacity:1;stroke-width:0.75590551;stroke-miterlimit:4;stroke-dasharray:none;stroke:#000000;stroke-opacity:1" />
  <path
     fill="#847d7b"
     d="   M 511.91 283.36   Q 512.16 284.14 512.49 283.38   Q 514.15 279.50 515.10 275.71   C 516.52 270.06 518.81 264.63 520.01 258.93   Q 521.94 249.74 524.51 240.68   Q 526.00 235.41 526.94 230.17   C 527.80 225.40 529.05 220.75 529.66 216.05   Q 530.47 209.80 532.12 204.26   C 535.76 192.03 538.01 179.48 542.16 167.42   Q 546.89 153.67 551.45 141.53   Q 557.66 125.05 566.13 109.07   C 569.40 102.89 570.54 96.81 575.62 91.50   Q 575.62 91.50 575.63 91.49   Q 577.25 89.90 578.78 90.21   Q 579.98 90.45 579.13 91.34   Q 574.24 96.44 570.96 103.40   C 568.46 108.69 566.58 114.20 563.95 119.35   C 561.62 123.90 559.23 128.53 557.61 133.35   C 554.82 141.62 551.23 149.38 548.58 157.28   Q 545.30 167.07 541.56 177.49   Q 540.24 181.18 538.75 188.72   C 536.42 200.54 532.40 211.93 530.30 223.84   C 529.51 228.34 528.84 232.73 527.78 237.21   Q 526.48 242.67 525.34 249.36   Q 523.68 259.19 520.28 269.79   C 518.10 276.60 517.03 283.81 514.90 290.75   Q 514.34 292.56 512.64 293.15   A 1.80 1.80 0.0 0 1 510.36 292.08   Q 509.72 290.37 509.53 288.63   C 508.97 283.38 506.83 271.58 499.20 272.33   Q 495.71 272.68 493.26 274.96   A 2.41 2.40 43.9 0 0 493.33 278.53   C 495.16 280.11 498.70 283.57 495.87 285.99   C 492.71 288.69 489.46 290.73 485.38 290.78   Q 482.93 290.80 480.48 291.13   Q 478.06 291.45 477.27 289.28   A 1.97 1.95 -29.3 0 1 477.90 287.08   Q 480.11 285.34 481.45 283.06   C 483.29 279.92 485.88 278.13 488.15 275.49   C 490.69 272.52 494.57 271.62 497.81 269.63   A 1.64 1.62 36.9 0 1 499.14 269.45   C 502.46 270.47 506.85 272.17 508.55 275.45   Q 510.68 279.55 511.91 283.36   Z   M 488.93 278.62   L 488.50 279.08   A 0.31 0.29 -37.8 0 0 488.45 279.40   C 490.05 282.83 487.68 284.57 485.70 286.78   Q 483.77 288.94 486.52 288.02   Q 488.23 287.45 489.96 286.42   A 2.06 2.05 67.4 0 0 490.90 284.12   L 489.46 278.75   A 0.31 0.31 0.0 0 0 488.93 278.62   Z"
     id="path889"
     style="fill:#000000;fill-opacity:1;stroke-width:0.75590551;stroke-miterlimit:4;stroke-dasharray:none;stroke:#000000;stroke-opacity:1" />
  <path
     fill="#847d7b"
     d="   M 447.15 284.00   C 448.67 283.38 449.98 282.34 451.70 282.32   C 457.91 282.26 457.93 290.86 455.67 294.46   Q 455.23 295.15 454.47 294.95   A 0.97 0.97 0.0 0 1 453.74 294.05   C 453.65 291.20 455.17 285.58 449.94 285.97   Q 448.73 286.06 447.59 285.95   A 1.51 1.51 0.0 0 0 446.01 286.96   L 444.55 291.21   A 2.95 2.95 0.0 0 1 442.92 292.95   Q 440.09 294.13 438.87 297.07   A 1.50 1.49 19.2 0 1 437.08 297.93   C 435.42 297.46 434.03 296.60 432.23 296.76   C 429.94 296.96 427.44 297.35 425.23 296.64   Q 419.33 294.72 419.46 288.76   C 419.52 285.59 425.45 285.48 427.61 285.53   Q 428.13 285.54 427.63 285.68   Q 422.77 287.02 423.24 291.73   Q 423.43 293.69 425.19 294.59   C 429.66 296.87 431.11 293.39 433.70 290.93   Q 434.06 290.60 434.43 290.91   L 437.74 293.61   A 0.73 0.73 0.0 0 0 438.82 293.43   Q 440.14 291.33 440.63 288.77   C 441.77 282.71 443.66 276.79 445.13 270.76   Q 450.28 249.64 454.68 230.95   C 455.74 226.45 457.36 222.28 458.21 217.87   Q 460.39 206.61 462.89 195.59   C 463.68 192.15 465.37 188.39 466.04 185.51   Q 470.16 167.74 475.81 149.76   Q 477.07 145.75 478.10 141.71   C 479.11 137.81 480.55 132.79 483.19 129.60   A 0.72 0.72 0.0 0 1 484.45 129.94   Q 484.79 132.00 483.87 133.99   C 481.30 139.54 478.50 145.03 477.06 151.08   Q 475.16 158.99 472.12 168.04   Q 470.03 174.27 468.67 181.30   Q 465.06 200.07 460.40 217.00   C 458.87 222.57 457.97 227.84 456.64 233.24   Q 450.50 258.02 446.56 283.54   A 0.43 0.43 0.0 0 0 447.15 284.00   Z"
     id="path891"
     style="fill:#000000;fill-opacity:1;stroke-width:0.75590551;stroke-miterlimit:4;stroke-dasharray:none;stroke:#000000;stroke-opacity:1" />
  <path
     fill="#847d7b"
     d="   M 234.43 300.36   Q 234.96 300.59 234.80 301.13   Q 234.11 303.47 234.14 305.98   Q 234.16 307.43 232.81 306.90   Q 232.26 306.68 231.86 306.22   Q 230.78 304.98 230.85 303.33   C 231.12 296.23 231.03 290.10 232.70 282.77   Q 234.95 272.93 237.05 262.34   C 238.09 257.05 240.22 252.30 241.56 247.16   C 245.55 231.89 250.22 216.87 254.33 201.51   Q 258.31 186.59 265.90 164.75   Q 267.30 160.72 269.50 158.00   Q 272.27 154.60 270.25 158.50   C 266.77 165.19 265.37 172.34 263.28 179.28   Q 258.11 196.48 253.25 214.33   Q 251.13 222.11 248.72 229.90   C 245.75 239.52 243.78 248.93 241.03 258.20   C 239.35 263.85 237.55 269.38 236.34 275.02   Q 234.77 282.35 234.10 290.17   Q 233.88 292.78 233.54 295.20   Q 233.20 297.63 233.90 299.77   A 0.95 0.94 -87.4 0 0 234.43 300.36   Z"
     id="path893"
     style="fill:#000000;fill-opacity:1;stroke-width:0.75590551;stroke-miterlimit:4;stroke-dasharray:none;stroke:#000000;stroke-opacity:1" />
  <path
     fill="#847d7b"
     d="   M 272.47 294.07   Q 272.79 293.63 272.48 293.22   Q 272.08 292.70 272.68 292.42   L 273.08 292.23   A 1.31 1.28 -49.4 0 1 273.96 292.15   Q 276.63 292.84 277.18 290.00   Q 277.32 289.30 277.51 288.61   Q 282.22 271.24 285.67 253.47   C 286.46 249.42 287.83 245.66 288.69 241.65   Q 291.95 226.58 295.38 213.32   Q 296.35 209.57 297.14 205.99   C 298.09 201.67 299.63 197.76 300.65 193.45   Q 302.76 184.51 307.59 175.75   Q 308.57 173.97 308.03 175.92   C 307.16 179.05 305.80 181.90 304.92 185.11   C 302.79 192.82 301.53 200.12 299.43 207.46   C 297.58 213.93 296.18 220.27 294.55 226.53   C 292.86 233.02 291.78 239.57 290.09 245.98   Q 288.65 251.44 287.66 256.73   Q 283.53 278.62 278.60 299.90   Q 278.15 301.86 276.74 303.40   Q 276.30 303.87 275.68 303.69   C 272.23 302.70 270.12 305.05 266.93 305.07   Q 264.05 305.08 261.09 304.25   Q 259.71 303.87 258.99 302.52   Q 255.96 296.87 254.32 291.83   Q 254.04 290.97 254.93 290.84   Q 255.18 290.80 255.40 290.92   Q 256.67 291.62 257.30 292.89   Q 258.68 295.65 260.85 297.73   C 262.08 298.91 262.34 300.40 262.69 301.98   A 2.82 2.81 -10.6 0 0 265.87 304.15   C 269.31 303.62 272.24 301.29 271.69 297.53   Q 271.40 295.57 272.47 294.07   Z"
     id="path895"
     style="fill:#000000;fill-opacity:1;stroke-width:0.75590551;stroke-miterlimit:4;stroke-dasharray:none;stroke:#000000;stroke-opacity:1" />
  <path
     fill="#847d7b"
     d="   M 468.00 285.42   Q 466.96 284.49 465.57 284.99   A 0.88 0.87 63.8 0 1 464.52 284.63   C 462.14 280.73 466.84 279.01 469.26 281.25   Q 472.29 284.08 471.06 288.09   C 470.66 289.38 470.90 290.44 471.37 291.64   A 1.04 1.04 0.0 0 1 471.11 292.77   C 469.30 294.50 464.04 294.86 461.58 295.16   A 1.54 1.54 0.0 0 1 460.21 292.66   C 461.34 291.28 463.65 291.04 465.31 290.45   Q 465.99 290.20 466.18 289.50   Q 466.64 287.78 468.00 286.58   Q 468.64 286.00 468.00 285.42   Z"
     id="path897"
     style="fill:#000000;fill-opacity:1;stroke-width:0.75590551;stroke-miterlimit:4;stroke-dasharray:none;stroke:#000000;stroke-opacity:1" />
  <path
     fill="#847d7b"
     d="   M 393.38 300.79   A 0.23 0.23 0.0 0 1 393.31 300.47   L 393.47 300.21   A 12.72 0.85 -57.7 0 1 400.99 289.92   L 401.28 290.10   A 12.72 0.85 -57.7 0 1 395.20 301.30   L 395.03 301.56   A 0.23 0.23 0.0 0 1 394.72 301.64   L 393.38 300.79   Z"
     id="path899"
     style="fill:#000000;fill-opacity:1;stroke-width:0.75590551;stroke-miterlimit:4;stroke-dasharray:none;stroke:#000000;stroke-opacity:1" />
  <path
     fill="#847d7b"
     d="   M 265.46 297.93   A 0.04 0.04 0.0 0 1 265.40 297.91   L 265.39 297.89   A 3.69 3.57 -30.8 0 1 266.73 292.93   L 266.85 292.86   A 3.69 3.57 -30.8 0 1 271.85 294.04   L 271.86 294.06   A 0.04 0.04 0.0 0 1 271.85 294.12   L 265.46 297.93   Z"
     id="path901"
     style="fill:#000000;fill-opacity:1;stroke-width:0.75590551;stroke-miterlimit:4;stroke-dasharray:none;stroke:#000000;stroke-opacity:1" />
  <path
     fill="#847d7b"
     d="   M 236.28 299.13   Q 238.67 293.29 244.04 297.08   Q 247.51 299.53 244.91 303.73   A 0.75 0.75 0.0 0 1 243.55 303.54   C 242.53 299.84 241.46 295.63 236.64 299.40   Q 235.94 299.96 236.28 299.13   Z"
     id="path903"
     style="fill:#000000;fill-opacity:1;stroke-width:0.75590551;stroke-miterlimit:4;stroke-dasharray:none;stroke:#000000;stroke-opacity:1" />
  <path
     fill="#847d7b"
     d="   M 209.82 305.31   Q 208.76 305.79 208.84 306.95   C 209.22 312.48 213.59 310.94 216.89 309.56   Q 217.61 309.26 217.78 310.02   Q 218.09 311.44 217.66 312.66   A 2.00 1.98 -77.4 0 1 215.58 313.99   Q 209.92 313.40 206.64 308.82   C 203.28 304.12 209.01 301.64 212.80 302.46   Q 216.51 303.25 220.07 304.40   Q 220.97 304.69 220.05 304.92   Q 217.90 305.45 215.87 304.89   Q 212.73 304.00 209.82 305.31   Z"
     id="path905"
     style="fill:#000000;fill-opacity:1;stroke-width:0.75590551;stroke-miterlimit:4;stroke-dasharray:none;stroke:#000000;stroke-opacity:1" />
  <path
     fill="#847d7b"
     d="   M 190.40 318.62   A 0.11 0.11 0.0 0 1 190.29 318.74   L 190.25 318.74   A 5.81 2.91 87.1 0 1 187.05 313.09   L 186.91 310.31   A 5.81 2.91 87.1 0 1 189.52 304.36   L 189.56 304.36   A 0.11 0.11 0.0 0 1 189.68 304.46   L 190.40 318.62   Z"
     id="path907"
     style="fill:#000000;fill-opacity:1;stroke-width:0.75590551;stroke-miterlimit:4;stroke-dasharray:none;stroke:#000000;stroke-opacity:1" />
</svg>
