<?xml version="1.0" encoding="UTF-8" standalone="no"?>
<!DOCTYPE svg PUBLIC "-//W3C//DTD SVG 1.1//EN" "http://www.w3.org/Graphics/SVG/1.1/DTD/svg11.dtd">
<svg xmlns="http://www.w3.org/2000/svg" version="1.1" viewBox="0.00 0.00 500.00 499.00">
<path fill="#080808" d="
  M 94.26 264.82
  Q 98.42 262.75 100.46 259.64
  Q 101.64 257.83 103.17 256.48
  C 104.55 255.27 105.08 253.74 106.33 252.46
  C 106.74 252.04 107.00 251.59 106.97 251.00
  A 1.02 1.02 0.0 0 1 107.40 250.13
  Q 108.29 249.53 108.57 248.50
  A 1.23 1.23 0.0 0 1 109.21 247.71
  Q 113.10 245.74 114.10 244.36
  Q 115.88 241.91 119.19 239.12
  Q 120.86 237.71 122.13 235.45
  C 123.04 233.82 124.43 233.11 124.92 231.23
  Q 125.08 230.63 125.69 230.58
  Q 126.90 230.46 127.37 229.32
  A 2.50 2.38 83.6 0 1 128.12 228.33
  C 129.41 227.30 130.79 226.53 131.77 225.15
  Q 134.76 220.96 138.46 217.61
  Q 139.56 216.61 140.04 215.30
  Q 140.65 213.61 141.42 211.84
  C 142.15 210.17 141.73 208.55 142.51 206.93
  C 143.24 205.43 142.37 203.87 143.31 202.09
  Q 143.67 201.41 143.60 200.60
  Q 143.55 200.00 143.83 199.45
  Q 145.97 195.21 146.89 190.58
  C 147.20 189.02 147.97 188.16 148.50 186.76
  Q 148.71 186.20 149.30 186.22
  Q 149.50 186.23 149.66 186.12
  Q 150.15 185.82 150.07 185.24
  Q 149.70 182.61 151.66 181.38
  C 153.12 180.48 154.18 179.21 155.57 178.24
  Q 156.00 177.94 156.49 178.12
  L 160.75 179.63
  Q 161.23 179.80 161.33 180.29
  Q 162.26 184.66 160.29 187.81
  A 2.24 2.24 0.0 0 0 159.97 189.22
  Q 160.24 191.85 158.67 194.13
  Q 158.31 194.66 158.28 195.29
  Q 158.12 198.10 156.20 200.01
  Q 155.84 200.37 155.82 200.88
  C 155.76 203.40 153.58 204.93 152.68 206.67
  Q 150.59 210.71 147.97 213.90
  Q 147.63 214.32 147.68 214.86
  Q 147.82 216.20 147.06 217.30
  Q 146.76 217.73 146.81 218.25
  C 146.96 219.83 146.03 220.78 146.02 222.34
  Q 145.99 228.97 146.00 235.72
  Q 146.00 236.31 145.61 236.76
  Q 144.54 238.02 145.62 239.24
  Q 146.12 239.80 145.85 240.49
  Q 145.44 241.53 145.81 242.62
  Q 145.99 243.15 145.76 243.65
  Q 144.37 246.79 145.90 249.94
  Q 146.13 250.42 145.90 250.90
  L 145.30 252.10
  A 1.64 1.63 52.8 0 0 145.16 253.15
  Q 145.37 254.25 144.56 255.03
  Q 144.16 255.41 144.41 255.90
  Q 146.82 260.59 145.40 265.14
  A 1.45 1.40 42.6 0 0 145.46 266.17
  Q 145.93 267.19 145.93 267.75
  Q 145.95 271.24 145.99 274.77
  Q 146.00 275.32 145.65 275.73
  Q 145.00 276.50 145.56 277.30
  Q 145.85 277.72 145.67 278.20
  Q 145.13 279.59 145.14 280.92
  Q 145.19 289.05 145.07 298.20
  Q 145.05 299.05 145.81 298.67
  C 146.96 298.09 146.61 297.11 147.04 296.18
  Q 148.70 292.63 150.50 289.47
  Q 152.38 286.17 153.96 283.12
  Q 155.62 279.90 157.05 276.61
  Q 157.29 276.06 157.38 275.48
  A 1.79 1.76 70.1 0 1 157.77 274.63
  Q 159.96 272.08 160.74 268.62
  Q 160.85 268.10 161.24 267.74
  C 162.97 266.16 162.76 264.30 163.91 262.51
  Q 167.44 256.99 170.48 250.95
  C 171.42 249.09 173.53 247.20 173.97 245.27
  Q 174.44 243.23 175.75 241.83
  C 177.36 240.11 177.15 237.73 178.93 236.00
  Q 180.42 234.55 181.25 232.06
  Q 182.10 229.49 184.08 227.20
  Q 185.47 225.60 186.48 223.73
  Q 188.04 220.84 190.32 218.24
  Q 190.61 217.91 190.71 217.48
  Q 191.00 216.28 191.73 215.33
  Q 195.01 211.04 197.66 206.33
  C 198.47 204.89 199.99 204.36 200.98 203.00
  Q 203.53 199.50 205.99 195.96
  A 1.52 1.50 -29.4 0 0 206.26 195.01
  Q 206.23 194.40 206.61 193.93
  C 207.78 192.51 209.38 190.51 209.73 188.64
  C 210.12 186.57 212.65 184.33 213.34 183.02
  Q 217.64 174.92 222.56 168.13
  Q 225.36 164.28 227.25 159.94
  Q 228.73 156.55 230.86 153.88
  Q 234.53 149.28 237.53 144.34
  Q 239.25 141.50 241.67 138.85
  Q 244.26 136.01 245.97 133.15
  Q 247.98 129.79 250.78 126.51
  Q 253.31 123.52 255.58 119.27
  C 256.72 117.13 258.69 115.98 259.69 113.65
  A 1.78 1.72 86.5 0 1 260.38 112.84
  Q 261.32 112.25 261.74 111.19
  C 262.23 109.95 263.45 109.43 264.53 108.83
  A 1.62 1.61 42.8 0 1 265.98 108.78
  Q 268.17 109.79 268.92 112.21
  Q 269.57 114.33 267.34 115.15
  Q 266.85 115.33 266.48 115.70
  C 265.16 117.02 263.92 118.20 262.85 119.75
  Q 258.80 125.58 254.47 131.21
  C 253.24 132.82 252.09 134.97 250.63 136.32
  C 249.79 137.10 249.72 138.04 249.05 138.81
  Q 245.86 142.46 243.35 146.50
  C 241.88 148.86 240.02 150.98 238.45 153.25
  Q 238.07 153.80 237.45 154.07
  Q 236.60 154.43 236.47 155.35
  Q 236.38 155.98 235.99 156.48
  Q 234.22 158.73 232.50 161.29
  C 231.57 162.68 231.85 163.91 231.10 165.29
  Q 230.13 167.07 229.10 168.48
  Q 226.35 172.26 223.39 176.45
  Q 220.88 180.01 219.90 183.58
  Q 219.77 184.05 219.42 184.40
  Q 216.36 187.48 214.51 191.93
  Q 212.20 197.47 207.38 203.27
  Q 205.84 205.12 204.58 207.09
  C 203.39 208.96 201.83 210.56 200.71 212.45
  Q 198.90 215.49 196.80 218.30
  Q 195.74 219.71 194.89 221.28
  Q 194.03 222.88 192.80 224.37
  Q 191.91 225.45 191.24 226.64
  C 190.66 227.67 190.04 228.86 189.22 229.69
  Q 186.72 232.25 185.80 235.41
  A 1.99 1.91 -15.3 0 1 185.28 236.28
  Q 184.40 237.14 184.27 238.36
  Q 184.21 238.89 183.84 239.26
  C 182.43 240.71 181.75 242.67 180.44 244.31
  Q 179.35 245.67 178.64 247.38
  Q 178.18 248.48 177.83 249.61
  Q 177.51 250.69 176.70 251.42
  C 174.80 253.16 174.22 255.77 172.71 257.91
  Q 171.33 259.88 170.33 262.15
  C 169.79 263.39 168.35 264.17 168.12 265.41
  C 167.67 267.85 166.00 269.79 165.12 272.21
  C 164.47 274.03 163.26 277.62 161.56 278.78
  A 0.86 0.85 63.1 0 0 161.24 279.77
  Q 161.55 280.63 160.63 280.84
  A 1.01 1.00 85.3 0 0 159.83 281.79
  L 159.78 283.24
  A 1.44 1.40 -26.6 0 1 159.52 283.99
  Q 158.13 285.92 157.26 288.10
  C 156.61 289.70 154.96 290.76 154.95 292.44
  Q 154.94 294.60 153.14 296.46
  C 152.46 297.15 152.76 297.89 152.26 298.59
  Q 149.35 302.67 147.67 307.50
  C 147.30 308.54 147.67 309.59 147.07 310.70
  Q 145.87 312.93 145.03 315.30
  C 144.70 316.25 144.10 316.54 144.24 317.73
  Q 144.30 318.23 144.14 318.71
  L 142.86 322.41
  Q 142.68 322.92 142.76 323.46
  Q 143.10 325.76 141.96 327.36
  A 1.72 1.71 58.3 0 0 141.66 328.65
  Q 141.90 330.02 141.24 331.39
  Q 141.00 331.89 141.08 332.44
  Q 141.47 335.02 140.67 337.42
  C 140.10 339.15 140.26 340.26 140.21 341.98
  C 140.17 343.49 139.30 344.35 139.43 345.94
  Q 139.48 346.49 139.18 346.96
  Q 138.56 347.90 138.71 348.98
  A 1.95 1.93 58.5 0 1 138.40 350.30
  Q 136.69 352.92 135.72 355.88
  C 134.57 359.41 131.81 361.66 129.47 364.37
  Q 129.07 364.84 128.46 364.88
  Q 124.96 365.11 123.98 362.20
  C 123.51 360.81 122.31 359.24 122.30 357.84
  Q 122.30 353.47 122.45 349.25
  Q 122.46 348.74 122.76 348.32
  Q 124.25 346.18 124.87 343.19
  A 1.75 1.75 0.0 0 1 125.38 342.27
  Q 126.76 340.96 126.43 339.10
  Q 126.32 338.48 126.83 338.10
  Q 128.42 336.92 128.10 335.00
  Q 128.02 334.48 128.48 334.23
  L 129.91 333.47
  Q 130.51 333.15 130.51 332.46
  L 130.51 330.24
  Q 130.51 329.48 131.10 329.01
  Q 132.59 327.82 133.27 325.66
  C 134.41 322.03 137.83 318.43 138.51 315.51
  Q 138.96 313.60 138.68 305.09
  Q 138.65 304.34 139.21 303.48
  Q 139.50 303.03 139.49 302.50
  Q 139.45 295.61 139.60 288.27
  C 139.62 286.93 140.27 285.89 140.24 284.59
  Q 140.15 279.69 140.26 275.15
  Q 140.31 272.99 139.57 270.84
  C 139.31 270.08 139.58 269.18 140.14 268.61
  Q 140.57 268.18 140.24 267.67
  L 139.80 267.00
  Q 139.50 266.55 139.50 266.00
  L 139.51 260.53
  Q 139.51 259.97 139.83 259.51
  Q 140.39 258.70 139.85 257.92
  Q 139.54 257.47 139.53 256.92
  Q 139.51 254.75 139.51 252.57
  C 139.52 250.76 140.06 249.04 139.53 247.27
  Q 139.37 246.73 139.63 246.23
  C 141.01 243.50 139.89 241.69 139.64 239.03
  Q 139.09 233.14 139.76 227.57
  Q 140.05 225.15 138.29 226.83
  Q 136.67 228.37 135.11 230.22
  C 134.07 231.45 133.52 232.81 132.09 233.71
  A 1.62 1.60 -9.9 0 0 131.40 234.68
  Q 131.00 236.30 129.48 236.85
  Q 129.00 237.01 128.93 237.51
  L 128.73 238.77
  Q 128.67 239.15 128.34 239.36
  Q 125.32 241.25 121.69 245.37
  Q 118.58 248.92 116.48 251.81
  Q 113.87 255.40 111.33 258.01
  Q 107.51 261.95 104.53 266.28
  C 103.06 268.41 100.67 268.76 99.19 270.90
  Q 98.26 272.23 97.07 273.31
  Q 95.81 274.46 94.95 275.63
  Q 93.75 277.27 92.23 278.59
  C 91.05 279.64 91.66 281.05 90.74 282.02
  Q 90.37 282.42 89.85 282.49
  Q 89.29 282.56 89.09 283.08
  Q 88.60 284.34 87.57 285.23
  A 1.13 1.13 0.0 0 0 87.20 286.31
  Q 87.31 286.90 87.65 287.41
  Q 88.02 287.99 87.48 288.41
  L 87.12 288.69
  Q 86.72 289.00 86.62 289.49
  Q 86.03 292.27 85.23 295.00
  Q 84.74 296.66 84.78 298.59
  Q 84.81 300.14 84.32 301.83
  Q 83.87 303.42 83.48 304.97
  Q 83.10 306.53 82.52 308.01
  Q 79.43 315.95 76.05 323.29
  A 1.96 1.88 54.0 0 0 75.90 324.39
  Q 75.96 324.75 75.89 325.11
  Q 75.81 325.59 75.40 325.85
  Q 74.05 326.74 74.19 328.39
  Q 74.23 328.94 73.92 329.40
  C 73.33 330.28 72.78 330.86 72.59 331.97
  Q 72.21 334.33 70.94 336.50
  C 70.40 337.43 69.47 337.89 69.22 338.93
  Q 69.08 339.53 68.67 340.13
  Q 66.37 343.54 62.62 346.94
  C 60.69 348.69 58.13 348.17 57.25 345.70
  Q 56.83 344.51 56.47 343.28
  Q 56.30 342.72 56.36 342.13
  Q 56.46 341.18 55.87 340.49
  Q 55.51 340.06 55.51 339.50
  L 55.49 330.26
  Q 55.49 329.71 55.80 329.27
  Q 56.40 328.42 56.30 327.41
  Q 56.25 326.90 56.47 326.43
  L 58.61 321.92
  Q 58.90 321.31 58.76 320.65
  Q 58.55 319.70 59.42 319.39
  Q 60.00 319.19 60.27 318.64
  Q 61.65 315.75 62.84 312.50
  Q 65.06 306.43 68.87 300.82
  Q 69.38 300.05 70.10 299.43
  A 2.25 2.18 -12.0 0 0 70.75 298.46
  Q 71.44 296.46 72.91 294.98
  Q 73.32 294.57 73.33 293.98
  C 73.35 293.29 73.42 292.78 73.90 292.22
  Q 76.19 289.57 77.62 286.29
  Q 77.83 285.82 78.24 285.51
  Q 80.41 283.85 80.83 281.69
  Q 80.93 281.15 81.42 280.91
  Q 82.39 280.41 82.51 279.35
  Q 82.56 278.85 83.01 278.64
  Q 85.22 277.57 85.77 275.20
  Q 85.90 274.65 86.35 274.33
  Q 87.12 273.79 87.22 272.89
  Q 87.53 269.79 89.03 267.16
  C 89.68 266.03 89.89 265.07 89.76 263.75
  Q 89.70 263.18 90.02 262.71
  Q 91.74 260.15 92.09 256.89
  Q 92.41 253.92 93.67 250.96
  Q 93.88 250.48 93.80 249.96
  Q 93.61 248.61 94.09 247.45
  C 95.01 245.21 94.63 242.08 94.76 239.75
  Q 94.89 237.18 96.05 234.53
  Q 96.25 234.07 95.91 233.70
  Q 95.09 232.82 95.78 231.77
  Q 96.10 231.30 96.14 230.72
  Q 96.25 229.24 96.21 227.59
  Q 96.18 226.10 96.61 224.53
  Q 97.60 220.95 97.99 217.60
  Q 98.09 216.68 98.58 215.84
  A 1.77 1.71 -35.3 0 0 98.79 214.72
  Q 98.45 212.63 99.05 210.84
  Q 99.58 209.27 99.46 207.48
  Q 99.26 204.20 99.93 201.06
  Q 100.58 198.07 100.25 195.20
  Q 100.19 194.72 100.39 194.29
  Q 101.73 191.39 101.89 188.44
  Q 101.99 186.77 102.52 185.08
  C 103.15 183.11 102.48 181.08 103.04 179.05
  Q 103.72 176.50 103.64 173.96
  Q 103.51 169.98 103.98 165.87
  Q 104.17 164.13 103.89 162.60
  A 2.11 2.09 -5.7 0 0 101.80 160.90
  L 98.38 160.93
  Q 97.82 160.94 97.37 160.61
  Q 96.53 160.01 95.49 159.98
  Q 94.92 159.96 94.45 159.64
  Q 92.29 158.16 89.76 157.61
  A 2.32 2.32 0.0 0 1 88.58 156.95
  Q 86.34 154.67 84.51 151.62
  Q 84.14 151.00 84.07 150.29
  Q 83.96 149.25 82.90 149.46
  Q 82.24 149.59 81.87 149.04
  Q 80.27 146.65 78.97 144.20
  Q 78.45 143.22 77.70 142.52
  C 76.42 141.33 75.90 139.99 74.39 138.90
  Q 73.17 138.02 71.94 137.28
  C 69.93 136.07 66.28 135.69 64.22 137.33
  Q 62.99 138.31 61.62 138.75
  Q 61.08 138.92 61.13 139.49
  Q 61.21 140.45 60.27 140.54
  Q 59.56 140.60 59.23 141.24
  Q 58.16 143.31 56.22 144.85
  Q 55.76 145.21 55.58 145.76
  C 54.76 148.13 53.15 150.29 53.03 152.88
  Q 52.82 157.17 52.91 162.13
  Q 52.94 163.86 54.20 165.18
  Q 57.09 168.22 61.77 167.41
  Q 63.77 167.07 67.76 165.03
  Q 69.31 164.23 69.27 165.98
  L 69.22 167.58
  Q 69.18 169.27 67.58 169.82
  Q 63.95 171.09 59.84 171.81
  Q 57.13 172.29 55.16 171.63
  Q 52.92 170.89 50.92 169.58
  C 49.02 168.33 48.46 166.28 47.68 164.29
  C 47.16 162.96 47.54 161.54 46.71 160.47
  Q 46.37 160.04 46.64 159.55
  Q 47.54 157.90 47.26 156.05
  A 1.80 1.77 -34.6 0 1 47.48 154.90
  Q 48.26 153.57 48.18 152.04
  Q 48.15 151.52 48.49 151.12
  Q 49.08 150.42 48.97 149.44
  Q 48.90 148.87 49.20 148.39
  L 51.32 144.96
  A 0.12 0.09 -35.8 0 0 51.34 144.90
  Q 51.46 144.46 51.35 144.07
  A 0.77 0.77 0.0 0 1 51.47 143.39
  C 53.57 140.61 54.59 137.93 57.76 135.85
  C 59.74 134.54 61.02 132.58 63.25 131.63
  Q 66.33 130.32 69.74 129.91
  Q 70.27 129.84 70.69 130.18
  Q 71.41 130.75 72.38 130.79
  Q 72.93 130.80 73.41 131.05
  L 75.27 132.01
  Q 75.74 132.26 76.27 132.28
  C 78.42 132.36 78.75 134.49 80.54 135.40
  A 1.81 1.79 -1.7 0 1 81.29 136.10
  Q 83.21 139.37 86.12 142.11
  Q 86.46 142.43 86.51 142.91
  A 1.22 1.22 0.0 0 0 86.78 143.55
  Q 88.94 146.14 91.13 149.14
  Q 91.85 150.13 92.80 150.85
  C 95.02 152.55 96.61 154.11 99.71 153.69
  A 1.36 1.34 -32.2 0 1 100.63 153.89
  Q 102.09 154.80 103.88 154.30
  Q 104.37 154.16 104.40 153.65
  Q 104.58 151.13 104.81 148.50
  Q 104.87 147.92 105.66 146.89
  Q 105.99 146.47 106.00 145.93
  Q 106.10 142.27 106.11 138.46
  C 106.11 136.87 106.88 135.55 106.83 133.88
  C 106.73 130.28 107.25 126.63 106.37 123.11
  Q 106.16 122.28 106.36 121.39
  Q 107.08 118.32 106.88 115.06
  Q 106.76 112.86 107.49 110.21
  Q 108.46 106.71 108.52 103.48
  Q 108.56 101.03 109.32 98.94
  C 110.05 96.93 110.21 94.94 111.16 93.02
  C 112.29 90.74 111.48 88.27 112.16 85.74
  C 112.63 83.97 113.23 82.27 113.34 80.37
  Q 113.53 77.07 114.67 73.27
  C 115.39 70.90 114.41 68.97 116.31 66.83
  Q 116.63 66.47 116.65 65.99
  L 116.69 64.83
  Q 116.71 64.32 116.99 63.90
  Q 117.66 62.88 117.55 61.73
  Q 117.50 61.23 117.77 60.80
  Q 118.50 59.61 118.26 58.25
  Q 118.17 57.74 118.53 57.37
  L 119.56 56.32
  A 1.23 1.23 0.0 0 0 119.92 55.50
  Q 120.02 52.76 121.83 50.73
  Q 122.30 50.21 122.26 49.51
  Q 122.16 47.42 123.93 46.24
  Q 124.55 45.83 124.71 45.11
  Q 125.66 40.82 128.91 37.96
  C 129.44 37.49 129.81 36.86 129.75 36.15
  A 1.24 1.23 62.3 0 1 130.01 35.31
  L 132.95 31.63
  A 2.35 2.31 -80.7 0 1 133.88 30.95
  Q 135.23 30.42 135.54 29.10
  Q 135.65 28.64 136.11 28.56
  Q 138.05 28.23 139.95 27.52
  C 142.78 26.44 145.14 26.87 147.66 28.66
  Q 148.76 29.44 149.59 30.57
  Q 150.45 31.75 151.24 32.88
  Q 153.80 36.55 155.40 42.96
  Q 155.54 43.51 155.26 44.01
  Q 154.44 45.52 155.56 46.84
  A 1.74 1.74 0.0 0 1 155.97 48.04
  Q 155.88 49.75 156.43 51.37
  Q 156.64 51.98 156.35 52.57
  C 155.69 53.90 156.56 54.83 156.59 56.17
  Q 156.71 60.90 156.52 64.85
  C 156.47 65.86 155.81 66.47 155.80 67.42
  Q 155.74 71.22 155.72 75.21
  C 155.71 76.56 154.91 77.82 154.13 78.86
  Q 153.81 79.29 154.11 79.73
  Q 154.24 79.91 154.43 80.02
  Q 155.04 80.37 154.78 81.03
  Q 153.56 84.05 153.40 86.15
  Q 153.10 90.10 152.20 93.65
  C 151.79 95.29 151.89 96.83 151.08 98.26
  A 1.80 1.72 58.7 0 0 150.86 99.26
  Q 150.95 100.69 150.48 102.05
  Q 149.58 104.67 149.15 107.61
  C 148.96 108.94 147.97 109.87 147.74 111.16
  Q 147.40 112.98 145.90 114.20
  Q 145.50 114.52 145.41 115.03
  Q 144.48 119.98 140.73 124.27
  Q 140.36 124.69 140.26 125.26
  Q 140.17 125.75 139.92 126.17
  Q 137.46 130.30 134.57 133.87
  Q 132.57 136.35 130.97 139.25
  Q 128.91 143.00 126.29 145.80
  Q 123.18 149.12 119.60 152.46
  Q 118.98 153.04 118.80 153.87
  Q 118.49 155.26 117.20 155.19
  Q 116.58 155.16 116.04 155.46
  L 110.48 158.51
  Q 109.99 158.78 110.00 159.33
  C 110.03 160.91 110.44 162.91 109.52 164.28
  Q 109.19 164.77 109.24 165.36
  Q 109.60 169.91 108.82 174.00
  Q 108.34 176.51 108.50 179.17
  Q 108.53 179.58 108.35 179.97
  Q 107.38 182.15 107.72 184.78
  Q 107.79 185.34 107.51 185.82
  Q 106.46 187.61 106.77 189.81
  A 2.35 2.27 54.2 0 1 106.58 191.12
  C 105.48 193.51 106.75 195.80 105.39 197.94
  Q 105.06 198.46 105.12 199.08
  Q 105.65 204.09 104.40 208.74
  Q 103.81 210.94 103.41 213.24
  Q 103.00 215.59 102.12 217.75
  Q 101.91 218.28 101.97 218.85
  Q 102.20 221.07 101.26 223.09
  A 2.10 2.02 -38.4 0 0 101.09 224.35
  Q 101.75 227.93 100.69 231.10
  C 99.74 233.96 101.22 237.23 99.69 239.78
  A 0.97 0.96 -42.1 0 0 99.64 240.66
  Q 101.24 244.27 99.08 247.39
  A 1.98 1.97 65.3 0 0 98.74 248.32
  Q 98.27 253.07 95.80 257.19
  Q 95.47 257.73 95.45 258.37
  L 95.37 261.40
  Q 95.35 262.01 94.84 262.33
  Q 93.66 263.07 93.69 264.48
  Q 93.70 265.09 94.26 264.82
  Z
  M 127.97 133.93
  Q 128.26 133.95 128.49 133.80
  Q 128.86 133.57 128.92 133.13
  C 129.07 132.03 130.12 131.55 130.73 130.69
  Q 136.79 122.13 140.23 114.74
  Q 141.76 111.47 143.33 108.32
  Q 144.16 106.66 144.61 104.94
  Q 145.08 103.14 145.67 101.37
  Q 146.54 98.78 147.01 96.10
  Q 147.48 93.46 148.29 90.95
  C 148.61 89.94 148.29 88.96 148.64 88.01
  Q 149.01 87.00 149.17 85.92
  Q 149.92 80.95 150.60 76.12
  Q 150.69 75.51 151.48 74.17
  Q 151.73 73.75 151.73 73.26
  C 151.75 70.91 151.44 68.13 152.13 65.87
  C 152.79 63.72 151.81 61.25 151.79 59.02
  Q 151.71 52.56 151.77 45.80
  Q 151.78 44.28 151.16 42.80
  Q 150.41 41.01 150.03 39.22
  Q 149.90 38.61 149.46 38.16
  Q 148.60 37.28 148.47 36.05
  Q 148.40 35.42 147.99 34.95
  Q 146.04 32.73 143.25 31.43
  A 0.83 0.80 49.5 0 0 142.74 31.38
  L 139.27 32.14
  A 2.18 2.17 -74.2 0 0 138.13 32.78
  Q 136.86 34.14 135.24 34.90
  A 2.27 2.23 -88.9 0 0 134.19 35.93
  Q 133.37 37.59 132.23 39.09
  C 131.26 40.35 131.29 41.81 129.81 42.70
  Q 129.34 42.98 129.12 43.50
  Q 128.17 45.80 127.90 48.29
  Q 127.84 48.84 127.44 49.21
  Q 125.77 50.79 125.48 53.12
  Q 125.41 53.61 125.07 53.95
  Q 123.04 55.99 123.17 58.54
  A 1.29 1.28 64.1 0 1 122.87 59.42
  L 122.57 59.77
  A 1.31 1.29 -28.4 0 0 122.26 60.78
  Q 122.38 61.81 121.82 62.62
  A 1.80 1.76 -33.5 0 0 121.53 63.97
  Q 121.80 65.39 120.88 66.39
  Q 120.40 66.91 120.62 67.57
  Q 120.95 68.58 120.55 69.51
  Q 120.13 70.49 119.99 71.47
  Q 119.32 76.32 117.74 81.01
  C 117.16 82.72 117.73 84.26 117.17 85.92
  Q 116.68 87.39 116.55 88.85
  Q 116.16 93.33 114.42 97.41
  Q 114.24 97.83 114.28 98.30
  Q 114.39 99.90 113.61 101.24
  Q 113.32 101.74 113.33 102.32
  Q 113.42 105.78 112.80 109.06
  C 112.67 109.73 112.35 110.00 111.97 110.50
  Q 111.63 110.94 111.85 111.44
  Q 113.28 114.74 111.97 118.04
  Q 111.76 118.57 111.96 119.10
  Q 112.57 120.71 112.35 122.31
  C 112.05 124.48 112.51 126.56 112.50 128.71
  A 1.64 1.60 64.7 0 1 112.15 129.72
  Q 111.58 130.42 111.74 131.31
  A 1.40 1.37 -36.7 0 1 111.60 132.19
  Q 110.76 133.79 111.11 135.46
  Q 111.41 136.93 111.14 138.44
  Q 110.82 140.29 110.30 141.79
  Q 110.13 142.29 110.43 142.73
  Q 111.22 143.89 110.93 145.32
  A 1.55 1.54 -16.7 0 1 110.47 146.17
  Q 109.94 146.69 109.64 147.31
  Q 109.42 147.75 109.66 148.18
  Q 110.23 149.24 109.95 150.50
  Q 109.82 151.10 110.41 150.94
  C 113.81 150.03 115.02 147.90 117.72 146.35
  C 118.68 145.79 118.76 144.65 119.60 143.87
  Q 121.87 141.78 124.12 139.18
  C 125.11 138.02 125.22 136.42 126.68 135.62
  Q 127.09 135.40 127.16 134.94
  L 127.22 134.53
  Q 127.33 133.89 127.97 133.93
  Z
  M 150.6035 197.9106
  A 4.59 1.00 112.5 0 0 153.2839 194.0527
  A 4.59 1.00 112.5 0 0 154.1165 189.4294
  A 4.59 1.00 112.5 0 0 151.4361 193.2873
  A 4.59 1.00 112.5 0 0 150.6035 197.9106
  Z
  M 75.88 302.08
  Q 74.83 302.32 74.54 303.32
  Q 73.62 306.43 71.17 309.01
  Q 70.83 309.37 70.71 309.85
  Q 69.80 313.62 67.19 315.54
  A 0.90 0.90 0.0 0 0 66.87 316.53
  Q 67.45 318.39 66.11 319.64
  Q 64.55 321.09 64.36 323.21
  Q 64.32 323.72 63.99 324.12
  Q 60.92 327.88 61.10 332.70
  Q 61.12 333.18 60.92 333.62
  Q 59.87 335.84 60.88 338.47
  Q 61.24 339.42 61.21 340.47
  Q 61.20 341.06 61.74 341.30
  Q 63.21 341.92 63.99 340.30
  Q 65.65 336.88 68.08 335.31
  Q 68.42 335.09 68.45 334.68
  L 68.54 333.02
  Q 68.57 332.50 68.83 332.05
  Q 70.76 328.73 72.01 324.91
  Q 73.04 321.72 74.22 318.68
  Q 75.44 315.53 76.70 312.36
  Q 78.99 306.61 80.50 301.62
  C 80.84 300.49 80.76 299.32 80.78 298.15
  A 1.81 1.75 -26.6 0 1 81.15 297.10
  Q 81.72 296.34 81.69 295.45
  A 0.83 0.82 -17.4 0 0 80.42 294.79
  Q 79.23 295.57 79.06 296.98
  Q 78.99 297.60 78.57 298.06
  Q 77.35 299.40 76.88 301.12
  Q 76.66 301.90 75.88 302.08
  Z
  M 126.85 356.11
  C 127.26 356.94 127.25 357.36 127.23 358.27
  Q 127.19 360.08 128.77 359.20
  Q 131.11 357.89 131.48 355.81
  Q 131.57 355.33 131.86 354.93
  Q 134.07 351.98 134.58 348.56
  Q 135.05 345.43 135.85 342.23
  Q 136.36 340.19 136.23 338.22
  Q 136.20 337.75 136.38 337.31
  Q 137.43 334.84 136.94 331.97
  Q 136.83 331.38 136.37 331.76
  Q 134.58 333.24 134.46 335.10
  Q 134.43 335.66 134.09 336.11
  Q 132.28 338.53 131.57 341.43
  Q 131.07 343.45 129.89 345.29
  C 128.31 347.75 125.45 353.23 126.85 356.11
  Z"
/>
<path fill="#080808" d="
  M 243.69 368.00
  C 250.32 364.55 256.67 357.88 261.33 355.06
  Q 271.14 349.13 285.32 341.34
  C 286.70 340.59 288.26 340.70 289.35 339.58
  A 2.12 2.10 22.2 0 1 290.89 338.94
  Q 292.54 338.94 294.19 338.28
  Q 294.71 338.08 295.25 338.25
  Q 299.96 339.77 300.94 344.09
  Q 301.94 348.50 299.86 351.92
  Q 299.36 352.73 299.25 353.68
  Q 299.20 354.14 298.85 354.44
  Q 297.66 355.47 297.05 357.05
  C 296.22 359.24 294.46 361.05 293.23 363.06
  C 292.37 364.46 290.87 365.27 290.26 366.75
  Q 289.91 367.61 289.30 368.38
  Q 285.13 373.69 281.10 378.09
  C 280.51 378.74 280.34 379.44 279.73 380.08
  Q 276.67 383.30 273.86 386.24
  C 272.85 387.29 272.40 388.49 271.30 389.51
  Q 267.37 393.17 263.72 397.00
  Q 263.51 397.23 263.44 397.54
  Q 263.33 398.05 262.88 398.32
  Q 261.07 399.37 259.85 401.17
  Q 258.76 402.79 257.41 404.08
  C 253.12 408.21 248.88 412.58 245.70 417.70
  Q 244.25 420.03 242.51 422.17
  C 241.17 423.81 240.86 425.66 239.42 427.13
  Q 239.01 427.56 238.96 428.15
  Q 238.88 429.05 238.42 429.77
  Q 237.31 431.46 237.20 433.43
  Q 237.17 433.93 236.90 434.36
  Q 236.38 435.18 236.49 436.19
  Q 236.55 436.73 236.32 437.22
  Q 234.94 440.16 234.16 443.67
  C 233.95 444.62 234.28 445.82 233.74 446.57
  Q 233.45 446.98 233.38 447.47
  C 232.95 450.68 233.04 456.61 237.86 455.71
  Q 238.46 455.60 238.89 456.03
  Q 240.14 457.29 239.03 458.57
  A 1.25 1.24 28.9 0 1 237.72 458.94
  Q 235.20 458.15 232.83 457.18
  Q 232.11 456.88 231.74 456.15
  Q 229.08 450.97 230.43 445.73
  Q 230.76 444.44 230.73 443.24
  C 230.67 441.00 231.83 439.49 231.76 437.27
  Q 231.74 436.76 232.01 436.33
  Q 232.13 436.16 232.24 435.98
  Q 232.37 435.78 232.38 435.54
  C 232.51 433.57 233.79 432.45 234.22 430.59
  Q 234.54 429.20 235.43 428.00
  A 1.74 1.74 0.0 0 0 235.76 426.95
  Q 235.75 426.29 236.13 425.77
  Q 238.34 422.74 239.25 419.62
  Q 239.40 419.12 239.87 418.89
  C 242.07 417.86 242.57 415.48 244.05 413.67
  Q 249.73 406.80 256.17 400.66
  Q 257.87 399.03 259.23 397.24
  C 260.50 395.55 262.22 394.54 263.65 392.98
  Q 268.34 387.85 273.09 382.74
  Q 274.66 381.04 276.13 379.13
  C 277.43 377.43 279.05 376.29 280.28 374.36
  Q 282.12 371.48 284.33 368.79
  Q 286.13 366.60 287.71 364.29
  Q 289.26 362.02 290.89 359.71
  Q 291.18 359.29 291.19 358.79
  C 291.19 357.81 291.25 357.39 291.92 356.61
  Q 295.28 352.77 296.11 347.19
  C 296.76 342.84 293.27 343.76 290.65 343.80
  Q 290.10 343.81 289.66 344.17
  C 288.78 344.89 287.87 344.57 286.81 345.11
  Q 284.45 346.31 282.63 347.64
  A 1.71 1.67 -62.6 0 1 281.63 347.97
  C 279.96 347.98 279.13 349.31 277.79 350.09
  Q 274.31 352.11 271.24 354.13
  Q 270.11 354.86 268.73 355.21
  C 266.22 355.85 263.00 358.68 260.79 360.18
  Q 259.68 360.94 258.75 361.99
  C 257.22 363.71 255.34 364.49 253.80 366.13
  C 252.63 367.37 251.21 368.18 250.11 369.41
  Q 248.90 370.76 247.11 371.85
  Q 246.32 372.33 245.37 372.50
  C 243.49 372.82 242.50 374.57 240.46 374.90
  Q 239.55 375.04 238.71 375.45
  Q 237.98 375.81 237.34 375.31
  C 234.36 372.93 236.39 369.74 238.09 367.48
  Q 240.42 364.37 242.61 361.16
  Q 244.61 358.23 247.30 355.50
  Q 252.99 349.73 258.83 344.62
  C 261.21 342.54 263.89 341.05 266.29 338.99
  C 269.97 335.83 274.20 332.99 278.12 329.88
  Q 280.68 327.85 283.44 326.24
  Q 285.57 325.00 287.27 323.46
  C 289.00 321.91 291.09 321.34 292.72 319.84
  C 296.51 316.34 300.85 314.14 304.68 311.01
  C 308.22 308.12 312.10 305.70 315.54 302.73
  C 317.54 301.01 319.87 300.17 321.51 298.06
  C 322.00 297.43 322.67 297.29 323.28 296.76
  Q 327.47 293.15 331.20 290.39
  Q 333.25 288.87 334.92 286.75
  Q 336.63 284.57 338.85 283.20
  C 339.69 282.67 339.98 281.95 340.20 281.01
  Q 340.34 280.46 340.77 280.10
  Q 343.55 277.80 346.00 275.47
  Q 348.45 273.14 349.46 269.67
  Q 349.93 268.05 348.40 268.77
  Q 348.15 268.89 347.94 269.07
  Q 347.53 269.43 346.98 269.45
  Q 345.72 269.48 344.58 270.10
  Q 344.10 270.36 343.56 270.30
  Q 342.32 270.14 341.04 270.56
  Q 337.43 271.76 334.35 272.84
  Q 333.62 273.09 332.95 273.58
  Q 332.28 274.07 331.51 274.39
  Q 328.20 275.75 325.36 278.19
  C 324.23 279.16 322.95 279.65 321.69 280.40
  Q 321.24 280.67 321.04 281.16
  Q 320.14 283.44 317.99 283.43
  A 0.68 0.68 0.0 0 0 317.31 284.04
  L 317.21 284.97
  Q 317.17 285.42 316.86 285.74
  Q 314.51 288.22 311.07 287.32
  A 0.94 0.93 -9.2 0 1 310.51 286.92
  Q 309.57 285.55 310.12 283.83
  C 311.44 279.66 313.87 276.30 315.75 272.39
  C 317.50 268.78 319.81 265.50 321.84 262.02
  Q 325.12 256.38 329.08 250.31
  Q 330.10 248.76 330.72 247.01
  Q 331.43 245.01 332.97 243.72
  A 1.82 1.73 -14.0 0 0 333.55 242.81
  Q 333.73 242.12 334.24 241.69
  Q 334.62 241.36 334.87 240.92
  L 337.87 235.72
  Q 338.13 235.27 338.63 235.10
  Q 338.90 235.01 339.10 234.84
  Q 339.24 234.72 339.31 234.56
  Q 340.39 232.17 341.80 229.81
  Q 341.88 229.67 341.76 229.56
  L 341.53 229.36
  Q 341.11 229.00 340.69 229.35
  L 338.12 231.53
  Q 337.77 231.83 337.60 232.26
  Q 337.43 232.71 336.96 232.75
  A 0.97 0.97 0.0 0 0 336.11 233.42
  Q 335.82 234.33 334.91 234.52
  Q 334.45 234.62 334.17 234.98
  C 333.09 236.34 331.84 237.18 330.91 238.68
  C 329.66 240.68 327.79 241.33 326.31 243.06
  Q 321.90 248.15 317.10 253.16
  Q 315.32 255.01 313.68 256.96
  C 311.42 259.64 309.39 262.00 305.62 262.27
  Q 304.97 262.31 304.45 261.93
  Q 303.20 261.00 301.41 261.20
  Q 300.89 261.26 300.91 261.78
  C 300.92 262.58 300.81 263.33 300.29 263.97
  C 297.77 267.04 295.88 271.87 291.80 273.20
  C 288.43 274.30 285.26 270.30 284.79 267.57
  Q 284.37 265.16 283.17 267.29
  C 282.66 268.19 282.50 269.08 281.67 269.81
  Q 279.82 271.41 278.29 273.12
  A 1.67 1.67 0.0 0 1 277.43 273.63
  Q 276.32 273.87 276.51 274.97
  A 1.02 1.01 75.2 0 1 275.87 276.08
  Q 273.56 276.96 271.92 278.76
  Q 271.46 279.26 270.77 279.26
  L 267.24 279.26
  Q 266.76 279.26 266.35 279.00
  Q 265.12 278.20 263.61 278.46
  Q 263.20 278.53 262.95 278.87
  Q 261.26 281.26 260.75 283.56
  A 0.79 0.77 88.3 0 1 260.22 284.14
  C 258.17 284.80 257.38 286.58 255.38 287.18
  C 252.93 287.91 249.55 287.87 248.26 285.15
  Q 246.18 280.79 246.22 277.77
  Q 246.22 277.13 245.63 277.38
  Q 244.58 277.83 244.18 279.01
  Q 244.00 279.53 243.62 279.92
  Q 242.48 281.10 241.58 282.53
  C 240.13 284.82 237.72 286.79 235.81 288.65
  A 1.60 1.57 22.5 0 1 234.70 289.10
  L 231.83 289.09
  Q 231.30 289.09 230.99 288.66
  C 228.66 285.40 228.99 281.29 229.28 277.44
  Q 229.33 276.73 229.71 276.12
  Q 229.98 275.68 230.00 275.16
  C 230.12 271.72 231.27 268.62 230.75 265.19
  A 0.73 0.72 -88.2 0 0 230.20 264.60
  C 228.59 264.21 227.60 265.66 227.58 267.09
  Q 227.57 267.70 227.02 267.97
  Q 224.42 269.24 223.23 272.29
  Q 222.24 274.80 220.37 276.96
  Q 218.57 279.05 217.88 283.52
  C 217.61 285.25 216.28 286.39 214.81 287.13
  A 2.45 2.44 -15.5 0 1 211.27 285.13
  C 211.16 283.56 211.14 281.87 211.57 280.32
  Q 212.02 278.72 212.47 277.11
  C 213.33 274.05 212.83 270.27 212.82 266.99
  Q 212.81 264.75 210.36 266.68
  A 1.76 1.64 88.1 0 0 209.93 267.17
  Q 208.42 269.78 205.93 271.92
  A 1.34 1.33 -26.1 0 0 205.49 273.19
  Q 205.88 275.19 204.04 275.81
  Q 203.44 276.01 203.18 276.59
  Q 202.84 277.39 202.08 277.77
  A 1.06 1.06 0.0 0 0 201.49 278.72
  L 201.49 279.82
  Q 201.49 280.61 200.87 281.10
  Q 199.93 281.83 199.80 282.90
  Q 199.72 283.46 199.51 283.97
  L 197.89 287.78
  Q 197.67 288.32 197.25 288.73
  Q 196.70 289.28 196.58 290.05
  A 0.75 0.75 0.0 0 1 195.99 290.65
  Q 194.58 290.92 193.78 292.15
  Q 192.79 293.67 191.11 292.99
  Q 188.91 292.11 187.93 289.88
  A 0.71 0.71 0.0 0 1 188.03 289.14
  Q 188.95 288.05 188.01 286.95
  Q 187.63 286.51 187.64 285.93
  L 187.66 283.56
  Q 187.67 281.30 186.06 282.88
  Q 184.20 284.68 182.53 286.58
  Q 180.89 288.44 178.66 289.60
  Q 173.71 292.21 168.97 293.77
  Q 168.31 293.99 167.84 293.48
  L 165.85 291.38
  Q 165.48 290.99 165.68 290.50
  Q 167.46 285.97 172.06 285.09
  C 176.54 284.24 178.67 281.31 182.03 278.66
  C 183.25 277.69 183.73 276.38 184.49 275.09
  Q 184.73 274.69 185.17 274.51
  C 187.63 273.51 186.84 270.39 186.82 268.27
  Q 186.81 266.25 186.36 264.32
  Q 185.63 261.09 186.31 257.71
  Q 186.67 255.92 186.72 254.25
  C 186.78 251.96 187.44 250.08 188.00 247.93
  Q 188.37 246.49 189.22 245.24
  C 190.79 242.93 191.84 239.64 194.62 238.62
  Q 197.16 237.68 200.59 239.78
  Q 202.75 241.10 202.24 243.40
  Q 202.11 243.97 202.34 244.51
  Q 204.12 248.63 203.44 251.98
  Q 203.11 253.60 203.13 255.23
  Q 203.14 256.77 202.57 258.42
  Q 201.57 261.29 200.62 263.98
  Q 200.44 264.49 200.03 264.85
  Q 198.84 265.88 198.12 267.30
  Q 197.46 268.63 196.44 269.92
  Q 194.84 271.94 193.35 274.43
  Q 192.30 276.20 192.43 278.10
  Q 192.57 280.20 192.14 282.31
  Q 191.98 283.08 192.69 283.40
  A 0.49 0.48 -63.1 0 0 193.32 283.19
  Q 197.21 276.23 201.91 269.28
  C 203.17 267.42 203.47 265.44 205.82 264.53
  Q 206.33 264.34 206.28 263.80
  Q 206.14 262.26 207.50 261.62
  C 209.23 260.82 210.68 258.49 212.24 258.15
  Q 215.45 257.46 217.29 259.23
  Q 217.77 259.69 217.77 260.36
  L 217.79 268.61
  A 1.24 1.24 0.0 0 0 220.26 268.77
  Q 220.29 268.53 220.28 268.25
  A 2.08 2.03 57.6 0 1 220.47 267.34
  Q 221.38 265.37 222.94 263.94
  Q 223.34 263.57 223.42 263.03
  Q 223.50 262.50 223.88 262.13
  C 226.44 259.61 229.84 256.92 232.92 257.16
  Q 233.49 257.20 233.90 257.59
  L 236.19 259.70
  Q 236.69 260.16 236.66 260.85
  Q 236.56 263.76 237.27 266.36
  Q 237.44 266.98 237.11 267.53
  C 236.74 268.15 236.48 268.47 236.55 269.25
  Q 236.88 272.97 235.07 276.79
  A 2.58 2.08 -69.0 0 0 236.18 280.22
  Q 237.26 280.50 237.42 279.35
  Q 237.50 278.75 238.00 278.39
  Q 239.48 277.31 239.93 275.56
  Q 240.04 275.13 240.40 274.86
  Q 241.21 274.23 241.79 273.40
  Q 246.51 266.67 248.31 260.57
  C 248.89 258.61 249.93 257.05 250.44 255.08
  C 251.21 252.10 255.61 251.77 255.33 248.91
  Q 255.28 248.40 255.56 247.97
  C 257.09 245.59 261.78 239.13 264.76 239.23
  Q 265.23 239.25 265.63 239.02
  C 267.97 237.69 270.36 239.01 272.41 240.18
  A 1.30 1.30 0.0 0 0 274.27 239.54
  Q 275.37 236.83 275.70 233.97
  Q 275.76 233.40 276.12 232.96
  Q 278.51 230.05 279.44 225.82
  Q 279.97 223.41 281.17 221.35
  Q 283.65 217.08 285.17 211.49
  Q 285.73 209.45 286.94 207.60
  Q 288.32 205.50 289.28 203.01
  Q 291.12 198.22 293.38 193.31
  C 293.87 192.24 295.02 191.32 295.17 190.24
  Q 295.27 189.56 295.60 188.90
  Q 298.38 183.21 301.72 177.76
  Q 304.36 173.43 306.84 169.09
  Q 310.02 163.53 314.79 157.71
  Q 319.16 152.37 323.32 147.04
  Q 324.78 145.18 326.78 143.63
  Q 328.95 141.94 330.70 140.16
  Q 332.89 137.93 335.65 135.91
  Q 338.52 133.82 341.31 132.49
  Q 343.04 131.68 344.53 132.89
  A 1.26 1.25 41.1 0 1 344.66 134.72
  C 342.87 136.63 341.03 138.25 338.56 139.15
  Q 336.59 139.86 336.01 140.51
  Q 330.76 146.40 324.79 152.05
  C 324.05 152.75 323.62 153.99 322.77 154.35
  Q 322.30 154.55 322.06 155.01
  C 321.12 156.85 319.69 157.97 318.50 159.56
  Q 311.29 169.17 307.25 176.46
  Q 306.43 177.96 305.41 179.00
  A 1.43 1.42 63.4 0 0 305.02 180.20
  Q 305.26 181.81 303.78 182.59
  Q 303.03 182.99 302.71 183.77
  Q 301.30 187.23 298.81 191.35
  Q 296.60 195.01 295.16 198.72
  Q 293.64 202.61 292.04 206.59
  Q 291.70 207.42 291.25 208.22
  C 290.50 209.52 289.98 210.78 289.62 212.26
  Q 289.32 213.49 288.73 214.66
  Q 286.07 219.92 284.32 224.60
  Q 282.89 228.43 281.25 232.01
  Q 280.70 233.21 280.40 234.49
  C 279.84 236.82 278.53 238.58 278.22 240.90
  Q 277.88 243.36 275.98 245.14
  Q 275.62 245.47 275.64 245.97
  Q 276.36 259.49 267.83 270.59
  Q 267.37 271.19 267.40 271.88
  A 1.11 1.11 0.0 0 0 268.98 272.83
  C 272.59 271.18 274.27 268.73 276.58 265.82
  Q 277.87 264.19 279.11 262.40
  Q 280.07 261.02 281.91 260.34
  A 1.51 1.48 5.3 0 0 282.67 259.72
  C 283.69 258.07 284.58 256.60 285.06 254.65
  Q 287.02 246.71 289.68 238.92
  Q 290.46 236.62 291.72 234.65
  Q 293.21 232.32 294.30 229.92
  Q 295.71 226.81 299.00 225.57
  Q 299.61 225.34 300.08 225.81
  L 302.14 227.87
  Q 302.66 228.38 302.45 229.08
  Q 301.46 232.37 300.91 235.75
  Q 300.69 237.13 300.10 238.54
  Q 299.61 239.74 299.20 241.09
  Q 297.76 245.83 293.60 252.44
  C 292.38 254.38 291.71 256.38 290.77 258.42
  C 289.98 260.12 290.32 261.99 289.48 263.92
  A 1.16 1.15 14.2 0 0 290.44 265.53
  C 294.18 265.86 294.15 262.86 295.73 260.59
  Q 298.05 257.26 300.48 254.27
  Q 301.73 252.72 302.55 251.07
  Q 303.98 248.20 305.97 246.23
  Q 307.39 244.84 308.26 243.28
  C 309.67 240.74 311.58 238.65 312.88 236.05
  C 314.57 232.66 317.09 230.22 318.44 226.77
  C 318.80 225.85 319.74 225.40 319.80 224.38
  Q 319.83 223.81 320.08 223.31
  Q 321.87 219.81 323.59 216.22
  Q 324.69 213.91 326.26 211.89
  C 328.02 209.60 328.96 206.99 330.79 204.82
  Q 331.71 203.73 332.43 202.03
  Q 333.33 199.91 334.32 197.92
  Q 335.24 196.04 336.44 194.21
  Q 340.77 187.59 344.51 181.30
  C 345.42 179.77 346.61 178.65 347.48 177.15
  Q 349.60 173.49 351.74 169.93
  Q 353.61 166.82 355.71 163.98
  Q 358.03 160.83 359.98 156.99
  A 1.47 1.42 89.0 0 1 360.52 156.41
  Q 362.82 155.03 363.85 152.75
  Q 364.70 150.87 365.88 149.18
  Q 369.61 143.82 374.12 137.88
  Q 377.15 133.89 380.83 130.28
  C 383.28 127.88 384.01 125.20 387.69 124.16
  A 1.02 1.01 -34.9 0 1 388.57 124.31
  L 390.80 125.94
  A 1.41 1.40 35.1 0 1 391.14 127.86
  L 389.59 130.14
  Q 389.32 130.53 388.86 130.65
  Q 387.01 131.13 386.13 132.96
  Q 384.98 135.35 382.89 137.24
  Q 382.06 137.99 381.53 138.93
  C 380.57 140.66 378.72 141.37 378.45 143.50
  Q 378.39 143.95 378.11 144.31
  Q 376.76 146.05 375.43 147.79
  C 373.84 149.86 373.28 152.25 371.62 154.19
  Q 370.55 155.45 369.78 156.89
  Q 367.63 160.91 365.28 165.07
  C 364.43 166.58 362.49 167.53 362.20 169.23
  Q 361.86 171.20 360.48 172.66
  C 358.97 174.28 358.44 176.15 357.07 177.89
  Q 356.01 179.23 355.20 180.61
  Q 351.69 186.61 349.63 189.46
  Q 348.64 190.83 347.57 192.61
  Q 345.73 195.69 345.30 196.29
  C 344.07 198.03 342.99 199.56 341.94 201.57
  Q 339.20 206.86 335.49 210.96
  Q 335.14 211.35 335.14 211.88
  L 335.15 212.53
  Q 335.15 213.03 334.76 213.35
  Q 332.82 214.87 331.70 217.23
  Q 329.83 221.18 326.76 224.46
  A 1.98 1.94 -24.4 0 0 326.23 225.82
  Q 326.24 227.10 325.12 227.81
  A 2.19 2.18 -1.4 0 0 324.39 228.57
  C 322.74 231.48 321.36 234.13 319.27 236.99
  Q 317.47 239.44 315.95 242.08
  Q 315.70 242.51 315.68 243.00
  Q 315.62 244.29 314.43 244.96
  A 0.81 0.81 0.0 0 0 314.05 245.88
  Q 314.26 246.64 314.91 246.71
  Q 315.42 246.76 315.54 246.26
  C 315.85 244.94 317.03 244.73 317.80 243.76
  Q 319.31 241.86 321.29 240.35
  A 2.20 2.17 83.8 0 0 321.97 239.49
  Q 322.30 238.75 323.05 238.47
  Q 323.52 238.30 323.88 237.95
  Q 329.79 232.11 335.70 226.27
  Q 337.04 224.94 338.59 224.16
  C 341.46 222.70 343.84 219.85 345.96 217.52
  C 346.95 216.43 348.27 215.73 349.09 214.59
  Q 349.60 213.89 350.23 213.29
  C 352.75 210.89 356.46 207.75 358.19 204.69
  Q 359.18 202.94 360.94 201.85
  A 1.92 1.90 -11.4 0 0 361.83 200.53
  C 362.16 198.52 363.80 197.57 364.63 195.77
  Q 365.74 193.35 367.82 191.54
  C 368.47 190.97 368.49 190.23 369.09 189.60
  Q 372.99 185.49 376.77 180.32
  Q 378.02 178.61 382.04 174.60
  C 382.72 173.93 382.59 173.13 383.29 172.35
  C 385.45 169.95 387.68 167.71 389.61 165.35
  Q 395.58 158.07 401.49 151.01
  Q 402.09 150.28 402.79 149.87
  C 404.52 148.86 404.22 147.27 405.61 146.23
  C 407.38 144.91 408.04 143.20 409.63 141.76
  C 411.57 139.99 412.87 138.38 415.19 136.87
  Q 415.69 136.54 415.84 135.96
  Q 416.09 134.98 417.04 134.69
  A 1.53 1.52 11.6 0 0 417.76 134.22
  C 418.64 133.17 419.23 131.83 420.47 131.14
  Q 421.65 130.48 422.58 129.46
  Q 423.64 128.31 425.34 127.13
  C 427.81 125.42 429.62 123.64 433.00 124.19
  C 434.45 124.43 434.62 125.39 435.10 126.80
  Q 435.60 128.29 434.88 129.12
  Q 428.56 136.43 423.58 141.39
  Q 421.81 143.15 420.47 144.88
  Q 420.26 145.15 419.95 145.28
  C 418.70 145.80 418.59 147.00 417.75 147.91
  Q 413.35 152.70 409.37 157.43
  Q 405.92 161.54 402.50 165.00
  C 402.04 165.47 401.84 165.99 401.52 166.55
  Q 401.33 166.86 401.00 167.02
  C 398.62 168.14 397.83 170.49 395.91 172.23
  Q 392.88 174.97 390.90 178.11
  A 1.49 1.47 2.1 0 1 390.30 178.66
  Q 387.68 179.97 386.41 182.61
  C 385.45 184.60 383.69 185.30 382.29 186.90
  Q 377.90 191.96 373.32 196.62
  C 372.53 197.42 371.37 197.61 370.75 198.40
  Q 366.45 203.88 362.07 209.64
  C 360.87 211.22 360.21 212.81 358.82 214.37
  Q 354.61 219.11 351.12 226.38
  C 350.10 228.50 348.23 230.03 347.46 232.09
  Q 347.01 233.26 346.23 234.13
  Q 342.51 238.24 339.78 243.38
  Q 338.68 245.45 336.89 247.22
  Q 335.57 248.52 334.98 250.37
  Q 334.44 252.06 333.11 253.28
  Q 330.24 255.93 328.28 259.81
  Q 327.50 261.36 326.37 262.53
  Q 325.47 263.46 325.29 264.70
  A 1.56 1.53 -14.4 0 1 324.66 265.74
  Q 322.66 267.18 322.03 269.25
  Q 321.71 270.31 320.94 271.17
  Q 318.69 273.70 317.21 276.78
  A 0.62 0.62 0.0 0 0 317.65 277.65
  L 318.26 277.77
  A 1.18 1.18 0.0 0 0 319.61 276.93
  Q 319.95 275.76 320.90 275.12
  Q 326.29 271.49 332.32 268.95
  Q 334.76 267.92 337.21 266.55
  Q 337.72 266.26 338.31 266.30
  Q 339.08 266.34 339.70 265.94
  C 340.69 265.28 342.06 265.29 343.20 265.44
  Q 343.78 265.51 344.18 265.10
  L 344.41 264.85
  A 1.04 1.02 -61.0 0 1 345.38 264.56
  Q 347.42 265.04 348.82 263.96
  Q 349.21 263.66 349.70 263.74
  Q 350.81 263.91 351.73 263.29
  A 1.81 1.79 28.9 0 1 352.79 262.99
  C 354.04 263.04 355.49 262.67 356.58 263.46
  C 358.44 264.83 358.59 267.50 357.28 269.26
  Q 356.62 270.14 356.47 271.22
  A 1.57 1.57 0.0 0 1 355.68 272.37
  C 354.35 273.09 352.94 274.50 352.40 276.00
  Q 352.16 276.64 351.51 276.85
  Q 351.02 277.01 350.65 277.37
  Q 343.47 284.47 335.54 291.71
  Q 333.19 293.87 330.83 295.59
  Q 328.34 297.42 326.07 299.45
  Q 324.28 301.06 322.29 302.48
  C 320.53 303.75 318.88 305.13 317.05 306.29
  Q 312.03 309.44 306.99 313.71
  Q 306.53 314.09 306.33 314.64
  Q 305.98 315.57 304.97 315.85
  C 303.10 316.37 301.53 317.75 299.83 318.63
  Q 298.21 319.46 296.80 320.72
  Q 292.41 324.63 287.23 328.13
  Q 286.98 328.30 286.68 328.29
  Q 286.54 328.28 286.40 328.31
  Q 286.30 328.33 286.22 328.40
  Q 278.60 334.18 270.81 339.51
  Q 268.62 341.01 266.62 342.85
  Q 264.92 344.42 262.85 346.07
  Q 257.21 350.58 247.23 361.38
  C 246.08 362.63 245.94 364.01 244.31 364.85
  A 2.41 2.39 79.5 0 0 243.04 366.72
  L 242.96 367.50
  Q 242.86 368.44 243.69 368.00
  Z
  M 398.48 163.37
  Q 403.61 158.62 407.08 154.00
  Q 409.14 151.25 411.56 149.95
  A 0.82 0.81 73.8 0 0 411.98 149.17
  C 411.91 148.39 412.31 147.68 412.94 147.25
  Q 414.21 146.39 415.01 145.03
  Q 415.99 143.37 417.78 142.28
  Q 419.42 141.28 419.62 139.67
  A 0.58 0.58 0.0 0 0 418.73 139.11
  C 417.64 139.82 417.09 140.76 415.88 141.37
  Q 414.10 142.24 413.33 144.19
  Q 413.14 144.65 412.76 144.98
  Q 410.68 146.72 409.26 148.82
  Q 408.99 149.23 408.53 149.43
  Q 407.15 150.04 406.58 151.32
  Q 405.66 153.39 403.89 154.83
  Q 401.50 156.78 399.68 159.41
  C 398.54 161.07 396.94 162.00 395.99 163.91
  Q 395.24 165.44 396.94 165.27
  Q 397.93 165.17 398.07 164.17
  A 1.41 1.40 72.3 0 1 398.48 163.37
  Z
  M 352.16 178.98
  Q 352.39 178.96 352.57 178.82
  Q 352.85 178.59 353.01 178.25
  Q 354.19 175.54 356.11 173.06
  A 1.77 1.73 -26.4 0 0 356.47 172.03
  Q 356.49 171.07 357.37 170.72
  Q 357.94 170.48 358.04 169.87
  Q 358.28 168.39 359.53 167.13
  Q 360.87 165.77 358.96 165.75
  L 358.06 165.74
  A 0.85 0.84 -5.7 0 0 357.22 166.76
  Q 357.57 168.39 356.30 169.43
  Q 355.71 169.91 355.41 170.61
  Q 354.76 172.12 353.65 173.48
  Q 353.33 173.87 352.87 174.10
  Q 352.31 174.38 352.27 175.02
  Q 352.24 175.48 352.03 175.88
  Q 348.65 182.25 344.34 187.60
  Q 342.98 189.29 342.28 191.44
  Q 342.08 192.05 341.59 192.47
  C 339.93 193.90 339.54 195.79 338.30 197.46
  Q 336.78 199.50 335.19 201.45
  Q 334.67 202.09 335.41 202.46
  Q 335.92 202.71 336.50 202.66
  Q 337.23 202.61 337.63 202.00
  L 351.23 181.58
  Q 351.63 180.99 351.64 180.28
  L 351.64 179.52
  Q 351.65 179.01 352.16 178.98
  Z
  M 258.65 251.37
  Q 257.84 255.03 256.33 258.04
  Q 255.31 260.07 254.93 262.22
  Q 254.51 264.57 253.63 266.80
  Q 252.74 269.05 252.77 271.28
  Q 252.82 274.19 252.95 276.75
  A 1.82 1.79 -67.3 0 0 253.39 277.85
  Q 254.40 279.00 255.59 278.52
  Q 256.15 278.29 256.15 277.69
  L 256.15 276.26
  Q 256.15 275.53 256.71 275.07
  Q 259.26 272.94 260.37 269.92
  Q 260.64 269.19 261.28 268.75
  A 1.33 1.28 78.7 0 0 261.81 267.92
  Q 262.23 265.66 263.39 263.56
  Q 267.16 256.76 269.62 249.90
  C 270.10 248.57 270.01 247.17 270.01 245.78
  A 1.04 1.03 17.5 0 0 269.56 244.93
  C 268.44 244.18 266.17 243.68 264.94 244.60
  C 263.79 245.46 262.47 245.61 261.68 246.88
  C 260.64 248.57 259.11 249.27 258.65 251.37
  Z
  M 196.94 253.11
  C 198.76 251.80 198.19 248.01 197.84 246.17
  Q 197.66 245.21 196.83 244.97
  A 1.13 1.11 22.6 0 0 195.55 245.49
  L 192.89 250.13
  Q 192.69 250.49 192.63 250.89
  L 190.76 264.91
  A 0.63 0.63 0.0 0 0 191.67 265.55
  C 194.39 264.14 196.32 258.87 197.27 255.93
  C 197.50 255.22 197.44 254.50 196.88 253.96
  Q 196.40 253.50 196.94 253.11
  Z"
/>
<path fill="#080808" d="
  M 265.35 458.26
  A 1.24 1.24 0.0 0 1 266.76 457.21
  L 267.76 457.35
  A 4.19 2.84 8.1 0 1 271.50 460.75
  L 271.49 460.83
  A 4.19 2.84 8.1 0 1 266.94 463.05
  L 265.94 462.91
  A 1.24 1.24 0.0 0 1 264.89 461.51
  L 265.35 458.26
  Z"
/>
</svg>
