<?xml version="1.0" encoding="UTF-8" standalone="no"?>
<svg
   xmlns:dc="http://purl.org/dc/elements/1.1/"
   xmlns:cc="http://creativecommons.org/ns#"
   xmlns:rdf="http://www.w3.org/1999/02/22-rdf-syntax-ns#"
   xmlns:svg="http://www.w3.org/2000/svg"
   xmlns="http://www.w3.org/2000/svg"
   xmlns:sodipodi="http://sodipodi.sourceforge.net/DTD/sodipodi-0.dtd"
   xmlns:inkscape="http://www.inkscape.org/namespaces/inkscape"
   viewBox="0 0 563 317"
   width="563"
   height="317"
   version="1.1"
   id="svg130"
   sodipodi:docname="signature_luiz.svg"
   inkscape:version="0.92.4 (5da689c313, 2019-01-14)">
  <metadata
     id="metadata136">
    <rdf:RDF>
      <cc:Work
         rdf:about="">
        <dc:format>image/svg+xml</dc:format>
        <dc:type
           rdf:resource="http://purl.org/dc/dcmitype/StillImage" />
      </cc:Work>
    </rdf:RDF>
  </metadata>
  <defs
     id="defs134" />
  <sodipodi:namedview
     pagecolor="#ffffff"
     bordercolor="#666666"
     borderopacity="1"
     objecttolerance="10"
     gridtolerance="10"
     guidetolerance="10"
     inkscape:pageopacity="0"
     inkscape:pageshadow="2"
     inkscape:window-width="1358"
     inkscape:window-height="745"
     id="namedview132"
     showgrid="false"
     inkscape:zoom="0.65719361"
     inkscape:cx="6.0864865"
     inkscape:cy="158.5"
     inkscape:window-x="0"
     inkscape:window-y="0"
     inkscape:window-maximized="0"
     inkscape:current-layer="svg130" />
  <g
     fill="None"
     fill-opacity="0.0"
     stroke="#010101"
     stroke-opacity="1.00"
     stroke-width="0.3"
     id="g8">
    <path
       d=" M 186.00 53.00  C 178.10 52.32 168.15 54.81 162.77 61.77 C 157.39 68.73 154.51 75.71 151.77 83.77 C 149.03 91.83 145.24 99.80 137.23 103.23 C 129.21 106.66 122.34 110.03 115.08 114.08 C 107.81 118.12 101.44 122.13 94.75 126.75 C 88.05 131.36 81.82 136.41 75.70 141.70 C 69.57 146.99 64.15 151.32 58.75 157.75 C 53.35 164.19 49.13 169.09 44.93 176.93 C 40.73 184.76 40.57 196.81 42.07 205.93 C 43.57 215.04 46.75 221.42 55.98 225.02 C 65.20 228.63 73.43 228.43 82.99 232.01 C 92.55 235.59 99.85 228.32 110.78 233.22 C 121.71 238.12 121.75 222.26 127.77 218.77 C 133.79 215.28 139.07 201.47 145.25 205.75 C 151.42 210.03 152.89 222.15 161.93 222.07 C 170.97 222.00 180.62 224.82 187.25 216.25 C 193.87 207.67 198.76 209.58 205.77 217.23 C 212.78 224.88 223.29 219.97 229.92 215.92 C 236.54 211.86 240.19 203.83 246.00 199.00 C 258.74 228.87 292.99 200.93 296.00 180.00 C 281.71 187.66 286.08 202.44 269.22 208.22 C 252.37 214.01 248.00 189.13 252.00 177.00 C 249.85 184.00 246.37 191.49 241.25 198.25 C 236.14 205.02 233.32 212.09 224.69 215.69 C 216.06 219.30 206.92 215.49 202.78 206.22 C 198.63 196.96 204.81 189.60 206.02 180.03 C 207.23 170.45 197.79 185.58 196.98 192.98 C 196.16 200.37 190.17 208.95 183.75 213.75 C 177.32 218.55 165.06 219.12 158.08 214.92 C 151.10 210.72 144.22 201.03 148.08 193.08 C 151.93 185.12 156.55 179.25 160.70 171.70 C 164.84 164.14 168.56 157.35 171.23 149.23 C 173.90 141.11 179.01 133.38 181.07 125.07 C 183.14 116.77 187.70 107.99 190.01 100.01 C 192.32 92.03 191.68 80.96 201.32 78.32 C 210.96 75.69 219.00 74.29 227.93 70.93 C 236.85 67.56 245.02 65.48 254.00 63.00 C 262.98 60.51 273.34 61.58 281.00 57.00 C 250.75 55.22 223.18 71.61 194.00 77.00 C 194.35 69.95 193.60 61.89 187.00 58.00 C 192.35 66.91 193.08 81.69 181.02 83.02 C 168.97 84.36 163.69 94.39 152.00 91.00 C 153.43 88.57 155.85 87.27 159.00 88.00 C 156.03 72.74 175.95 67.90 179.00 55.00 C 180.94 56.69 186.51 57.48 186.00 53.00 M 139.00 174.00  C 138.79 171.81 138.79 169.13 139.00 167.00 C 139.00 155.56 137.57 140.21 141.33 129.33 C 145.08 118.45 144.79 103.92 155.25 97.25 C 165.71 90.57 177.54 88.43 189.00 85.00 C 179.70 122.44 165.06 161.43 142.00 192.00 C 140.31 186.21 138.49 180.39 139.00 174.00 M 48.00 194.00  C 47.64 191.46 47.55 189.52 48.00 187.00 C 48.62 177.27 56.63 161.77 66.00 161.00 C 79.61 140.87 102.59 123.31 126.00 117.00 C 127.47 109.38 137.72 107.32 144.00 105.00 C 141.31 113.53 137.66 121.15 136.07 130.07 C 134.48 138.99 131.09 150.38 133.00 160.00 C 134.91 169.62 132.20 180.62 136.33 189.67 C 140.45 198.72 136.97 204.27 129.75 210.75 C 122.53 217.23 118.75 219.98 109.78 223.78 C 100.80 227.57 91.13 226.80 80.99 226.01 C 70.86 225.21 64.11 224.28 56.08 217.92 C 48.06 211.56 47.39 205.58 48.00 194.00 Z"
       id="path6" />
  </g>
  <g
     fill="None"
     fill-opacity="0.0"
     stroke="#020202"
     stroke-opacity="1.00"
     stroke-width="0.3"
     id="g12">
    <path
       d=" M 283.00 57.00  C 285.66 56.92 288.34 57.10 291.00 57.00 C 307.28 53.67 322.45 60.57 338.00 63.00 C 344.96 74.34 364.40 87.14 354.25 101.25 C 344.11 115.37 336.42 122.23 327.00 136.00 C 339.80 129.91 348.59 130.23 361.32 137.68 C 374.05 145.13 359.93 154.04 350.25 159.25 C 340.57 164.45 335.03 175.16 327.75 182.75 C 320.48 190.35 313.43 199.14 308.00 208.00 C 301.34 206.02 297.98 199.66 295.00 194.00 C 292.23 202.93 306.75 211.52 297.75 219.75 C 288.76 227.99 288.55 233.47 282.93 242.93 C 277.30 252.39 278.80 264.82 281.08 274.92 C 283.35 285.03 293.35 292.20 302.98 288.98 C 312.60 285.75 319.32 281.29 326.25 274.25 C 333.18 267.20 338.18 261.44 343.70 253.70 C 349.21 245.96 353.62 238.63 358.23 230.23 C 362.84 221.83 366.67 212.97 369.68 203.68 C 372.68 194.39 377.10 183.16 377.00 173.00 C 376.90 162.84 372.06 149.23 384.32 146.32 C 396.58 143.41 401.65 138.53 414.00 138.00 C 412.67 154.18 413.51 173.68 405.92 187.92 C 398.34 202.16 400.40 215.23 392.00 229.00 C 394.54 229.02 396.76 227.99 399.00 227.00 C 396.91 220.97 404.84 212.99 403.34 205.68 C 401.84 198.37 409.26 193.53 411.07 186.07 C 412.88 178.61 413.39 168.15 416.02 161.02 C 418.66 153.90 414.74 142.62 420.77 137.77 C 426.81 132.92 438.12 136.63 445.33 132.33 C 452.54 128.03 465.84 132.85 474.00 131.00 C 473.16 126.44 465.43 127.11 460.00 127.00 C 457.99 127.15 454.68 127.95 452.00 128.00 C 440.34 128.12 429.89 132.90 418.00 132.00 C 418.43 120.09 420.76 107.88 421.00 96.00 C 421.10 90.85 421.08 85.45 422.00 81.00 C 421.52 78.78 422.72 76.99 423.00 75.00 C 442.77 80.64 464.37 71.07 483.93 69.93 C 503.48 68.79 519.46 60.68 537.00 54.00 C 523.24 52.98 511.26 60.27 497.01 63.01 C 482.75 65.75 467.58 66.27 453.07 70.07 C 438.56 73.87 425.23 71.90 412.00 70.00 C 413.77 72.41 415.98 74.24 417.00 77.00 C 418.09 79.96 418.00 83.42 418.00 87.00 C 420.06 98.84 413.18 108.22 415.00 120.00 C 416.82 131.78 408.43 136.58 398.01 138.01 C 387.59 139.43 380.86 143.76 371.00 146.00 C 367.05 132.54 351.48 127.69 339.00 127.00 C 346.98 117.47 350.78 111.93 358.75 101.75 C 366.71 91.56 359.38 81.34 351.25 72.75 C 343.12 64.16 336.39 57.39 324.02 54.98 C 311.66 52.56 296.03 52.78 283.00 54.00 C 284.98 55.93 281.47 55.89 283.00 57.00 M 337.00 178.00  C 339.78 174.75 342.80 171.74 346.00 169.00 C 352.32 163.60 370.84 147.18 372.98 162.02 C 375.11 176.86 368.19 190.97 366.00 204.00 C 363.82 217.04 356.46 226.72 350.25 237.25 C 344.03 247.77 337.59 256.39 329.23 265.23 C 320.87 274.07 313.29 282.78 300.78 285.78 C 288.26 288.78 282.96 262.04 286.00 252.00 C 289.04 241.96 294.93 226.28 306.00 223.00 C 303.64 214.99 317.68 210.38 319.77 200.77 C 321.86 191.16 333.08 186.56 337.00 178.00 Z"
       id="path10" />
  </g>
  <g
     fill="None"
     fill-opacity="0.0"
     stroke="#909090"
     stroke-opacity="1.00"
     stroke-width="0.3"
     id="g16">
    <path
       d=" M 291.00 57.00  C 288.34 57.10 285.66 56.92 283.00 57.00 C 285.71 58.97 288.39 57.37 291.00 57.00 Z"
       id="path14" />
  </g>
  <g
     fill="None"
     fill-opacity="0.0"
     stroke="#151515"
     stroke-opacity="1.00"
     stroke-width="0.3"
     id="g20">
    <path
       d=" M 425.00 69.00  C 424.36 62.24 418.32 66.93 425.00 69.00 Z"
       id="path18" />
  </g>
  <g
     fill="None"
     fill-opacity="0.0"
     stroke="#888888"
     stroke-opacity="1.00"
     stroke-width="0.3"
     id="g24">
    <path
       d=" M 418.00 87.00  C 418.00 83.42 418.09 79.96 417.00 77.00 C 417.61 79.75 417.78 84.70 418.00 87.00 Z"
       id="path22" />
  </g>
  <g
     fill="None"
     fill-opacity="0.0"
     stroke="#757575"
     stroke-opacity="1.00"
     stroke-width="0.3"
     id="g28">
    <path
       d=" M 421.00 96.00  C 421.52 91.72 421.55 85.93 422.00 81.00 C 421.08 85.45 421.10 90.85 421.00 96.00 Z"
       id="path26" />
  </g>
  <g
     fill="None"
     fill-opacity="0.0"
     stroke="#FBFBFB"
     stroke-opacity="1.00"
     stroke-width="0.3"
     id="g32">
    <path
       d=" M 139.00 167.00  C 139.00 169.33 139.00 171.67 139.00 174.00 C 138.49 180.39 140.31 186.21 142.00 192.00 C 165.06 161.43 179.70 122.44 189.00 85.00 C 177.54 88.43 165.71 90.57 155.25 97.25 C 144.79 103.92 145.08 118.45 141.33 129.33 C 137.57 140.21 139.00 155.56 139.00 167.00 Z"
       id="path30" />
  </g>
  <g
     fill="None"
     fill-opacity="0.0"
     stroke="#FDFDFD"
     stroke-opacity="1.00"
     stroke-width="0.3"
     id="g36">
    <path
       d=" M 48.00 187.00  C 47.85 189.29 47.92 191.70 48.00 194.00 C 47.39 205.58 48.06 211.56 56.08 217.92 C 64.11 224.28 70.86 225.21 80.99 226.01 C 91.13 226.80 100.80 227.57 109.78 223.78 C 118.75 219.98 122.53 217.23 129.75 210.75 C 136.97 204.27 140.45 198.72 136.33 189.67 C 132.20 180.62 134.91 169.62 133.00 160.00 C 131.09 150.38 134.48 138.99 136.07 130.07 C 137.66 121.15 141.31 113.53 144.00 105.00 C 137.72 107.32 127.47 109.38 126.00 117.00 C 102.59 123.31 79.61 140.87 66.00 161.00 C 56.63 161.77 48.62 177.27 48.00 187.00 Z"
       id="path34" />
  </g>
  <g
     fill="None"
     fill-opacity="0.0"
     stroke="#747474"
     stroke-opacity="1.00"
     stroke-width="0.3"
     id="g40">
    <path
       d=" M 452.00 128.00  C 454.68 127.95 457.99 127.15 460.00 127.00 C 457.16 126.94 454.17 127.74 452.00 128.00 Z"
       id="path38" />
  </g>
  <g
     fill="None"
     fill-opacity="0.0"
     stroke="#000000"
     stroke-opacity="1.00"
     stroke-width="0.3"
     id="g44">
    <path
       d=" M 293.00 132.00  C 289.71 137.83 294.55 145.04 299.25 140.25 C 303.95 135.46 307.00 135.24 302.25 129.75 C 297.49 124.27 296.04 135.85 293.00 132.00 Z"
       id="path42" />
  </g>
  <g
     fill="None"
     fill-opacity="0.0"
     stroke="#FDFDFD"
     stroke-opacity="1.00"
     stroke-width="0.3"
     id="g48">
    <path
       d=" M 346.00 169.00  C 343.08 171.92 339.87 175.13 337.00 178.00 C 333.08 186.56 321.86 191.16 319.77 200.77 C 317.68 210.38 303.64 214.99 306.00 223.00 C 294.93 226.28 289.04 241.96 286.00 252.00 C 282.96 262.04 288.26 288.78 300.78 285.78 C 313.29 282.78 320.87 274.07 329.23 265.23 C 337.59 256.39 344.03 247.77 350.25 237.25 C 356.46 226.72 363.82 217.04 366.00 204.00 C 368.19 190.97 375.11 176.86 372.98 162.02 C 370.84 147.18 352.32 163.60 346.00 169.00 Z"
       id="path46" />
  </g>
  <g
     fill="None"
     fill-opacity="0.0"
     stroke="#747474"
     stroke-opacity="1.00"
     stroke-width="0.3"
     id="g52">
    <path
       d=" M 139.00 174.00  C 139.00 171.67 139.00 169.33 139.00 167.00 C 138.79 169.13 138.79 171.81 139.00 174.00 Z"
       id="path50" />
  </g>
  <g
     fill="None"
     fill-opacity="0.0"
     stroke="#797979"
     stroke-opacity="1.00"
     stroke-width="0.3"
     id="g56">
    <path
       d=" M 337.00 178.00  C 339.87 175.13 343.08 171.92 346.00 169.00 C 342.80 171.74 339.78 174.75 337.00 178.00 Z"
       id="path54" />
  </g>
  <g
     fill="None"
     fill-opacity="0.0"
     stroke="#808080"
     stroke-opacity="1.00"
     stroke-width="0.3"
     id="g60">
    <path
       d=" M 48.00 194.00  C 47.92 191.70 47.85 189.29 48.00 187.00 C 47.55 189.52 47.64 191.46 48.00 194.00 Z"
       id="path58" />
  </g>
  <g
     fill="None"
     fill-opacity="0.0"
     stroke="#000000"
     stroke-opacity="1.00"
     stroke-width="0.3"
     id="g64">
    <path
       d=" M 464.00 195.00  C 454.20 195.96 449.31 193.50 440.75 199.75 C 432.19 206.00 442.60 212.90 449.78 208.78 C 456.95 204.66 463.86 204.22 464.00 195.00 Z"
       id="path62" />
  </g>
  <g
     fill="#010101"
     fill-opacity="1.00"
     stroke="None"
     id="g72">
    <path
       d=" M 186.00 53.00  C 178.10 52.32 168.15 54.81 162.77 61.77 C 157.39 68.73 154.51 75.71 151.77 83.77 C 149.03 91.83 145.24 99.80 137.23 103.23 C 129.21 106.66 122.34 110.03 115.08 114.08 C 107.81 118.12 101.44 122.13 94.75 126.75 C 88.05 131.36 81.82 136.41 75.70 141.70 C 69.57 146.99 64.15 151.32 58.75 157.75 C 53.35 164.19 49.13 169.09 44.93 176.93 C 40.73 184.76 40.57 196.81 42.07 205.93 C 43.57 215.04 46.75 221.42 55.98 225.02 C 65.20 228.63 73.43 228.43 82.99 232.01 C 92.55 235.59 99.85 228.32 110.78 233.22 C 121.71 238.12 121.75 222.26 127.77 218.77 C 133.79 215.28 139.07 201.47 145.25 205.75 C 151.42 210.03 152.89 222.15 161.93 222.07 C 170.97 222.00 180.62 224.82 187.25 216.25 C 193.87 207.67 198.76 209.58 205.77 217.23 C 212.78 224.88 223.29 219.97 229.92 215.92 C 236.54 211.86 240.19 203.83 246.00 199.00 C 258.74 228.87 292.99 200.93 296.00 180.00 C 281.71 187.66 286.08 202.44 269.22 208.22 C 252.37 214.01 248.00 189.13 252.00 177.00 C 249.85 184.00 246.37 191.49 241.25 198.25 C 236.14 205.02 233.32 212.09 224.69 215.69 C 216.06 219.30 206.92 215.49 202.78 206.22 C 198.63 196.96 204.81 189.60 206.02 180.03 C 207.23 170.45 197.79 185.58 196.98 192.98 C 196.16 200.37 190.17 208.95 183.75 213.75 C 177.32 218.55 165.06 219.12 158.08 214.92 C 151.10 210.72 144.22 201.03 148.08 193.08 C 151.93 185.12 156.55 179.25 160.70 171.70 C 164.84 164.14 168.56 157.35 171.23 149.23 C 173.90 141.11 179.01 133.38 181.07 125.07 C 183.14 116.77 187.70 107.99 190.01 100.01 C 192.32 92.03 191.68 80.96 201.32 78.32 C 210.96 75.69 219.00 74.29 227.93 70.93 C 236.85 67.56 245.02 65.48 254.00 63.00 C 262.98 60.51 273.34 61.58 281.00 57.00 C 250.75 55.22 223.18 71.61 194.00 77.00 C 194.35 69.95 193.60 61.89 187.00 58.00 C 192.35 66.91 193.08 81.69 181.02 83.02 C 168.97 84.36 163.69 94.39 152.00 91.00 C 153.43 88.57 155.85 87.27 159.00 88.00 C 156.03 72.74 175.95 67.90 179.00 55.00 C 180.94 56.69 186.51 57.48 186.00 53.00 M 139.00 174.00  C 138.79 171.81 138.79 169.13 139.00 167.00 C 139.00 155.56 137.57 140.21 141.33 129.33 C 145.08 118.45 144.79 103.92 155.25 97.25 C 165.71 90.57 177.54 88.43 189.00 85.00 C 179.70 122.44 165.06 161.43 142.00 192.00 C 140.31 186.21 138.49 180.39 139.00 174.00 M 48.00 194.00  C 47.64 191.46 47.55 189.52 48.00 187.00 C 48.62 177.27 56.63 161.77 66.00 161.00 C 79.61 140.87 102.59 123.31 126.00 117.00 C 127.47 109.38 137.72 107.32 144.00 105.00 C 141.31 113.53 137.66 121.15 136.07 130.07 C 134.48 138.99 131.09 150.38 133.00 160.00 C 134.91 169.62 132.20 180.62 136.33 189.67 C 140.45 198.72 136.97 204.27 129.75 210.75 C 122.53 217.23 118.75 219.98 109.78 223.78 C 100.80 227.57 91.13 226.80 80.99 226.01 C 70.86 225.21 64.11 224.28 56.08 217.92 C 48.06 211.56 47.39 205.58 48.00 194.00 Z"
       id="path70" />
  </g>
  <g
     fill="#020202"
     fill-opacity="1.00"
     stroke="None"
     id="g76">
    <path
       d=" M 283.00 57.00  C 285.66 56.92 288.34 57.10 291.00 57.00 C 307.28 53.67 322.45 60.57 338.00 63.00 C 344.96 74.34 364.40 87.14 354.25 101.25 C 344.11 115.37 336.42 122.23 327.00 136.00 C 339.80 129.91 348.59 130.23 361.32 137.68 C 374.05 145.13 359.93 154.04 350.25 159.25 C 340.57 164.45 335.03 175.16 327.75 182.75 C 320.48 190.35 313.43 199.14 308.00 208.00 C 301.34 206.02 297.98 199.66 295.00 194.00 C 292.23 202.93 306.75 211.52 297.75 219.75 C 288.76 227.99 288.55 233.47 282.93 242.93 C 277.30 252.39 278.80 264.82 281.08 274.92 C 283.35 285.03 293.35 292.20 302.98 288.98 C 312.60 285.75 319.32 281.29 326.25 274.25 C 333.18 267.20 338.18 261.44 343.70 253.70 C 349.21 245.96 353.62 238.63 358.23 230.23 C 362.84 221.83 366.67 212.97 369.68 203.68 C 372.68 194.39 377.10 183.16 377.00 173.00 C 376.90 162.84 372.06 149.23 384.32 146.32 C 396.58 143.41 401.65 138.53 414.00 138.00 C 412.67 154.18 413.51 173.68 405.92 187.92 C 398.34 202.16 400.40 215.23 392.00 229.00 C 394.54 229.02 396.76 227.99 399.00 227.00 C 396.91 220.97 404.84 212.99 403.34 205.68 C 401.84 198.37 409.26 193.53 411.07 186.07 C 412.88 178.61 413.39 168.15 416.02 161.02 C 418.66 153.90 414.74 142.62 420.77 137.77 C 426.81 132.92 438.12 136.63 445.33 132.33 C 452.54 128.03 465.84 132.85 474.00 131.00 C 473.16 126.44 465.43 127.11 460.00 127.00 C 457.99 127.15 454.68 127.95 452.00 128.00 C 440.34 128.12 429.89 132.90 418.00 132.00 C 418.43 120.09 420.76 107.88 421.00 96.00 C 421.10 90.85 421.08 85.45 422.00 81.00 C 421.52 78.78 422.72 76.99 423.00 75.00 C 442.77 80.64 464.37 71.07 483.93 69.93 C 503.48 68.79 519.46 60.68 537.00 54.00 C 523.24 52.98 511.26 60.27 497.01 63.01 C 482.75 65.75 467.58 66.27 453.07 70.07 C 438.56 73.87 425.23 71.90 412.00 70.00 C 413.77 72.41 415.98 74.24 417.00 77.00 C 418.09 79.96 418.00 83.42 418.00 87.00 C 420.06 98.84 413.18 108.22 415.00 120.00 C 416.82 131.78 408.43 136.58 398.01 138.01 C 387.59 139.43 380.86 143.76 371.00 146.00 C 367.05 132.54 351.48 127.69 339.00 127.00 C 346.98 117.47 350.78 111.93 358.75 101.75 C 366.71 91.56 359.38 81.34 351.25 72.75 C 343.12 64.16 336.39 57.39 324.02 54.98 C 311.66 52.56 296.03 52.78 283.00 54.00 C 284.98 55.93 281.47 55.89 283.00 57.00 M 337.00 178.00  C 339.78 174.75 342.80 171.74 346.00 169.00 C 352.32 163.60 370.84 147.18 372.98 162.02 C 375.11 176.86 368.19 190.97 366.00 204.00 C 363.82 217.04 356.46 226.72 350.25 237.25 C 344.03 247.77 337.59 256.39 329.23 265.23 C 320.87 274.07 313.29 282.78 300.78 285.78 C 288.26 288.78 282.96 262.04 286.00 252.00 C 289.04 241.96 294.93 226.28 306.00 223.00 C 303.64 214.99 317.68 210.38 319.77 200.77 C 321.86 191.16 333.08 186.56 337.00 178.00 Z"
       id="path74" />
  </g>
  <g
     fill="#909090"
     fill-opacity="1.00"
     stroke="None"
     id="g80">
    <path
       d=" M 291.00 57.00  C 288.34 57.10 285.66 56.92 283.00 57.00 C 285.71 58.97 288.39 57.37 291.00 57.00 Z"
       id="path78" />
  </g>
  <g
     fill="#151515"
     fill-opacity="1.00"
     stroke="None"
     id="g84">
    <path
       d=" M 425.00 69.00  C 424.36 62.24 418.32 66.93 425.00 69.00 Z"
       id="path82" />
  </g>
  <g
     fill="#888888"
     fill-opacity="1.00"
     stroke="None"
     id="g88">
    <path
       d=" M 418.00 87.00  C 418.00 83.42 418.09 79.96 417.00 77.00 C 417.61 79.75 417.78 84.70 418.00 87.00 Z"
       id="path86" />
  </g>
  <g
     fill="#757575"
     fill-opacity="1.00"
     stroke="None"
     id="g92">
    <path
       d=" M 421.00 96.00  C 421.52 91.72 421.55 85.93 422.00 81.00 C 421.08 85.45 421.10 90.85 421.00 96.00 Z"
       id="path90" />
  </g>
  <g
     fill="#747474"
     fill-opacity="1.00"
     stroke="None"
     id="g104">
    <path
       d=" M 452.00 128.00  C 454.68 127.95 457.99 127.15 460.00 127.00 C 457.16 126.94 454.17 127.74 452.00 128.00 Z"
       id="path102" />
  </g>
  <g
     fill="#000000"
     fill-opacity="1.00"
     stroke="None"
     id="g108">
    <path
       d=" M 293.00 132.00  C 289.71 137.83 294.55 145.04 299.25 140.25 C 303.95 135.46 307.00 135.24 302.25 129.75 C 297.49 124.27 296.04 135.85 293.00 132.00 Z"
       id="path106" />
  </g>
  <g
     fill="#747474"
     fill-opacity="1.00"
     stroke="None"
     id="g116">
    <path
       d=" M 139.00 174.00  C 139.00 171.67 139.00 169.33 139.00 167.00 C 138.79 169.13 138.79 171.81 139.00 174.00 Z"
       id="path114" />
  </g>
  <g
     fill="#797979"
     fill-opacity="1.00"
     stroke="None"
     id="g120">
    <path
       d=" M 337.00 178.00  C 339.87 175.13 343.08 171.92 346.00 169.00 C 342.80 171.74 339.78 174.75 337.00 178.00 Z"
       id="path118" />
  </g>
  <g
     fill="#808080"
     fill-opacity="1.00"
     stroke="None"
     id="g124">
    <path
       d=" M 48.00 194.00  C 47.92 191.70 47.85 189.29 48.00 187.00 C 47.55 189.52 47.64 191.46 48.00 194.00 Z"
       id="path122" />
  </g>
  <g
     fill="#000000"
     fill-opacity="1.00"
     stroke="None"
     id="g128">
    <path
       d=" M 464.00 195.00  C 454.20 195.96 449.31 193.50 440.75 199.75 C 432.19 206.00 442.60 212.90 449.78 208.78 C 456.95 204.66 463.86 204.22 464.00 195.00 Z"
       id="path126" />
  </g>
</svg>
