<?xml version="1.0" encoding="UTF-8" standalone="no"?>
<svg
   xmlns:dc="http://purl.org/dc/elements/1.1/"
   xmlns:cc="http://creativecommons.org/ns#"
   xmlns:rdf="http://www.w3.org/1999/02/22-rdf-syntax-ns#"
   xmlns:svg="http://www.w3.org/2000/svg"
   xmlns="http://www.w3.org/2000/svg"
   xmlns:sodipodi="http://sodipodi.sourceforge.net/DTD/sodipodi-0.dtd"
   xmlns:inkscape="http://www.inkscape.org/namespaces/inkscape"
   viewBox="0 0 1439 516"
   width="1439"
   height="516"
   version="1.1"
   id="svg258"
   sodipodi:docname="signature_otavio.svg"
   inkscape:version="0.92.4 (5da689c313, 2019-01-14)">
  <metadata
     id="metadata264">
    <rdf:RDF>
      <cc:Work
         rdf:about="">
        <dc:format>image/svg+xml</dc:format>
        <dc:type
           rdf:resource="http://purl.org/dc/dcmitype/StillImage" />
      </cc:Work>
    </rdf:RDF>
  </metadata>
  <defs
     id="defs262" />
  <sodipodi:namedview
     pagecolor="#ffffff"
     bordercolor="#666666"
     borderopacity="1"
     objecttolerance="10"
     gridtolerance="10"
     guidetolerance="10"
     inkscape:pageopacity="0"
     inkscape:pageshadow="2"
     inkscape:window-width="1358"
     inkscape:window-height="745"
     id="namedview260"
     showgrid="false"
     inkscape:zoom="0.514246"
     inkscape:cx="654.61647"
     inkscape:cy="292.76906"
     inkscape:window-x="0"
     inkscape:window-y="0"
     inkscape:window-maximized="0"
     inkscape:current-layer="svg258" />
  <g
     fill="None"
     fill-opacity="0.0"
     stroke="#060606"
     stroke-opacity="1.00"
     stroke-width="0.3"
     id="g8"
     style="stroke-width:2.3;stroke-miterlimit:4;stroke-dasharray:none">
    <path
       d=" M 1160.00 72.00  C 1155.77 80.28 1150.78 88.82 1147.00 97.00 C 1143.98 106.06 1140.20 113.86 1136.93 122.93 C 1133.65 131.99 1131.00 141.18 1128.78 150.78 C 1126.56 160.38 1123.82 168.93 1122.00 179.00 C 1120.18 189.07 1119.67 200.62 1118.00 211.00 C 1116.32 221.38 1116.90 232.48 1114.99 242.99 C 1113.08 253.50 1114.29 265.47 1112.00 276.00 C 1109.71 286.53 1115.02 303.51 1120.00 291.00 C 1124.98 278.49 1120.37 269.65 1123.07 258.07 C 1125.78 246.49 1124.45 237.03 1126.00 226.00 C 1127.56 214.97 1127.75 204.06 1129.67 193.67 C 1131.60 183.28 1132.82 173.01 1135.22 163.22 C 1137.62 153.43 1139.57 144.55 1142.22 135.22 C 1144.88 125.90 1147.90 116.92 1151.22 108.22 C 1154.55 99.53 1158.48 92.72 1162.22 84.22 C 1165.96 75.73 1169.17 68.44 1174.75 60.75 C 1180.33 53.05 1182.71 48.47 1191.31 42.31 C 1199.90 36.14 1209.42 40.76 1211.69 51.31 C 1213.97 61.85 1217.90 69.68 1217.00 81.00 C 1216.10 92.32 1215.89 103.88 1214.99 114.99 C 1214.10 126.10 1212.59 137.06 1212.00 148.00 C 1211.41 158.94 1210.31 169.51 1209.00 180.00 C 1207.68 190.49 1205.86 201.20 1204.33 211.33 C 1202.80 221.46 1200.92 231.34 1198.99 240.99 C 1197.06 250.64 1194.63 260.77 1191.78 269.78 C 1188.92 278.79 1185.50 286.53 1181.77 294.77 C 1178.04 303.01 1173.72 310.49 1168.77 317.77 C 1163.82 325.05 1159.78 331.38 1153.75 337.75 C 1147.72 344.12 1141.90 350.30 1134.03 354.03 C 1126.15 357.75 1115.90 361.29 1107.00 362.00 C 1103.58 362.66 1100.26 362.32 1097.00 362.00 C 1088.84 362.00 1078.77 361.32 1075.92 353.08 C 1073.08 344.83 1067.94 342.43 1065.31 334.69 C 1062.67 326.96 1058.84 321.41 1056.32 313.68 C 1053.80 305.95 1055.99 296.75 1058.02 289.02 C 1060.05 281.30 1060.60 272.66 1063.02 265.02 C 1065.45 257.39 1064.75 247.29 1068.07 240.07 C 1071.39 232.85 1069.44 220.50 1062.78 227.78 C 1056.12 235.05 1060.22 242.76 1056.32 250.32 C 1052.42 257.89 1052.86 266.35 1049.93 273.93 C 1046.99 281.51 1045.59 288.75 1043.33 296.33 C 1041.07 303.90 1040.62 312.52 1037.77 319.77 C 1034.92 327.02 1031.31 332.55 1026.77 338.77 C 1022.23 344.99 1019.48 348.77 1013.25 354.25 C 1007.01 359.73 1005.16 362.93 996.22 366.22 C 987.29 369.51 984.32 371.75 972.00 372.00 C 959.68 372.25 966.26 379.24 977.00 378.00 C 987.74 376.75 991.45 375.57 998.92 370.92 C 1006.39 366.28 1012.79 365.95 1018.75 360.75 C 1024.72 355.55 1028.02 350.94 1032.70 345.70 C 1037.37 340.46 1040.27 333.68 1046.75 330.76 C 1053.23 327.83 1055.18 339.40 1059.23 344.77 C 1063.28 350.14 1066.15 355.64 1071.75 361.25 C 1077.36 366.85 1085.80 368.00 1094.00 368.00 C 1097.98 368.00 1102.03 368.22 1106.00 368.00 C 1124.45 367.00 1142.42 359.73 1155.75 346.75 C 1169.08 333.78 1177.04 323.06 1186.08 307.08 C 1195.11 291.09 1201.10 274.19 1205.67 255.67 C 1210.25 237.15 1214.04 216.49 1216.67 196.67 C 1219.30 176.85 1221.65 152.32 1223.00 132.00 C 1224.35 111.68 1226.72 85.75 1227.00 66.00 C 1227.28 46.25 1210.41 28.35 1192.70 34.69 C 1174.98 41.04 1167.87 56.60 1160.00 72.00 Z"
       id="path6"
       style="stroke-width:2.3;stroke-miterlimit:4;stroke-dasharray:none" />
  </g>
  <g
     fill="None"
     fill-opacity="0.0"
     stroke="#8C8C8C"
     stroke-opacity="1.00"
     stroke-width="0.3"
     id="g12"
     style="stroke-width:2.3;stroke-miterlimit:4;stroke-dasharray:none">
    <path
       d=" M 1147.00 97.00  C 1150.78 88.82 1155.77 80.28 1160.00 72.00 C 1155.17 79.57 1149.92 88.23 1147.00 97.00 Z"
       id="path10"
       style="stroke-width:2.3;stroke-miterlimit:4;stroke-dasharray:none" />
  </g>
  <g
     fill="None"
     fill-opacity="0.0"
     stroke="#080808"
     stroke-opacity="1.00"
     stroke-width="0.3"
     id="g16"
     style="stroke-width:2.3;stroke-miterlimit:4;stroke-dasharray:none">
    <path
       d=" M 240.00 74.00  C 234.09 70.54 228.87 81.34 226.92 85.92 C 224.98 90.51 221.67 98.30 219.98 103.98 C 218.28 109.65 216.07 116.88 213.98 122.98 C 211.88 129.07 210.80 136.50 208.98 142.98 C 207.15 149.45 205.22 156.14 203.99 162.99 C 202.76 169.84 200.79 176.80 199.93 183.93 C 199.06 191.05 196.93 197.70 196.00 205.00 C 195.07 212.29 194.69 220.44 193.93 227.93 C 193.17 235.42 192.14 243.29 191.99 250.99 C 191.85 258.70 189.95 266.28 190.00 274.00 C 190.05 281.72 188.69 290.42 189.00 298.00 C 189.31 305.58 187.09 314.03 187.00 321.00 C 186.91 327.97 184.55 337.84 184.93 343.93 C 185.31 350.02 178.64 360.57 184.78 364.22 C 190.91 367.86 192.72 354.69 193.00 349.00 C 193.28 343.31 194.97 332.90 195.00 326.00 C 195.03 319.10 196.99 310.49 197.00 303.00 C 197.01 295.51 197.30 286.59 198.00 279.00 C 198.70 271.41 198.56 262.71 199.01 255.01 C 199.45 247.31 200.87 239.73 201.00 232.00 C 201.13 224.27 202.41 216.51 203.00 209.00 C 203.59 201.49 203.67 193.12 205.00 186.00 C 206.34 178.88 207.35 171.74 209.01 165.01 C 210.66 158.28 211.80 151.25 214.02 145.02 C 216.25 138.80 218.15 132.11 220.22 126.22 C 222.30 120.33 225.58 112.93 226.22 107.22 C 226.87 101.52 231.91 93.25 233.08 89.08 C 234.24 84.90 242.89 75.69 240.00 74.00 Z"
       id="path14"
       style="stroke-width:2.3;stroke-miterlimit:4;stroke-dasharray:none" />
  </g>
  <g
     fill="None"
     fill-opacity="0.0"
     stroke="#060606"
     stroke-opacity="1.00"
     stroke-width="0.3"
     id="g20"
     style="stroke-width:2.3;stroke-miterlimit:4;stroke-dasharray:none">
    <path
       d=" M 395.00 270.00  C 395.26 272.71 395.87 276.65 396.00 280.00 C 397.06 307.64 390.00 332.53 390.00 360.00 C 390.00 364.41 389.35 369.34 389.00 373.00 C 390.57 382.65 383.98 391.47 381.99 399.99 C 380.01 408.51 378.23 417.59 373.92 424.92 C 369.61 432.25 365.77 437.66 359.25 443.25 C 352.73 448.84 346.96 452.74 339.02 456.02 C 331.09 459.31 319.33 459.29 311.22 456.78 C 303.12 454.27 296.51 450.97 290.75 444.25 C 284.99 437.53 280.55 433.63 276.98 425.02 C 273.40 416.42 272.44 411.33 266.75 402.25 C 261.07 393.17 250.38 394.26 257.25 403.75 C 264.11 413.25 264.79 416.08 269.23 424.77 C 273.67 433.46 275.86 438.56 281.25 445.75 C 286.63 452.94 291.20 456.81 298.98 461.02 C 306.75 465.24 319.02 465.40 328.00 465.00 C 336.98 464.59 345.78 461.12 353.31 457.31 C 360.83 453.49 365.50 448.30 371.08 442.08 C 376.67 435.86 379.46 428.74 383.69 421.69 C 387.93 414.65 386.73 403.27 394.00 399.00 C 396.97 406.74 398.66 421.41 406.77 426.23 C 414.88 431.05 427.84 437.91 436.92 434.92 C 446.00 431.94 449.25 420.72 455.00 414.00 C 458.21 410.25 461.84 405.65 466.00 403.00 C 474.37 398.34 477.41 411.58 487.00 412.00 C 496.59 412.42 506.50 410.10 513.92 404.92 C 521.34 399.75 527.49 397.00 533.75 390.75 C 540.01 384.50 543.82 378.26 551.00 374.00 C 554.48 381.83 555.01 391.49 560.75 398.25 C 566.49 405.01 571.32 409.91 579.78 413.22 C 588.23 416.53 598.49 418.61 608.00 419.00 C 617.51 419.39 629.25 417.61 637.92 414.92 C 646.60 412.24 653.08 408.46 660.30 403.30 C 667.52 398.15 670.95 392.56 677.25 386.25 C 683.54 379.94 684.81 368.60 687.00 362.00 C 689.90 369.84 691.89 378.51 694.68 386.32 C 697.47 394.13 697.38 403.72 702.75 410.25 C 708.13 416.78 714.71 418.38 721.92 422.08 C 729.13 425.77 742.08 425.91 749.92 423.92 C 757.77 421.94 763.86 416.87 769.25 411.25 C 774.64 405.62 778.12 399.07 782.23 393.23 C 786.34 387.39 791.33 378.14 793.07 372.07 C 794.82 366.01 798.79 351.09 804.70 356.30 C 810.60 361.52 812.53 368.26 818.25 373.75 C 823.97 379.24 828.53 384.23 834.75 389.25 C 840.98 394.27 846.16 397.57 853.77 401.23 C 861.39 404.89 872.19 406.18 881.00 404.00 C 889.80 401.81 897.29 401.54 905.25 396.25 C 913.22 390.97 913.51 387.97 919.75 379.75 C 926.00 371.54 936.13 385.88 944.97 380.97 C 953.82 376.07 938.28 373.72 932.25 369.75 C 926.22 365.78 929.04 350.87 929.00 342.00 C 928.96 333.13 927.93 320.71 929.00 310.00 C 930.07 299.29 919.83 293.49 919.00 306.00 C 918.17 318.51 917.47 324.27 917.00 335.00 C 916.53 345.73 916.03 354.19 913.31 363.31 C 910.59 372.42 908.61 377.32 904.30 385.30 C 899.99 393.29 889.69 392.01 882.07 395.07 C 874.46 398.14 863.25 396.63 856.08 392.92 C 848.90 389.22 843.55 385.90 837.25 380.75 C 830.94 375.60 827.52 369.98 822.25 363.75 C 816.97 357.52 814.22 350.30 811.98 342.02 C 809.73 333.74 809.40 322.48 810.00 313.00 C 810.61 303.52 812.91 294.90 814.07 285.07 C 815.23 275.25 817.61 266.99 817.00 256.00 C 816.38 245.01 807.11 251.81 803.77 259.77 C 800.43 267.73 797.21 275.69 797.00 285.00 C 796.79 294.31 797.22 305.80 798.00 315.00 C 798.78 324.20 796.33 334.76 793.98 342.98 C 791.62 351.19 789.04 359.40 785.92 366.92 C 782.80 374.45 780.52 381.66 776.30 388.30 C 772.09 394.94 768.54 401.35 762.75 406.75 C 756.96 412.15 750.16 417.07 742.00 418.00 C 733.84 418.93 723.42 417.55 716.25 412.75 C 709.08 407.95 709.04 398.96 705.93 391.07 C 702.81 383.19 702.09 373.33 700.99 364.01 C 699.89 354.68 698.82 346.56 697.93 336.07 C 697.03 325.59 683.91 325.08 684.00 336.00 C 684.09 346.92 679.40 350.33 677.00 360.00 C 676.56 363.54 676.84 367.02 676.00 370.00 C 669.24 393.89 643.62 403.85 622.02 410.02 C 600.43 416.20 564.05 406.59 563.00 379.00 C 562.43 375.01 562.36 370.95 563.00 367.00 C 563.58 356.39 567.27 351.35 566.00 340.00 C 564.72 328.66 556.60 339.67 554.30 346.30 C 552.01 352.94 547.02 359.18 543.25 365.25 C 539.49 371.33 534.77 376.67 530.75 382.75 C 526.74 388.84 521.37 391.82 515.23 396.23 C 509.08 400.64 501.98 402.63 494.00 405.00 C 486.02 407.37 477.27 395.37 481.23 388.23 C 485.19 381.09 490.61 378.31 495.77 372.77 C 500.93 367.23 507.47 364.52 513.30 360.30 C 519.14 356.09 525.28 353.01 531.00 349.00 C 533.11 347.26 538.80 342.23 540.00 340.00 C 541.53 336.61 541.59 332.98 538.00 331.00 C 535.63 330.14 530.54 330.80 528.00 331.00 C 519.85 331.65 511.71 335.78 504.75 339.75 C 497.80 343.73 493.08 348.90 487.75 354.75 C 482.43 360.60 479.17 367.80 475.75 374.75 C 472.34 381.71 467.27 387.47 462.75 393.75 C 458.24 400.04 452.32 404.58 448.25 411.25 C 444.18 417.91 439.13 427.31 430.00 425.00 C 420.88 422.68 412.66 422.53 409.78 413.22 C 406.90 403.91 405.29 397.42 402.98 388.02 C 400.66 378.63 402.84 368.32 404.00 359.00 C 405.16 349.68 406.52 340.72 408.67 331.67 C 410.83 322.62 412.59 314.59 414.22 305.22 C 415.85 295.85 417.77 287.20 418.07 277.07 C 418.37 266.95 422.26 258.30 420.00 247.00 C 417.74 235.70 422.07 228.75 432.33 227.33 C 442.58 225.91 449.11 223.64 457.78 220.78 C 466.45 217.91 474.41 219.12 481.25 213.25 C 488.09 207.37 470.77 209.38 464.22 212.22 C 457.67 215.07 445.85 215.11 438.07 218.07 C 430.30 221.04 417.51 224.39 420.67 212.67 C 423.83 200.95 422.02 193.86 423.00 183.00 C 423.98 172.14 424.74 163.23 425.00 153.00 C 425.26 142.77 425.65 131.45 426.00 122.00 C 426.35 112.55 426.85 100.24 422.98 93.02 C 419.10 85.81 419.20 74.10 410.00 74.00 C 400.81 73.90 398.89 85.20 396.99 92.99 C 395.10 100.78 395.04 112.94 393.98 121.98 C 392.91 131.01 392.19 141.63 391.33 151.33 C 390.47 161.03 391.55 172.86 391.00 183.00 C 390.45 193.14 393.18 202.94 393.00 213.00 C 392.82 223.06 392.04 231.62 393.00 241.00 C 393.96 250.38 395.00 260.65 395.00 270.00 M 405.00 227.00  C 401.76 218.68 401.96 211.13 401.00 202.00 C 400.04 192.87 399.72 182.68 400.00 173.00 C 400.28 163.32 399.57 154.12 400.33 144.33 C 401.09 134.54 401.63 126.94 402.78 116.78 C 403.92 106.62 403.94 101.72 406.78 90.78 C 409.62 79.84 413.62 83.67 415.00 94.00 C 416.38 104.34 416.51 112.04 417.00 122.00 C 417.49 131.96 418.48 140.72 417.22 150.22 C 415.96 159.72 417.25 169.06 416.00 178.00 C 414.76 186.94 415.47 196.90 413.07 205.07 C 410.68 213.24 413.27 222.90 405.00 227.00 M 407.00 283.00  C 403.30 277.77 402.72 264.39 403.00 258.00 C 403.28 251.61 399.79 232.12 407.01 232.01 C 414.23 231.90 410.83 250.32 410.67 256.67 C 410.51 263.02 409.67 276.59 407.00 283.00 M 490.00 363.00  C 494.16 352.19 508.14 345.41 517.08 340.08 C 526.01 334.74 530.96 336.47 522.25 344.25 C 513.54 352.02 502.27 362.32 490.00 363.00 Z"
       id="path18"
       style="stroke-width:2.3;stroke-miterlimit:4;stroke-dasharray:none" />
  </g>
  <g
     fill="None"
     fill-opacity="0.0"
     stroke="#060606"
     stroke-opacity="1.00"
     stroke-width="0.3"
     id="g24"
     style="stroke-width:2.3;stroke-miterlimit:4;stroke-dasharray:none">
    <path
       d=" M 247.00 161.00  C 247.00 167.05 246.51 173.70 246.00 179.00 C 246.00 191.40 246.22 205.33 245.33 217.33 C 244.44 229.33 244.66 241.55 242.99 252.99 C 241.32 264.44 240.02 276.02 238.00 287.00 C 235.98 297.97 234.58 308.57 232.00 319.00 C 229.42 329.43 228.08 341.08 224.93 350.93 C 221.77 360.77 218.72 369.73 214.78 378.78 C 210.83 387.82 207.66 396.73 203.31 405.31 C 198.95 413.88 194.72 422.53 188.75 429.75 C 182.78 436.97 177.56 443.19 170.23 449.23 C 162.90 455.27 155.33 460.96 146.22 464.22 C 137.12 467.49 123.13 467.77 115.75 460.25 C 108.37 452.73 104.40 446.01 100.78 436.22 C 97.15 426.44 94.56 416.86 92.98 406.02 C 91.39 395.19 90.68 381.56 91.00 370.00 C 91.32 358.44 92.83 345.85 95.02 335.02 C 97.22 324.20 99.80 314.94 102.67 304.67 C 105.54 294.41 107.89 283.19 110.00 273.00 C 112.11 262.82 113.56 251.28 117.00 242.00 C 120.44 232.72 120.31 221.60 127.23 214.23 C 134.15 206.86 135.30 190.30 127.92 199.92 C 120.55 209.55 120.79 216.05 115.77 225.77 C 110.75 235.49 110.22 245.79 106.99 255.99 C 103.77 266.19 103.28 276.61 99.78 286.78 C 96.28 296.95 94.58 307.23 91.78 317.78 C 88.98 328.32 87.36 338.81 85.98 349.98 C 84.59 361.15 83.83 374.37 84.00 386.00 C 84.17 397.63 85.46 410.45 88.01 420.99 C 90.55 431.53 92.00 440.67 97.25 449.75 C 102.49 458.84 107.32 464.15 115.77 470.23 C 124.22 476.31 136.50 474.60 145.99 471.99 C 155.49 469.38 162.46 464.44 170.00 458.00 C 174.59 453.41 179.46 448.54 184.00 444.00 C 196.36 429.36 206.74 416.33 213.22 398.22 C 219.71 380.12 230.18 365.56 234.68 345.68 C 239.18 325.79 240.27 302.19 244.22 281.22 C 248.17 260.25 250.79 236.32 252.22 214.22 C 253.65 192.12 255.20 164.43 254.00 142.00 C 252.80 119.57 259.48 94.28 243.00 79.00 C 247.19 105.67 247.00 133.27 247.00 161.00 Z"
       id="path22"
       style="stroke-width:2.3;stroke-miterlimit:4;stroke-dasharray:none" />
  </g>
  <g
     fill="None"
     fill-opacity="0.0"
     stroke="#F2F2F2"
     stroke-opacity="1.00"
     stroke-width="0.3"
     id="g28"
     style="stroke-width:2.3;stroke-miterlimit:4;stroke-dasharray:none">
    <path
       d=" M 405.00 227.00  C 413.27 222.90 410.68 213.24 413.07 205.07 C 415.47 196.90 414.76 186.94 416.00 178.00 C 417.25 169.06 415.96 159.72 417.22 150.22 C 418.48 140.72 417.49 131.96 417.00 122.00 C 416.51 112.04 416.38 104.34 415.00 94.00 C 413.62 83.67 409.62 79.84 406.78 90.78 C 403.94 101.72 403.92 106.62 402.78 116.78 C 401.63 126.94 401.09 134.54 400.33 144.33 C 399.57 154.12 400.28 163.32 400.00 173.00 C 399.72 182.68 400.04 192.87 401.00 202.00 C 401.96 211.13 401.76 218.68 405.00 227.00 Z"
       id="path26"
       style="stroke-width:2.3;stroke-miterlimit:4;stroke-dasharray:none" />
  </g>
  <g
     fill="None"
     fill-opacity="0.0"
     stroke="#686868"
     stroke-opacity="1.00"
     stroke-width="0.3"
     id="g32"
     style="stroke-width:2.3;stroke-miterlimit:4;stroke-dasharray:none">
    <path
       d=" M 246.00 179.00  C 246.51 173.70 247.00 167.05 247.00 161.00 C 246.49 166.30 246.00 172.95 246.00 179.00 Z"
       id="path30"
       style="stroke-width:2.3;stroke-miterlimit:4;stroke-dasharray:none" />
  </g>
  <g
     fill="None"
     fill-opacity="0.0"
     stroke="#090909"
     stroke-opacity="1.00"
     stroke-width="0.3"
     id="g36"
     style="stroke-width:2.3;stroke-miterlimit:4;stroke-dasharray:none">
    <path
       d=" M 635.00 188.00  C 632.53 191.71 628.51 195.39 625.00 198.00 C 604.43 218.33 578.68 230.86 559.00 252.00 C 566.02 254.23 572.98 247.47 578.75 243.75 C 584.53 240.04 589.75 235.30 595.25 231.25 C 600.76 227.21 607.00 222.39 612.25 218.25 C 617.50 214.11 622.88 208.78 627.75 204.75 C 632.62 200.73 639.42 194.59 643.25 190.25 C 647.08 185.90 658.97 178.27 651.00 175.00 C 643.03 171.73 638.01 183.48 635.00 188.00 Z"
       id="path34"
       style="stroke-width:2.3;stroke-miterlimit:4;stroke-dasharray:none" />
  </g>
  <g
     fill="None"
     fill-opacity="0.0"
     stroke="#818181"
     stroke-opacity="1.00"
     stroke-width="0.3"
     id="g40"
     style="stroke-width:2.3;stroke-miterlimit:4;stroke-dasharray:none">
    <path
       d=" M 625.00 198.00  C 628.51 195.39 632.53 191.71 635.00 188.00 C 632.60 191.07 628.01 195.37 625.00 198.00 Z"
       id="path38"
       style="stroke-width:2.3;stroke-miterlimit:4;stroke-dasharray:none" />
  </g>
  <g
     fill="None"
     fill-opacity="0.0"
     stroke="#E6E6E6"
     stroke-opacity="1.00"
     stroke-width="0.3"
     id="g44"
     style="stroke-width:2.3;stroke-miterlimit:4;stroke-dasharray:none">
    <path
       d=" M 407.00 283.00  C 409.67 276.59 410.51 263.02 410.67 256.67 C 410.83 250.32 414.23 231.90 407.01 232.01 C 399.79 232.12 403.28 251.61 403.00 258.00 C 402.72 264.39 403.30 277.77 407.00 283.00 Z"
       id="path42"
       style="stroke-width:2.3;stroke-miterlimit:4;stroke-dasharray:none" />
  </g>
  <g
     fill="None"
     fill-opacity="0.0"
     stroke="#454545"
     stroke-opacity="1.00"
     stroke-width="0.3"
     id="g48"
     style="stroke-width:2.3;stroke-miterlimit:4;stroke-dasharray:none">
    <path
       d=" M 904.00 256.00  C 903.95 247.06 894.29 257.38 904.00 256.00 Z"
       id="path46"
       style="stroke-width:2.3;stroke-miterlimit:4;stroke-dasharray:none" />
  </g>
  <g
     fill="None"
     fill-opacity="0.0"
     stroke="#040404"
     stroke-opacity="1.00"
     stroke-width="0.3"
     id="g52"
     style="stroke-width:2.3;stroke-miterlimit:4;stroke-dasharray:none">
    <path
       d=" M 936.00 254.00  C 926.18 246.15 901.80 257.40 910.25 269.75 C 918.70 282.10 936.04 261.98 936.00 254.00 Z"
       id="path50"
       style="stroke-width:2.3;stroke-miterlimit:4;stroke-dasharray:none" />
  </g>
  <g
     fill="None"
     fill-opacity="0.0"
     stroke="#616161"
     stroke-opacity="1.00"
     stroke-width="0.3"
     id="g56"
     style="stroke-width:2.3;stroke-miterlimit:4;stroke-dasharray:none">
    <path
       d=" M 396.00 280.00  C 395.87 276.65 395.26 272.71 395.00 270.00 C 395.00 273.50 395.59 277.15 396.00 280.00 Z"
       id="path54"
       style="stroke-width:2.3;stroke-miterlimit:4;stroke-dasharray:none" />
  </g>
  <g
     fill="None"
     fill-opacity="0.0"
     stroke="#848484"
     stroke-opacity="1.00"
     stroke-width="0.3"
     id="g60"
     style="stroke-width:2.3;stroke-miterlimit:4;stroke-dasharray:none">
    <path
       d=" M 528.00 331.00  C 530.54 330.80 535.63 330.14 538.00 331.00 C 534.76 329.21 531.21 330.38 528.00 331.00 Z"
       id="path58"
       style="stroke-width:2.3;stroke-miterlimit:4;stroke-dasharray:none" />
  </g>
  <g
     fill="None"
     fill-opacity="0.0"
     stroke="#E6E6E6"
     stroke-opacity="1.00"
     stroke-width="0.3"
     id="g64"
     style="stroke-width:2.3;stroke-miterlimit:4;stroke-dasharray:none">
    <path
       d=" M 490.00 363.00  C 502.27 362.32 513.54 352.02 522.25 344.25 C 530.96 336.47 526.01 334.74 517.08 340.08 C 508.14 345.41 494.16 352.19 490.00 363.00 Z"
       id="path62"
       style="stroke-width:2.3;stroke-miterlimit:4;stroke-dasharray:none" />
  </g>
  <g
     fill="None"
     fill-opacity="0.0"
     stroke="#858585"
     stroke-opacity="1.00"
     stroke-width="0.3"
     id="g68"
     style="stroke-width:2.3;stroke-miterlimit:4;stroke-dasharray:none">
    <path
       d=" M 531.00 349.00  C 533.82 347.03 538.52 343.27 540.00 340.00 C 538.80 342.23 533.11 347.26 531.00 349.00 Z"
       id="path66"
       style="stroke-width:2.3;stroke-miterlimit:4;stroke-dasharray:none" />
  </g>
  <g
     fill="None"
     fill-opacity="0.0"
     stroke="#838383"
     stroke-opacity="1.00"
     stroke-width="0.3"
     id="g72"
     style="stroke-width:2.3;stroke-miterlimit:4;stroke-dasharray:none">
    <path
       d=" M 1424.00 351.00  C 1427.32 350.87 1430.68 351.00 1434.00 351.00 C 1430.79 350.66 1427.32 350.53 1424.00 351.00 Z"
       id="path70"
       style="stroke-width:2.3;stroke-miterlimit:4;stroke-dasharray:none" />
  </g>
  <g
     fill="None"
     fill-opacity="0.0"
     stroke="#898989"
     stroke-opacity="1.00"
     stroke-width="0.3"
     id="g80"
     style="stroke-width:2.3;stroke-miterlimit:4;stroke-dasharray:none">
    <path
       d=" M 389.00 373.00  C 389.35 369.34 390.00 364.41 390.00 360.00 C 389.65 363.66 389.00 368.59 389.00 373.00 Z"
       id="path78"
       style="stroke-width:2.3;stroke-miterlimit:4;stroke-dasharray:none" />
  </g>
  <g
     fill="None"
     fill-opacity="0.0"
     stroke="#6A6A6A"
     stroke-opacity="1.00"
     stroke-width="0.3"
     id="g84"
     style="stroke-width:2.3;stroke-miterlimit:4;stroke-dasharray:none">
    <path
       d=" M 676.00 370.00  C 676.84 367.02 676.56 363.54 677.00 360.00 C 676.28 362.90 676.52 366.58 676.00 370.00 Z"
       id="path82"
       style="stroke-width:2.3;stroke-miterlimit:4;stroke-dasharray:none" />
  </g>
  <g
     fill="None"
     fill-opacity="0.0"
     stroke="#767676"
     stroke-opacity="1.00"
     stroke-width="0.3"
     id="g92"
     style="stroke-width:2.3;stroke-miterlimit:4;stroke-dasharray:none">
    <path
       d=" M 563.00 379.00  C 562.85 375.06 562.79 370.94 563.00 367.00 C 562.36 370.95 562.43 375.01 563.00 379.00 Z"
       id="path90"
       style="stroke-width:2.3;stroke-miterlimit:4;stroke-dasharray:none" />
  </g>
  <g
     fill="#FDFDFD"
     fill-opacity="1.00"
     stroke="None"
     id="g132"
     style="stroke-width:2.3;stroke-miterlimit:4;stroke-dasharray:none" />
  <g
     fill="#060606"
     fill-opacity="1.00"
     stroke="None"
     id="g136"
     style="stroke-width:2.3;stroke-miterlimit:4;stroke-dasharray:none">
    <path
       d=" M 1160.00 72.00  C 1155.77 80.28 1150.78 88.82 1147.00 97.00 C 1143.98 106.06 1140.20 113.86 1136.93 122.93 C 1133.65 131.99 1131.00 141.18 1128.78 150.78 C 1126.56 160.38 1123.82 168.93 1122.00 179.00 C 1120.18 189.07 1119.67 200.62 1118.00 211.00 C 1116.32 221.38 1116.90 232.48 1114.99 242.99 C 1113.08 253.50 1114.29 265.47 1112.00 276.00 C 1109.71 286.53 1115.02 303.51 1120.00 291.00 C 1124.98 278.49 1120.37 269.65 1123.07 258.07 C 1125.78 246.49 1124.45 237.03 1126.00 226.00 C 1127.56 214.97 1127.75 204.06 1129.67 193.67 C 1131.60 183.28 1132.82 173.01 1135.22 163.22 C 1137.62 153.43 1139.57 144.55 1142.22 135.22 C 1144.88 125.90 1147.90 116.92 1151.22 108.22 C 1154.55 99.53 1158.48 92.72 1162.22 84.22 C 1165.96 75.73 1169.17 68.44 1174.75 60.75 C 1180.33 53.05 1182.71 48.47 1191.31 42.31 C 1199.90 36.14 1209.42 40.76 1211.69 51.31 C 1213.97 61.85 1217.90 69.68 1217.00 81.00 C 1216.10 92.32 1215.89 103.88 1214.99 114.99 C 1214.10 126.10 1212.59 137.06 1212.00 148.00 C 1211.41 158.94 1210.31 169.51 1209.00 180.00 C 1207.68 190.49 1205.86 201.20 1204.33 211.33 C 1202.80 221.46 1200.92 231.34 1198.99 240.99 C 1197.06 250.64 1194.63 260.77 1191.78 269.78 C 1188.92 278.79 1185.50 286.53 1181.77 294.77 C 1178.04 303.01 1173.72 310.49 1168.77 317.77 C 1163.82 325.05 1159.78 331.38 1153.75 337.75 C 1147.72 344.12 1141.90 350.30 1134.03 354.03 C 1126.15 357.75 1115.90 361.29 1107.00 362.00 C 1103.58 362.66 1100.26 362.32 1097.00 362.00 C 1088.84 362.00 1078.77 361.32 1075.92 353.08 C 1073.08 344.83 1067.94 342.43 1065.31 334.69 C 1062.67 326.96 1058.84 321.41 1056.32 313.68 C 1053.80 305.95 1055.99 296.75 1058.02 289.02 C 1060.05 281.30 1060.60 272.66 1063.02 265.02 C 1065.45 257.39 1064.75 247.29 1068.07 240.07 C 1071.39 232.85 1069.44 220.50 1062.78 227.78 C 1056.12 235.05 1060.22 242.76 1056.32 250.32 C 1052.42 257.89 1052.86 266.35 1049.93 273.93 C 1046.99 281.51 1045.59 288.75 1043.33 296.33 C 1041.07 303.90 1040.62 312.52 1037.77 319.77 C 1034.92 327.02 1031.31 332.55 1026.77 338.77 C 1022.23 344.99 1019.48 348.77 1013.25 354.25 C 1007.01 359.73 1005.16 362.93 996.22 366.22 C 987.29 369.51 984.32 371.75 972.00 372.00 C 959.68 372.25 966.26 379.24 977.00 378.00 C 987.74 376.75 991.45 375.57 998.92 370.92 C 1006.39 366.28 1012.79 365.95 1018.75 360.75 C 1024.72 355.55 1028.02 350.94 1032.70 345.70 C 1037.37 340.46 1040.27 333.68 1046.75 330.76 C 1053.23 327.83 1055.18 339.40 1059.23 344.77 C 1063.28 350.14 1066.15 355.64 1071.75 361.25 C 1077.36 366.85 1085.80 368.00 1094.00 368.00 C 1097.98 368.00 1102.03 368.22 1106.00 368.00 C 1124.45 367.00 1142.42 359.73 1155.75 346.75 C 1169.08 333.78 1177.04 323.06 1186.08 307.08 C 1195.11 291.09 1201.10 274.19 1205.67 255.67 C 1210.25 237.15 1214.04 216.49 1216.67 196.67 C 1219.30 176.85 1221.65 152.32 1223.00 132.00 C 1224.35 111.68 1226.72 85.75 1227.00 66.00 C 1227.28 46.25 1210.41 28.35 1192.70 34.69 C 1174.98 41.04 1167.87 56.60 1160.00 72.00 Z"
       id="path134"
       style="stroke-width:2.3;stroke-miterlimit:4;stroke-dasharray:none" />
  </g>
  <g
     fill="#8C8C8C"
     fill-opacity="1.00"
     stroke="None"
     id="g140"
     style="stroke-width:2.3;stroke-miterlimit:4;stroke-dasharray:none">
    <path
       d=" M 1147.00 97.00  C 1150.78 88.82 1155.77 80.28 1160.00 72.00 C 1155.17 79.57 1149.92 88.23 1147.00 97.00 Z"
       id="path138"
       style="stroke-width:2.3;stroke-miterlimit:4;stroke-dasharray:none" />
  </g>
  <g
     stroke="None"
     id="g144"
     style="stroke-width:2.3;stroke-miterlimit:4;stroke-dasharray:none"
     fill-opacity="1.00"
     fill="#080808">
    <path
       d=" M 240.00 74.00  C 234.09 70.54 228.87 81.34 226.92 85.92 C 224.98 90.51 221.67 98.30 219.98 103.98 C 218.28 109.65 216.07 116.88 213.98 122.98 C 211.88 129.07 210.80 136.50 208.98 142.98 C 207.15 149.45 205.22 156.14 203.99 162.99 C 202.76 169.84 200.79 176.80 199.93 183.93 C 199.06 191.05 196.93 197.70 196.00 205.00 C 195.07 212.29 194.69 220.44 193.93 227.93 C 193.17 235.42 192.14 243.29 191.99 250.99 C 191.85 258.70 189.95 266.28 190.00 274.00 C 190.05 281.72 188.69 290.42 189.00 298.00 C 189.31 305.58 187.09 314.03 187.00 321.00 C 186.91 327.97 184.55 337.84 184.93 343.93 C 185.31 350.02 178.64 360.57 184.78 364.22 C 190.91 367.86 192.72 354.69 193.00 349.00 C 193.28 343.31 194.97 332.90 195.00 326.00 C 195.03 319.10 196.99 310.49 197.00 303.00 C 197.01 295.51 197.30 286.59 198.00 279.00 C 198.70 271.41 198.56 262.71 199.01 255.01 C 199.45 247.31 200.87 239.73 201.00 232.00 C 201.13 224.27 202.41 216.51 203.00 209.00 C 203.59 201.49 203.67 193.12 205.00 186.00 C 206.34 178.88 207.35 171.74 209.01 165.01 C 210.66 158.28 211.80 151.25 214.02 145.02 C 216.25 138.80 218.15 132.11 220.22 126.22 C 222.30 120.33 225.58 112.93 226.22 107.22 C 226.87 101.52 231.91 93.25 233.08 89.08 C 234.24 84.90 242.89 75.69 240.00 74.00 Z"
       id="path142"
       style="stroke-width:2.3;stroke-miterlimit:4;stroke-dasharray:none" />
  </g>
  <g
     stroke="None"
     id="g148"
     style="stroke-width:2.3;stroke-miterlimit:4;stroke-dasharray:none"
     fill-opacity="1.00"
     fill="#060606">
    <path
       d=" M 395.00 270.00  C 395.26 272.71 395.87 276.65 396.00 280.00 C 397.06 307.64 390.00 332.53 390.00 360.00 C 390.00 364.41 389.35 369.34 389.00 373.00 C 390.57 382.65 383.98 391.47 381.99 399.99 C 380.01 408.51 378.23 417.59 373.92 424.92 C 369.61 432.25 365.77 437.66 359.25 443.25 C 352.73 448.84 346.96 452.74 339.02 456.02 C 331.09 459.31 319.33 459.29 311.22 456.78 C 303.12 454.27 296.51 450.97 290.75 444.25 C 284.99 437.53 280.55 433.63 276.98 425.02 C 273.40 416.42 272.44 411.33 266.75 402.25 C 261.07 393.17 250.38 394.26 257.25 403.75 C 264.11 413.25 264.79 416.08 269.23 424.77 C 273.67 433.46 275.86 438.56 281.25 445.75 C 286.63 452.94 291.20 456.81 298.98 461.02 C 306.75 465.24 319.02 465.40 328.00 465.00 C 336.98 464.59 345.78 461.12 353.31 457.31 C 360.83 453.49 365.50 448.30 371.08 442.08 C 376.67 435.86 379.46 428.74 383.69 421.69 C 387.93 414.65 386.73 403.27 394.00 399.00 C 396.97 406.74 398.66 421.41 406.77 426.23 C 414.88 431.05 427.84 437.91 436.92 434.92 C 446.00 431.94 449.25 420.72 455.00 414.00 C 458.21 410.25 461.84 405.65 466.00 403.00 C 474.37 398.34 477.41 411.58 487.00 412.00 C 496.59 412.42 506.50 410.10 513.92 404.92 C 521.34 399.75 527.49 397.00 533.75 390.75 C 540.01 384.50 543.82 378.26 551.00 374.00 C 554.48 381.83 555.01 391.49 560.75 398.25 C 566.49 405.01 571.32 409.91 579.78 413.22 C 588.23 416.53 598.49 418.61 608.00 419.00 C 617.51 419.39 629.25 417.61 637.92 414.92 C 646.60 412.24 653.08 408.46 660.30 403.30 C 667.52 398.15 670.95 392.56 677.25 386.25 C 683.54 379.94 684.81 368.60 687.00 362.00 C 689.90 369.84 691.89 378.51 694.68 386.32 C 697.47 394.13 697.38 403.72 702.75 410.25 C 708.13 416.78 714.71 418.38 721.92 422.08 C 729.13 425.77 742.08 425.91 749.92 423.92 C 757.77 421.94 763.86 416.87 769.25 411.25 C 774.64 405.62 778.12 399.07 782.23 393.23 C 786.34 387.39 791.33 378.14 793.07 372.07 C 794.82 366.01 798.79 351.09 804.70 356.30 C 810.60 361.52 812.53 368.26 818.25 373.75 C 823.97 379.24 828.53 384.23 834.75 389.25 C 840.98 394.27 846.16 397.57 853.77 401.23 C 861.39 404.89 872.19 406.18 881.00 404.00 C 889.80 401.81 897.29 401.54 905.25 396.25 C 913.22 390.97 913.51 387.97 919.75 379.75 C 926.00 371.54 936.13 385.88 944.97 380.97 C 953.82 376.07 938.28 373.72 932.25 369.75 C 926.22 365.78 929.04 350.87 929.00 342.00 C 928.96 333.13 927.93 320.71 929.00 310.00 C 930.07 299.29 919.83 293.49 919.00 306.00 C 918.17 318.51 917.47 324.27 917.00 335.00 C 916.53 345.73 916.03 354.19 913.31 363.31 C 910.59 372.42 908.61 377.32 904.30 385.30 C 899.99 393.29 889.69 392.01 882.07 395.07 C 874.46 398.14 863.25 396.63 856.08 392.92 C 848.90 389.22 843.55 385.90 837.25 380.75 C 830.94 375.60 827.52 369.98 822.25 363.75 C 816.97 357.52 814.22 350.30 811.98 342.02 C 809.73 333.74 809.40 322.48 810.00 313.00 C 810.61 303.52 812.91 294.90 814.07 285.07 C 815.23 275.25 817.61 266.99 817.00 256.00 C 816.38 245.01 807.11 251.81 803.77 259.77 C 800.43 267.73 797.21 275.69 797.00 285.00 C 796.79 294.31 797.22 305.80 798.00 315.00 C 798.78 324.20 796.33 334.76 793.98 342.98 C 791.62 351.19 789.04 359.40 785.92 366.92 C 782.80 374.45 780.52 381.66 776.30 388.30 C 772.09 394.94 768.54 401.35 762.75 406.75 C 756.96 412.15 750.16 417.07 742.00 418.00 C 733.84 418.93 723.42 417.55 716.25 412.75 C 709.08 407.95 709.04 398.96 705.93 391.07 C 702.81 383.19 702.09 373.33 700.99 364.01 C 699.89 354.68 698.82 346.56 697.93 336.07 C 697.03 325.59 683.91 325.08 684.00 336.00 C 684.09 346.92 679.40 350.33 677.00 360.00 C 676.56 363.54 676.84 367.02 676.00 370.00 C 669.24 393.89 643.62 403.85 622.02 410.02 C 600.43 416.20 564.05 406.59 563.00 379.00 C 562.43 375.01 562.36 370.95 563.00 367.00 C 563.58 356.39 567.27 351.35 566.00 340.00 C 564.72 328.66 556.60 339.67 554.30 346.30 C 552.01 352.94 547.02 359.18 543.25 365.25 C 539.49 371.33 534.77 376.67 530.75 382.75 C 526.74 388.84 521.37 391.82 515.23 396.23 C 509.08 400.64 501.98 402.63 494.00 405.00 C 486.02 407.37 477.27 395.37 481.23 388.23 C 485.19 381.09 490.61 378.31 495.77 372.77 C 500.93 367.23 507.47 364.52 513.30 360.30 C 519.14 356.09 525.28 353.01 531.00 349.00 C 533.11 347.26 538.80 342.23 540.00 340.00 C 541.53 336.61 541.59 332.98 538.00 331.00 C 535.63 330.14 530.54 330.80 528.00 331.00 C 519.85 331.65 511.71 335.78 504.75 339.75 C 497.80 343.73 493.08 348.90 487.75 354.75 C 482.43 360.60 479.17 367.80 475.75 374.75 C 472.34 381.71 467.27 387.47 462.75 393.75 C 458.24 400.04 452.32 404.58 448.25 411.25 C 444.18 417.91 439.13 427.31 430.00 425.00 C 420.88 422.68 412.66 422.53 409.78 413.22 C 406.90 403.91 405.29 397.42 402.98 388.02 C 400.66 378.63 402.84 368.32 404.00 359.00 C 405.16 349.68 406.52 340.72 408.67 331.67 C 410.83 322.62 412.59 314.59 414.22 305.22 C 415.85 295.85 417.77 287.20 418.07 277.07 C 418.37 266.95 422.26 258.30 420.00 247.00 C 417.74 235.70 422.07 228.75 432.33 227.33 C 442.58 225.91 449.11 223.64 457.78 220.78 C 466.45 217.91 474.41 219.12 481.25 213.25 C 488.09 207.37 470.77 209.38 464.22 212.22 C 457.67 215.07 445.85 215.11 438.07 218.07 C 430.30 221.04 417.51 224.39 420.67 212.67 C 423.83 200.95 422.02 193.86 423.00 183.00 C 423.98 172.14 424.74 163.23 425.00 153.00 C 425.26 142.77 425.65 131.45 426.00 122.00 C 426.35 112.55 426.85 100.24 422.98 93.02 C 419.10 85.81 419.20 74.10 410.00 74.00 C 400.81 73.90 398.89 85.20 396.99 92.99 C 395.10 100.78 395.04 112.94 393.98 121.98 C 392.91 131.01 392.19 141.63 391.33 151.33 C 390.47 161.03 391.55 172.86 391.00 183.00 C 390.45 193.14 393.18 202.94 393.00 213.00 C 392.82 223.06 392.04 231.62 393.00 241.00 C 393.96 250.38 395.00 260.65 395.00 270.00 M 405.00 227.00  C 401.76 218.68 401.96 211.13 401.00 202.00 C 400.04 192.87 399.72 182.68 400.00 173.00 C 400.28 163.32 399.57 154.12 400.33 144.33 C 401.09 134.54 401.63 126.94 402.78 116.78 C 403.92 106.62 403.94 101.72 406.78 90.78 C 409.62 79.84 413.62 83.67 415.00 94.00 C 416.38 104.34 416.51 112.04 417.00 122.00 C 417.49 131.96 418.48 140.72 417.22 150.22 C 415.96 159.72 417.25 169.06 416.00 178.00 C 414.76 186.94 415.47 196.90 413.07 205.07 C 410.68 213.24 413.27 222.90 405.00 227.00 M 407.00 283.00  C 403.30 277.77 402.72 264.39 403.00 258.00 C 403.28 251.61 399.79 232.12 407.01 232.01 C 414.23 231.90 410.83 250.32 410.67 256.67 C 410.51 263.02 409.67 276.59 407.00 283.00 M 490.00 363.00  C 494.16 352.19 508.14 345.41 517.08 340.08 C 526.01 334.74 530.96 336.47 522.25 344.25 C 513.54 352.02 502.27 362.32 490.00 363.00 Z"
       id="path146"
       style="stroke-width:2.3;stroke-miterlimit:4;stroke-dasharray:none" />
  </g>
  <g
     fill="#060606"
     fill-opacity="1.00"
     stroke="None"
     id="g152"
     style="stroke-width:2.3;stroke-miterlimit:4;stroke-dasharray:none">
    <path
       d=" M 247.00 161.00  C 247.00 167.05 246.51 173.70 246.00 179.00 C 246.00 191.40 246.22 205.33 245.33 217.33 C 244.44 229.33 244.66 241.55 242.99 252.99 C 241.32 264.44 240.02 276.02 238.00 287.00 C 235.98 297.97 234.58 308.57 232.00 319.00 C 229.42 329.43 228.08 341.08 224.93 350.93 C 221.77 360.77 218.72 369.73 214.78 378.78 C 210.83 387.82 207.66 396.73 203.31 405.31 C 198.95 413.88 194.72 422.53 188.75 429.75 C 182.78 436.97 177.56 443.19 170.23 449.23 C 162.90 455.27 155.33 460.96 146.22 464.22 C 137.12 467.49 123.13 467.77 115.75 460.25 C 108.37 452.73 104.40 446.01 100.78 436.22 C 97.15 426.44 94.56 416.86 92.98 406.02 C 91.39 395.19 90.68 381.56 91.00 370.00 C 91.32 358.44 92.83 345.85 95.02 335.02 C 97.22 324.20 99.80 314.94 102.67 304.67 C 105.54 294.41 107.89 283.19 110.00 273.00 C 112.11 262.82 113.56 251.28 117.00 242.00 C 120.44 232.72 120.31 221.60 127.23 214.23 C 134.15 206.86 135.30 190.30 127.92 199.92 C 120.55 209.55 120.79 216.05 115.77 225.77 C 110.75 235.49 110.22 245.79 106.99 255.99 C 103.77 266.19 103.28 276.61 99.78 286.78 C 96.28 296.95 94.58 307.23 91.78 317.78 C 88.98 328.32 87.36 338.81 85.98 349.98 C 84.59 361.15 83.83 374.37 84.00 386.00 C 84.17 397.63 85.46 410.45 88.01 420.99 C 90.55 431.53 92.00 440.67 97.25 449.75 C 102.49 458.84 107.32 464.15 115.77 470.23 C 124.22 476.31 136.50 474.60 145.99 471.99 C 155.49 469.38 162.46 464.44 170.00 458.00 C 174.59 453.41 179.46 448.54 184.00 444.00 C 196.36 429.36 206.74 416.33 213.22 398.22 C 219.71 380.12 230.18 365.56 234.68 345.68 C 239.18 325.79 240.27 302.19 244.22 281.22 C 248.17 260.25 250.79 236.32 252.22 214.22 C 253.65 192.12 255.20 164.43 254.00 142.00 C 252.80 119.57 259.48 94.28 243.00 79.00 C 247.19 105.67 247.00 133.27 247.00 161.00 Z"
       id="path150"
       style="stroke-width:2.3;stroke-miterlimit:4;stroke-dasharray:none" />
  </g>
  <g
     fill="#F2F2F2"
     fill-opacity="1.00"
     stroke="None"
     id="g156"
     style="stroke-width:2.3;stroke-miterlimit:4;stroke-dasharray:none">
    <path
       d=" M 405.00 227.00  C 413.27 222.90 410.68 213.24 413.07 205.07 C 415.47 196.90 414.76 186.94 416.00 178.00 C 417.25 169.06 415.96 159.72 417.22 150.22 C 418.48 140.72 417.49 131.96 417.00 122.00 C 416.51 112.04 416.38 104.34 415.00 94.00 C 413.62 83.67 409.62 79.84 406.78 90.78 C 403.94 101.72 403.92 106.62 402.78 116.78 C 401.63 126.94 401.09 134.54 400.33 144.33 C 399.57 154.12 400.28 163.32 400.00 173.00 C 399.72 182.68 400.04 192.87 401.00 202.00 C 401.96 211.13 401.76 218.68 405.00 227.00 Z"
       id="path154"
       style="stroke-width:2.3;stroke-miterlimit:4;stroke-dasharray:none" />
  </g>
  <g
     fill="#686868"
     fill-opacity="1.00"
     stroke="None"
     id="g160"
     style="stroke-width:2.3;stroke-miterlimit:4;stroke-dasharray:none">
    <path
       d=" M 246.00 179.00  C 246.51 173.70 247.00 167.05 247.00 161.00 C 246.49 166.30 246.00 172.95 246.00 179.00 Z"
       id="path158"
       style="stroke-width:2.3;stroke-miterlimit:4;stroke-dasharray:none" />
  </g>
  <g
     fill="#090909"
     fill-opacity="1.00"
     stroke="None"
     id="g164"
     style="stroke-width:2.3;stroke-miterlimit:4;stroke-dasharray:none">
    <path
       d=" M 635.00 188.00  C 632.53 191.71 628.51 195.39 625.00 198.00 C 604.43 218.33 578.68 230.86 559.00 252.00 C 566.02 254.23 572.98 247.47 578.75 243.75 C 584.53 240.04 589.75 235.30 595.25 231.25 C 600.76 227.21 607.00 222.39 612.25 218.25 C 617.50 214.11 622.88 208.78 627.75 204.75 C 632.62 200.73 639.42 194.59 643.25 190.25 C 647.08 185.90 658.97 178.27 651.00 175.00 C 643.03 171.73 638.01 183.48 635.00 188.00 Z"
       id="path162"
       style="stroke-width:2.3;stroke-miterlimit:4;stroke-dasharray:none" />
  </g>
  <g
     fill="#818181"
     fill-opacity="1.00"
     stroke="None"
     id="g168"
     style="stroke-width:2.3;stroke-miterlimit:4;stroke-dasharray:none">
    <path
       d=" M 625.00 198.00  C 628.51 195.39 632.53 191.71 635.00 188.00 C 632.60 191.07 628.01 195.37 625.00 198.00 Z"
       id="path166"
       style="stroke-width:2.3;stroke-miterlimit:4;stroke-dasharray:none" />
  </g>
  <g
     fill="#E6E6E6"
     fill-opacity="1.00"
     stroke="None"
     id="g172"
     style="stroke-width:2.3;stroke-miterlimit:4;stroke-dasharray:none">
    <path
       d=" M 407.00 283.00  C 409.67 276.59 410.51 263.02 410.67 256.67 C 410.83 250.32 414.23 231.90 407.01 232.01 C 399.79 232.12 403.28 251.61 403.00 258.00 C 402.72 264.39 403.30 277.77 407.00 283.00 Z"
       id="path170"
       style="stroke-width:2.3;stroke-miterlimit:4;stroke-dasharray:none" />
  </g>
  <g
     fill="#454545"
     fill-opacity="1.00"
     stroke="None"
     id="g176"
     style="stroke-width:2.3;stroke-miterlimit:4;stroke-dasharray:none">
    <path
       d=" M 904.00 256.00  C 903.95 247.06 894.29 257.38 904.00 256.00 Z"
       id="path174"
       style="stroke-width:2.3;stroke-miterlimit:4;stroke-dasharray:none" />
  </g>
  <g
     fill="#040404"
     fill-opacity="1.00"
     stroke="None"
     id="g180"
     style="stroke-width:2.3;stroke-miterlimit:4;stroke-dasharray:none">
    <path
       d=" M 936.00 254.00  C 926.18 246.15 901.80 257.40 910.25 269.75 C 918.70 282.10 936.04 261.98 936.00 254.00 Z"
       id="path178"
       style="stroke-width:2.3;stroke-miterlimit:4;stroke-dasharray:none" />
  </g>
  <g
     fill="#616161"
     fill-opacity="1.00"
     stroke="None"
     id="g184"
     style="stroke-width:2.3;stroke-miterlimit:4;stroke-dasharray:none">
    <path
       d=" M 396.00 280.00  C 395.87 276.65 395.26 272.71 395.00 270.00 C 395.00 273.50 395.59 277.15 396.00 280.00 Z"
       id="path182"
       style="stroke-width:2.3;stroke-miterlimit:4;stroke-dasharray:none" />
  </g>
  <g
     fill="#848484"
     fill-opacity="1.00"
     stroke="None"
     id="g188"
     style="stroke-width:2.3;stroke-miterlimit:4;stroke-dasharray:none">
    <path
       d=" M 528.00 331.00  C 530.54 330.80 535.63 330.14 538.00 331.00 C 534.76 329.21 531.21 330.38 528.00 331.00 Z"
       id="path186"
       style="stroke-width:2.3;stroke-miterlimit:4;stroke-dasharray:none" />
  </g>
  <g
     fill="#E6E6E6"
     fill-opacity="1.00"
     stroke="None"
     id="g192"
     style="stroke-width:2.3;stroke-miterlimit:4;stroke-dasharray:none">
    <path
       d=" M 490.00 363.00  C 502.27 362.32 513.54 352.02 522.25 344.25 C 530.96 336.47 526.01 334.74 517.08 340.08 C 508.14 345.41 494.16 352.19 490.00 363.00 Z"
       id="path190"
       style="stroke-width:2.3;stroke-miterlimit:4;stroke-dasharray:none" />
  </g>
  <g
     fill="#858585"
     fill-opacity="1.00"
     stroke="None"
     id="g196"
     style="stroke-width:2.3;stroke-miterlimit:4;stroke-dasharray:none">
    <path
       d=" M 531.00 349.00  C 533.82 347.03 538.52 343.27 540.00 340.00 C 538.80 342.23 533.11 347.26 531.00 349.00 Z"
       id="path194"
       style="stroke-width:2.3;stroke-miterlimit:4;stroke-dasharray:none" />
  </g>
  <g
     fill="#838383"
     fill-opacity="1.00"
     stroke="None"
     id="g200"
     style="stroke-width:2.3;stroke-miterlimit:4;stroke-dasharray:none">
    <path
       d=" M 1424.00 351.00  C 1427.32 350.87 1430.68 351.00 1434.00 351.00 C 1430.79 350.66 1427.32 350.53 1424.00 351.00 Z"
       id="path198"
       style="stroke-width:2.3;stroke-miterlimit:4;stroke-dasharray:none" />
  </g>
  <g
     fill="#898989"
     fill-opacity="1.00"
     stroke="None"
     id="g208"
     style="stroke-width:2.3;stroke-miterlimit:4;stroke-dasharray:none">
    <path
       d=" M 389.00 373.00  C 389.35 369.34 390.00 364.41 390.00 360.00 C 389.65 363.66 389.00 368.59 389.00 373.00 Z"
       id="path206"
       style="stroke-width:2.3;stroke-miterlimit:4;stroke-dasharray:none" />
  </g>
  <g
     fill="#6A6A6A"
     fill-opacity="1.00"
     stroke="None"
     id="g212"
     style="stroke-width:2.3;stroke-miterlimit:4;stroke-dasharray:none">
    <path
       d=" M 676.00 370.00  C 676.84 367.02 676.56 363.54 677.00 360.00 C 676.28 362.90 676.52 366.58 676.00 370.00 Z"
       id="path210"
       style="stroke-width:2.3;stroke-miterlimit:4;stroke-dasharray:none" />
  </g>
  <g
     fill="#767676"
     fill-opacity="1.00"
     stroke="None"
     id="g220"
     style="stroke-width:2.3;stroke-miterlimit:4;stroke-dasharray:none">
    <path
       d=" M 563.00 379.00  C 562.85 375.06 562.79 370.94 563.00 367.00 C 562.36 370.95 562.43 375.01 563.00 379.00 Z"
       id="path218"
       style="stroke-width:2.3;stroke-miterlimit:4;stroke-dasharray:none" />
  </g>
</svg>
