<?xml version="1.0" standalone="no"?>
<!DOCTYPE svg PUBLIC "-//W3C//DTD SVG 20010904//EN"
 "http://www.w3.org/TR/2001/REC-SVG-20010904/DTD/svg10.dtd">
<svg version="1.0" xmlns="http://www.w3.org/2000/svg"
 width="2264.000000pt" height="1764.000000pt" viewBox="0 0 2264.000000 1764.000000"
 preserveAspectRatio="xMidYMid meet">

<g transform="translate(0.000000,1764.000000) scale(0.100000,-0.100000)"
fill="#000000" stroke="none">
<path d="M13475 15190 c-35 -14 -61 -51 -160 -230 -160 -288 -288 -542 -388
-770 -52 -118 -142 -309 -201 -425 -63 -125 -158 -340 -236 -533 -226 -561
-378 -896 -655 -1447 -241 -480 -397 -860 -504 -1228 -82 -281 -152 -475 -195
-540 -65 -98 -104 -120 -521 -290 -209 -86 -580 -238 -825 -339 -461 -191
-792 -310 -811 -291 -20 20 73 344 178 623 30 80 108 303 173 495 65 193 161
457 214 587 52 131 130 347 172 480 42 134 93 290 114 348 93 254 127 355 226
675 58 187 159 500 224 695 66 195 130 400 144 455 14 55 50 171 81 258 95
273 170 576 210 847 18 123 16 263 -5 335 -24 78 -108 131 -172 106 -42 -16
-125 -125 -240 -318 -59 -98 -156 -249 -215 -336 -97 -141 -190 -271 -642
-896 -195 -269 -433 -563 -693 -854 -145 -163 -269 -314 -378 -462 -286 -387
-375 -505 -510 -675 -212 -268 -507 -665 -661 -890 -178 -262 -305 -439 -469
-655 -75 -99 -181 -245 -235 -325 -55 -80 -151 -217 -215 -305 -64 -88 -176
-248 -250 -355 -74 -107 -208 -296 -299 -420 -91 -124 -243 -341 -338 -482
-98 -147 -215 -309 -272 -376 -56 -65 -175 -219 -266 -342 -91 -124 -262 -351
-380 -505 -372 -486 -576 -767 -709 -980 -155 -248 -291 -441 -452 -641 -214
-266 -374 -504 -405 -605 -36 -117 -15 -210 57 -244 57 -27 175 -25 231 3 76
39 102 89 149 281 31 127 48 161 115 238 58 66 110 138 298 411 73 106 167
234 208 284 82 101 187 256 337 501 54 87 151 227 216 311 191 248 280 370
427 586 76 113 223 314 326 448 102 134 228 302 278 375 51 73 144 200 208
282 63 83 173 236 244 340 155 227 207 297 344 473 58 73 157 210 222 305 135
198 518 720 791 1077 224 294 404 542 690 950 390 556 730 997 1257 1631 340
410 645 809 784 1025 95 148 150 224 161 224 19 0 20 -36 5 -94 -9 -34 -32
-135 -51 -226 -41 -190 -62 -257 -136 -425 -133 -305 -228 -563 -270 -735 -50
-200 -587 -1710 -735 -2065 -130 -311 -157 -383 -243 -646 -44 -135 -113 -328
-152 -430 -40 -101 -96 -254 -125 -339 -81 -239 -99 -270 -191 -336 -74 -53
-128 -78 -305 -139 -166 -58 -296 -121 -559 -270 -248 -140 -358 -194 -690
-337 -453 -195 -583 -263 -672 -355 -69 -71 -84 -128 -40 -152 34 -18 185 -34
263 -27 145 12 417 108 735 259 99 47 251 116 338 153 88 36 253 118 368 180
283 155 306 166 328 159 10 -3 20 -15 23 -26 9 -32 -28 -168 -118 -434 -160
-473 -308 -1121 -400 -1745 -41 -280 -60 -369 -111 -507 -51 -138 -64 -196
-64 -286 0 -68 3 -81 23 -101 31 -31 92 -40 163 -26 79 17 142 79 172 171 47
142 128 497 183 794 28 155 158 755 195 900 8 33 82 260 164 505 82 245 169
524 194 620 68 261 132 370 279 474 116 82 202 118 482 201 50 15 173 67 275
115 102 49 246 109 320 136 74 26 187 69 250 97 191 82 227 95 432 157 108 33
224 71 258 84 51 21 62 23 67 10 7 -20 -23 -239 -52 -364 -13 -58 -44 -179
-70 -270 -53 -193 -117 -501 -140 -685 -22 -167 -32 -441 -23 -620 17 -344 77
-548 230 -777 75 -112 232 -273 309 -316 66 -37 292 -114 399 -136 157 -32
247 -31 460 4 451 73 683 147 1043 329 234 118 313 169 624 403 346 260 396
300 528 433 215 215 615 749 826 1102 78 130 269 509 368 728 69 154 222 602
270 790 99 394 145 890 105 1126 -56 323 -236 619 -474 777 -185 123 -422 193
-655 193 -138 0 -210 -13 -347 -67 -289 -113 -567 -298 -773 -515 -93 -98
-335 -378 -486 -564 -119 -146 -178 -204 -237 -234 -23 -12 -105 -34 -185 -50
-210 -42 -398 -109 -590 -207 -360 -185 -346 -179 -359 -166 -29 29 -11 105
95 393 153 418 203 532 502 1144 133 274 229 488 339 758 42 103 121 274 175
380 54 105 121 251 149 323 28 72 95 234 148 360 53 126 114 274 136 328 21
55 85 201 140 325 160 360 278 676 278 745 0 90 -89 158 -165 126z m1359
-3535 c63 -19 124 -19 194 1 47 14 64 15 101 5 175 -47 364 -279 411 -506 33
-152 -9 -671 -74 -940 -104 -424 -478 -1245 -773 -1695 -135 -206 -467 -641
-582 -763 -146 -154 -442 -384 -816 -632 -371 -247 -489 -308 -733 -384 -391
-122 -688 -173 -886 -152 -264 29 -430 118 -513 277 -126 239 -191 701 -153
1085 25 252 106 674 197 1034 69 274 110 401 172 531 95 198 190 307 350 401
53 31 127 77 165 102 38 24 119 64 179 87 70 27 149 69 216 113 165 109 231
131 231 77 0 -11 -23 -84 -51 -160 -28 -77 -60 -181 -71 -230 -36 -167 -21
-363 32 -411 26 -23 71 -24 105 -1 31 20 150 259 209 419 49 132 101 234 185
358 97 144 415 541 540 674 57 61 129 138 159 172 189 214 664 489 957 553 54
12 189 4 249 -15z"/>
</g>
</svg>
