<?xml version="1.0" encoding="UTF-8" standalone="no"?>
<svg
   xmlns:dc="http://purl.org/dc/elements/1.1/"
   xmlns:cc="http://creativecommons.org/ns#"
   xmlns:rdf="http://www.w3.org/1999/02/22-rdf-syntax-ns#"
   xmlns:svg="http://www.w3.org/2000/svg"
   xmlns="http://www.w3.org/2000/svg"
   xmlns:sodipodi="http://sodipodi.sourceforge.net/DTD/sodipodi-0.dtd"
   xmlns:inkscape="http://www.inkscape.org/namespaces/inkscape"
   version="1.1"
   viewBox="0.00 0.00 500.00 340.00"
   id="svg6"
   sodipodi:docname="IMG-20240110-WA0005-01-removebg-preview.svg"
   inkscape:version="0.92.4 (5da689c313, 2019-01-14)">
  <metadata
     id="metadata12">
    <rdf:RDF>
      <cc:Work
         rdf:about="">
        <dc:format>image/svg+xml</dc:format>
        <dc:type
           rdf:resource="http://purl.org/dc/dcmitype/StillImage" />
      </cc:Work>
    </rdf:RDF>
  </metadata>
  <defs
     id="defs10" />
  <sodipodi:namedview
     pagecolor="#ffffff"
     bordercolor="#666666"
     borderopacity="1"
     objecttolerance="10"
     gridtolerance="10"
     guidetolerance="10"
     inkscape:pageopacity="0"
     inkscape:pageshadow="2"
     inkscape:window-width="1358"
     inkscape:window-height="745"
     id="namedview8"
     showgrid="false"
     inkscape:zoom="0.69411765"
     inkscape:cx="-2.1186441"
     inkscape:cy="170"
     inkscape:window-x="0"
     inkscape:window-y="0"
     inkscape:window-maximized="0"
     inkscape:current-layer="svg6" />
  <path
     fill="#a69a9c"
     d="   M 128.49 213.76   C 125.41 218.34 122.52 222.58 120.09 227.68   Q 115.06 238.26 107.10 248.13   Q 99.40 257.67 87.31 257.73   C 77.16 257.77 65.51 246.91 60.23 239.54   Q 55.78 233.34 51.46 227.11   Q 45.51 218.51 41.67 207.90   C 39.22 201.13 36.21 194.20 34.56 187.48   C 31.65 175.61 28.52 163.64 27.44 151.42   Q 25.91 133.99 25.69 115.87   Q 25.56 105.17 26.24 95.89   Q 27.64 76.60 31.04 57.76   Q 32.85 47.73 35.35 42.58   Q 37.46 38.20 39.12 33.36   C 39.47 32.34 40.18 31.30 40.91 30.52   Q 44.99 26.19 48.35 21.66   C 52.54 16.00 62.39 14.70 68.75 15.83   Q 74.92 16.92 81.16 21.53   Q 102.78 37.52 111.02 62.80   Q 112.29 66.69 112.95 72.61   C 113.78 80.12 112.58 88.30 111.24 95.55   Q 110.07 101.93 109.32 107.99   Q 109.20 108.91 108.83 109.75   A 0.92 0.92 0.0 0 1 107.21 109.87   Q 105.99 107.95 106.15 105.82   C 106.55 100.76 107.34 95.89 108.40 91.01   Q 110.85 79.70 108.94 70.40   C 105.45 53.47 96.47 37.86 82.48 28.52   Q 78.48 25.84 72.35 23.86   Q 67.53 22.30 62.56 22.99   C 57.21 23.74 50.68 26.01 47.35 30.32   Q 44.06 34.58 42.29 39.85   Q 37.12 55.27 34.22 73.45   Q 29.75 101.38 30.45 129.90   Q 30.58 135.08 31.32 142.58   C 31.92 148.59 32.28 154.33 33.43 160.25   Q 37.42 180.81 44.12 202.93   Q 47.74 214.92 51.14 221.42   Q 59.86 238.11 74.94 250.44   Q 82.92 256.97 93.71 253.75   Q 101.63 251.38 105.45 244.13   Q 111.91 231.88 117.73 222.12   C 120.17 218.02 122.69 212.65 123.58 208.16   C 124.25 204.79 123.91 200.61 123.14 197.15   Q 121.30 188.86 121.06 179.25   Q 121.04 178.15 121.70 177.37   A 1.62 1.61 -41.8 0 1 124.28 177.51   Q 125.87 179.88 126.51 182.84   Q 128.00 189.81 128.40 195.59   Q 128.79 201.35 130.18 204.90   Q 132.49 210.82 137.66 216.21   A 0.40 0.39 34.4 0 0 138.31 216.09   Q 144.18 201.68 153.66 188.75   C 156.47 184.93 157.75 178.57 158.69 173.58   Q 159.01 171.90 160.09 170.70   C 162.02 168.55 165.25 169.79 165.89 172.40   C 166.92 176.55 164.83 182.60 163.67 186.69   C 162.25 191.76 162.04 197.53 166.25 200.94   Q 166.69 201.30 167.26 201.26   C 172.85 200.87 177.15 197.82 178.50 192.47   C 178.95 190.70 179.60 186.79 181.27 185.78   A 2.09 2.08 58.0 0 1 184.10 186.44   C 185.05 187.92 185.56 189.76 185.51 191.49   Q 185.28 198.73 188.48 206.18   Q 189.01 207.41 190.15 208.27   Q 191.60 209.37 192.83 208.03   Q 196.32 204.23 199.83 199.59   C 200.39 198.84 201.93 198.03 202.81 197.70   Q 205.28 196.76 206.57 194.70   Q 207.03 193.96 206.98 194.83   C 206.72 199.41 208.06 206.66 212.41 209.34   C 214.45 210.59 217.00 211.70 218.98 213.14   A 0.83 0.83 0.0 0 1 218.65 214.62   Q 214.21 215.51 210.88 212.44   Q 207.97 209.76 205.06 207.26   Q 203.73 206.12 202.69 207.53   Q 198.68 212.97 191.33 213.77   Q 190.78 213.83 190.31 213.52   C 187.27 211.50 185.39 207.39 183.39 204.35   C 182.53 203.05 181.11 202.52 179.60 203.02   Q 174.38 204.78 169.88 207.81   Q 168.52 208.72 167.22 207.73   C 164.88 205.95 163.17 201.41 161.79 198.87   Q 160.82 197.06 159.05 195.61   C 155.89 193.02 154.32 197.82 153.40 199.68   Q 148.43 209.65 144.41 221.09   Q 142.60 226.24 145.09 230.38   Q 148.03 235.27 151.26 239.50   Q 159.87 250.80 167.14 263.92   Q 172.97 274.43 174.55 281.78   Q 177.42 295.06 173.45 308.31   Q 171.59 314.55 165.34 321.49   Q 162.05 325.15 157.94 326.59   C 150.03 329.37 143.62 326.68 138.68 320.42   C 132.34 312.37 132.01 303.25 132.03 293.48   Q 132.07 277.26 132.74 266.24   Q 133.30 256.96 133.79 247.71   C 134.09 241.93 134.53 236.53 135.29 230.81   C 136.28 223.41 135.78 218.64 130.01 213.56   Q 129.14 212.79 128.49 213.76   Z   M 137.22 270.46   Q 136.42 281.75 136.53 294.09   Q 136.60 301.37 137.87 309.29   Q 139.10 316.94 145.17 321.46   C 149.42 324.63 155.59 322.55 160.02 320.06   Q 165.11 317.19 167.53 312.93   C 172.28 304.56 174.33 296.72 172.30 287.30   Q 170.99 281.20 169.37 276.37   C 166.84 268.82 162.06 261.44 158.10 254.44   C 154.80 248.61 149.81 243.68 146.53 237.55   Q 144.96 234.60 142.40 232.42   Q 142.00 232.08 141.71 232.52   Q 140.48 234.45 140.51 236.66   Q 140.59 242.72 139.40 248.58   C 137.97 255.63 137.74 263.15 137.22 270.46   Z"
     id="path2"
     style="stroke:#000000;stroke-opacity:1;fill:#000000;fill-opacity:1" />
  <path
     fill="#a69a9c"
     d="   M 268.27 217.98   C 272.34 211.11 274.01 204.89 282.08 201.30   C 286.48 199.34 290.67 201.75 293.23 205.26   Q 297.13 210.59 301.20 216.12   Q 303.68 219.47 306.71 221.59   C 308.28 222.69 314.34 224.05 314.72 220.64   Q 314.91 218.96 314.85 217.27   Q 314.54 208.27 313.79 200.38   C 313.43 196.58 313.25 191.61 316.74 189.24   A 2.51 2.51 0.0 0 1 320.09 189.74   C 323.04 193.38 322.82 199.35 322.22 203.82   Q 321.41 209.79 320.72 215.63   Q 320.20 219.95 324.16 221.22   C 331.59 223.62 336.30 216.43 337.92 210.32   C 339.22 205.43 341.15 199.72 344.28 195.84   C 347.52 191.83 353.29 194.37 355.52 198.02   Q 357.22 200.80 358.59 204.15   C 360.42 208.65 365.36 206.04 367.35 203.34   C 370.49 199.09 374.06 202.43 375.23 205.88   Q 377.55 212.66 380.15 217.61   C 381.73 220.61 385.48 220.28 387.64 218.04   Q 389.15 216.47 391.07 215.40   C 392.53 214.60 393.32 213.25 394.52 212.18   Q 397.43 209.58 401.27 211.68   Q 404.66 213.54 407.97 215.70   C 413.21 219.12 417.58 213.34 418.57 208.82   C 419.41 205.02 422.09 202.94 425.99 205.43   C 429.54 207.70 433.00 210.79 437.53 210.21   Q 444.22 209.35 451.13 209.18   Q 452.71 209.14 454.16 208.60   A 1.55 1.54 79.9 0 0 455.18 207.13   Q 455.15 204.90 454.51 203.03   Q 452.11 195.95 451.51 190.30   Q 451.09 186.44 454.21 185.59   C 458.23 184.48 462.77 187.53 465.38 190.42   C 468.98 194.40 468.38 201.65 465.90 206.10   Q 465.63 206.56 465.86 207.05   C 468.81 213.37 479.07 208.48 481.24 213.99   A 1.58 1.58 0.0 0 1 480.27 216.06   C 475.12 217.82 468.98 216.10 463.95 214.25   Q 462.00 213.53 460.16 213.87   C 451.70 215.43 442.84 216.17 434.84 214.44   C 431.50 213.72 428.38 211.22 424.68 211.71   Q 424.04 211.79 423.67 212.31   Q 421.73 215.00 419.85 217.74   C 417.43 221.27 412.63 223.29 408.64 220.80   Q 405.55 218.88 402.41 217.19   C 400.23 216.02 395.56 215.00 394.65 218.43   C 393.75 221.82 392.36 225.35 388.56 225.91   C 383.77 226.62 378.31 221.42 376.45 217.71   C 374.99 214.79 373.01 210.15 369.95 208.63   Q 369.50 208.41 369.05 208.63   Q 366.92 209.68 366.25 212.15   Q 364.84 217.34 359.82 221.18   C 357.20 223.18 355.60 219.85 355.32 217.85   Q 354.40 211.20 353.26 204.22   Q 352.86 201.77 350.68 200.50   Q 350.22 200.23 349.77 200.52   C 347.18 202.20 345.11 206.19 344.49 208.83   C 343.31 213.88 342.25 218.21 339.46 222.82   C 335.87 228.76 328.91 227.43 323.29 225.87   Q 321.10 225.26 319.29 225.72   C 317.39 226.21 315.69 227.25 313.66 227.32   C 307.22 227.57 304.10 223.83 300.63 219.13   C 297.16 214.43 292.56 207.67 287.86 205.62   C 286.08 204.84 284.90 205.93 283.53 206.81   Q 272.33 213.94 270.39 228.53   Q 270.08 230.92 267.97 232.23   Q 267.48 232.54 266.94 232.32   C 264.78 231.44 263.43 229.04 262.30 227.13   A 1.03 1.03 0.0 0 0 260.66 226.94   Q 259.20 228.46 257.63 230.03   C 254.58 233.08 250.34 232.86 247.11 230.04   C 242.98 226.44 241.03 221.59 238.77 216.82   Q 237.50 214.15 234.12 211.06   Q 232.75 209.81 232.95 207.68   C 233.43 202.55 233.51 197.48 232.74 192.32   Q 230.25 175.79 227.05 159.69   C 225.43 151.56 224.59 142.81 225.33 134.91   Q 225.84 129.41 225.89 124.20   Q 225.91 121.62 227.25 119.74   A 2.07 2.07 0.0 0 1 230.17 119.28   Q 231.81 120.49 232.77 122.25   Q 237.67 131.24 241.59 143.71   C 242.97 148.10 243.63 152.56 244.65 157.07   C 246.17 163.77 247.02 171.47 246.15 178.47   C 245.50 183.61 245.23 187.69 242.52 192.58   C 237.27 202.04 238.15 213.65 243.80 222.65   C 246.68 227.23 251.19 225.50 254.87 223.25   C 257.84 221.44 258.75 217.12 259.08 214.03   C 259.77 207.58 258.39 200.30 256.65 193.76   C 255.29 188.66 256.73 182.63 255.95 178.43   Q 254.93 172.97 254.20 168.06   C 253.56 163.73 253.75 159.04 253.61 154.49   Q 253.54 152.35 253.79 149.06   Q 254.37 141.47 252.92 135.01   Q 252.43 132.86 254.20 131.27   C 258.22 127.65 261.45 133.15 262.47 136.36   C 264.63 143.12 265.75 149.46 266.25 156.92   Q 267.14 170.18 267.94 182.67   Q 268.21 187.00 267.79 193.02   Q 267.25 200.75 266.96 208.37   C 266.84 211.56 267.21 214.71 267.54 217.82   Q 267.66 219.01 268.27 217.98   Z   M 229.32 128.17   Q 228.05 128.78 227.97 130.17   Q 227.82 132.84 228.45 135.15   C 229.79 140.12 228.94 145.28 229.56 150.36   Q 231.17 163.79 233.28 175.99   Q 233.67 178.28 233.93 180.56   Q 234.39 184.58 236.07 188.32   A 0.45 0.44 49.2 0 0 236.85 188.38   C 237.76 186.97 238.70 185.57 239.14 183.94   Q 239.89 181.16 241.06 178.43   C 243.51 172.69 243.36 164.17 241.99 159.12   Q 240.14 152.33 238.39 145.40   C 237.15 140.47 234.78 136.11 233.26 131.22   Q 232.79 129.72 231.60 128.55   Q 230.59 127.57 229.32 128.17   Z   M 262.86 190.00   C 263.26 185.38 260.00 181.28 262.41 176.87   Q 263.92 174.11 263.93 171.89   Q 263.96 165.58 263.19 157.82   Q 262.80 153.93 262.10 151.46   C 261.38 148.91 260.00 144.57 257.98 142.59   A 0.66 0.66 0.0 0 0 256.87 143.16   C 257.27 145.84 256.38 148.25 256.54 150.91   C 256.84 156.03 257.84 161.11 257.67 166.31   Q 257.54 169.95 258.39 173.12   Q 260.04 179.22 259.78 185.57   Q 259.65 188.70 260.79 191.03   Q 261.04 191.54 261.59 191.43   Q 262.75 191.19 262.86 190.00   Z"
     id="path4"
     style="stroke:#000000;stroke-opacity:1;fill:#000000;fill-opacity:1" />
</svg>
