<?xml version="1.0" encoding="UTF-8" standalone="no"?>
<svg
   xmlns:dc="http://purl.org/dc/elements/1.1/"
   xmlns:cc="http://creativecommons.org/ns#"
   xmlns:rdf="http://www.w3.org/1999/02/22-rdf-syntax-ns#"
   xmlns:svg="http://www.w3.org/2000/svg"
   xmlns="http://www.w3.org/2000/svg"
   xmlns:sodipodi="http://sodipodi.sourceforge.net/DTD/sodipodi-0.dtd"
   xmlns:inkscape="http://www.inkscape.org/namespaces/inkscape"
   version="1.1"
   viewBox="0.00 0.00 500.00 500.00"
   id="svg901"
   sodipodi:docname="luccas_signature.svg"
   inkscape:version="0.92.4 (5da689c313, 2019-01-14)">
  <metadata
     id="metadata907">
    <rdf:RDF>
      <cc:Work
         rdf:about="">
        <dc:format>image/svg+xml</dc:format>
        <dc:type
           rdf:resource="http://purl.org/dc/dcmitype/StillImage" />
        <dc:title></dc:title>
      </cc:Work>
    </rdf:RDF>
  </metadata>
  <defs
     id="defs905" />
  <sodipodi:namedview
     pagecolor="#ffffff"
     bordercolor="#666666"
     borderopacity="1"
     objecttolerance="10"
     gridtolerance="10"
     guidetolerance="10"
     inkscape:pageopacity="0"
     inkscape:pageshadow="2"
     inkscape:window-width="1358"
     inkscape:window-height="745"
     id="namedview903"
     showgrid="false"
     inkscape:snap-nodes="false"
     inkscape:zoom="1.05"
     inkscape:cx="250"
     inkscape:cy="250"
     inkscape:window-x="0"
     inkscape:window-y="0"
     inkscape:window-maximized="0"
     inkscape:current-layer="svg901" />
  <path
     fill="#2b2385"
     d="   M 188.38 347.76   Q 189.70 346.97 190.44 345.57   Q 193.47 339.88 196.10 334.33   C 199.05 328.08 198.40 321.27 200.40 314.69   C 201.24 311.93 200.60 309.23 201.54 306.75   A 1.48 1.41 -12.0 0 1 201.91 306.21   Q 203.02 305.22 203.66 305.67   Q 205.11 306.70 205.01 308.49   Q 204.55 316.83 203.60 325.84   C 203.30 328.67 203.50 331.50 203.51 334.34   C 203.52 336.55 205.07 342.20 206.80 343.60   C 211.97 347.80 217.00 337.21 218.80 334.12   Q 220.20 331.75 220.70 329.12   C 221.18 326.62 221.78 324.17 222.01 321.64   C 222.31 318.36 223.12 315.01 223.92 311.78   Q 225.23 306.53 229.62 302.01   C 236.50 294.93 243.07 305.43 247.23 309.42   A 1.53 1.52 -58.0 0 1 247.60 311.05   Q 247.35 311.73 246.81 312.12   Q 245.92 312.78 245.12 312.00   Q 241.72 308.69 238.03 305.38   Q 236.72 304.19 235.25 303.99   A 2.72 2.72 0.0 0 0 232.44 305.44   Q 228.27 313.59 225.54 323.77   C 224.18 328.85 223.86 333.71 226.58 338.46   C 228.42 341.66 230.64 344.94 233.53 347.03   C 235.61 348.54 237.75 347.72 240.07 348.19   A 1.45 1.45 0.0 0 0 241.51 347.65   C 243.17 345.51 245.13 344.30 246.68 341.90   C 251.10 335.04 253.01 330.32 253.33 322.38   C 253.48 318.76 255.05 315.35 256.05 311.88   Q 256.37 310.75 259.02 308.41   C 262.36 305.46 263.69 300.26 269.09 300.60   C 272.06 300.79 275.80 302.82 277.66 305.39   Q 279.25 307.57 281.97 309.57   Q 283.74 310.86 282.42 312.42   Q 282.32 312.54 282.18 312.60   Q 280.11 313.48 278.65 311.82   C 275.41 308.13 270.68 304.31 265.76 307.28   Q 264.00 308.35 263.14 310.73   Q 259.56 320.70 256.81 328.79   C 254.76 334.82 258.21 341.22 262.00 345.73   C 264.29 348.46 269.43 352.30 273.41 351.47   C 275.22 351.09 277.59 350.48 278.45 348.69   Q 278.93 347.69 279.69 346.81   Q 284.16 341.63 285.92 335.31   Q 287.51 329.61 288.82 323.45   C 289.58 319.91 288.38 316.27 289.99 313.25   Q 291.93 309.61 293.39 305.52   C 294.76 301.69 296.77 297.92 299.15 294.63   Q 300.47 292.78 302.68 291.89   Q 303.25 291.66 303.77 291.98   C 305.53 293.06 307.12 294.16 309.18 294.65   C 312.55 295.46 317.05 296.33 319.19 299.28   C 321.38 302.28 323.09 304.93 323.75 308.66   Q 324.31 311.86 324.44 314.24   Q 324.59 317.10 322.46 315.19   Q 321.01 313.90 320.45 311.68   C 318.61 304.33 314.01 296.16 304.72 300.17   Q 299.69 302.35 297.39 306.23   C 295.40 309.58 295.10 313.39 293.86 317.01   C 292.88 319.85 293.04 322.64 292.27 325.46   C 291.28 329.14 292.25 333.15 293.92 336.60   Q 295.48 339.80 299.75 341.82   Q 303.64 343.67 308.07 343.81   Q 313.00 343.96 314.10 340.37   A 1.47 1.47 0.0 0 1 314.78 339.52   C 321.99 335.44 322.84 327.51 325.80 320.57   C 327.50 316.57 329.25 312.41 329.98 308.09   Q 330.85 302.87 332.64 297.86   C 334.86 291.63 340.02 292.16 344.90 294.25   C 349.19 296.09 354.27 301.19 356.47 304.56   Q 359.48 309.16 356.26 314.43   Q 353.64 318.70 350.18 322.72   Q 343.80 330.10 336.81 337.65   C 335.10 339.49 333.79 341.68 332.07 343.49   A 0.93 0.93 0.0 0 1 330.50 343.10   C 330.21 342.07 330.94 340.93 331.17 340.19   Q 332.28 336.65 334.88 334.91   C 338.16 332.71 340.37 329.10 343.34 326.38   C 346.85 323.15 349.50 319.28 352.43 315.55   C 358.61 307.72 348.13 299.96 341.93 296.65   C 338.08 294.60 336.00 297.09 335.15 300.53   C 332.38 311.79 328.44 321.83 323.90 332.38   C 321.55 337.85 315.82 345.63 309.20 346.32   Q 305.71 346.68 301.48 345.72   Q 294.21 344.07 291.07 336.84   A 1.03 1.03 0.0 0 0 289.65 336.33   Q 288.80 336.76 288.35 337.70   Q 285.11 344.53 282.10 349.12   C 279.12 353.67 273.74 355.91 268.38 353.53   C 261.87 350.64 257.18 345.38 254.63 338.73   A 1.24 1.24 0.0 0 0 252.42 338.52   Q 249.76 342.81 246.78 346.50   Q 242.60 351.69 236.29 350.63   C 229.81 349.54 225.50 343.22 223.45 337.52   A 1.55 1.55 0.0 0 0 221.13 336.75   Q 219.00 338.16 217.80 340.46   C 216.14 343.66 214.33 346.34 211.28 348.16   C 208.56 349.79 205.30 347.63 204.31 345.18   Q 202.31 340.22 200.62 335.55   A 1.02 1.01 48.9 0 0 198.76 335.42   Q 196.10 340.56 193.41 345.50   Q 191.47 349.06 186.82 350.14   C 182.63 351.12 180.23 345.56 179.46 342.47   Q 179.04 340.78 177.55 340.22   A 1.83 1.81 24.8 0 0 175.30 341.04   Q 172.11 346.84 167.70 350.37   Q 164.59 352.85 158.99 354.59   C 156.40 355.39 153.91 355.18 151.31 355.84   C 148.41 356.57 144.66 356.10 142.35 353.79   Q 139.26 350.70 137.44 347.75   C 135.59 344.78 134.99 341.14 133.53 337.89   Q 133.17 337.08 132.35 337.41   Q 130.84 338.02 129.97 339.51   Q 125.67 346.80 119.16 354.40   C 112.84 361.77 106.66 364.96 97.29 366.09   Q 91.83 366.75 87.45 364.38   C 79.74 360.20 78.23 353.97 77.96 345.17   Q 77.69 335.86 78.15 333.11   Q 79.10 327.42 79.96 322.01   Q 81.89 309.90 90.18 300.77   C 95.10 295.34 101.86 292.58 108.86 295.15   C 116.89 298.09 124.34 302.09 129.17 309.45   Q 133.41 315.91 135.60 322.97   A 1.25 1.24 -2.0 0 0 136.52 323.82   Q 137.49 324.04 138.06 323.22   Q 148.70 307.80 157.18 289.74   Q 160.61 282.45 162.33 275.20   Q 164.21 267.33 165.93 260.11   C 166.83 256.35 166.92 252.39 167.66 248.57   Q 168.14 246.16 168.18 243.34   Q 168.35 232.72 167.02 223.84   Q 165.69 214.98 161.66 204.02   Q 160.48 200.83 158.49 198.31   A 1.98 1.97 60.4 0 0 156.24 197.68   Q 145.46 201.73 132.22 198.86   Q 119.39 196.08 109.35 190.37   C 103.54 187.07 100.22 182.60 96.19 177.73   C 92.24 172.96 89.30 167.87 86.74 162.30   Q 85.93 160.54 85.54 156.82   Q 85.34 154.87 83.78 152.52   A 0.57 0.56 48.0 0 1 83.81 151.85   L 84.17 151.39   A 0.26 0.26 0.0 0 1 84.60 151.43   C 86.02 154.10 86.23 157.15 87.98 159.65   Q 90.61 163.39 92.79 167.44   C 95.53 172.53 98.94 177.00 102.61 181.50   Q 105.89 185.55 110.35 188.13   Q 125.52 196.92 143.50 197.41   Q 145.48 197.47 147.39 197.21   C 150.25 196.81 152.73 195.42 155.49 194.71   A 1.60 1.60 0.0 0 0 156.46 192.34   C 150.29 181.98 147.79 169.42 147.41 157.13   Q 147.09 147.10 150.36 137.60   C 152.39 131.69 155.80 125.85 158.88 120.37   Q 161.55 115.61 165.97 110.17   C 173.19 101.29 184.34 93.29 195.96 92.48   C 202.04 92.06 210.09 92.31 215.33 95.69   C 220.74 99.18 219.00 110.82 217.62 115.79   C 215.46 123.54 213.61 131.23 210.44 138.55   Q 207.92 144.37 203.27 151.30   Q 190.29 170.64 172.58 187.29   C 169.35 190.33 166.02 192.20 162.63 194.80   A 2.28 2.27 -33.2 0 0 162.02 197.70   C 163.16 199.76 164.26 201.66 164.88 203.99   C 166.94 211.75 170.19 219.40 170.83 227.21   Q 171.29 232.82 171.09 241.18   C 170.85 251.61 168.53 262.09 166.13 272.17   Q 164.41 279.37 161.09 287.36   Q 156.86 297.52 153.78 302.61   Q 150.05 308.79 146.33 315.44   Q 144.15 319.34 141.87 322.43   Q 139.49 325.65 137.39 329.27   C 136.42 330.94 135.80 333.11 136.25 335.00   C 136.95 337.99 137.01 341.54 138.60 344.13   Q 140.49 347.19 142.88 349.93   Q 146.10 353.62 150.97 351.67   C 153.21 350.77 153.38 346.32 153.71 344.35   Q 153.84 343.54 154.14 344.31   C 155.54 347.88 155.36 351.23 160.06 352.15   Q 160.63 352.26 161.14 351.99   C 165.10 349.87 169.58 346.67 171.49 342.69   C 173.50 338.51 175.81 335.16 175.38 330.36   Q 175.12 327.45 175.55 324.41   Q 176.22 319.55 176.20 314.13   Q 176.19 311.37 177.08 309.29   C 177.87 307.43 179.73 303.45 182.04 303.08   A 1.73 1.73 0.0 0 1 184.04 304.89   Q 183.29 317.22 180.30 329.55   Q 178.23 338.06 183.50 344.90   C 184.59 346.31 186.16 346.53 187.46 347.67   Q 187.89 348.05 188.38 347.76   Z   M 154.69 134.21   Q 151.51 141.26 150.11 150.71   C 149.48 154.96 150.25 158.71 150.48 162.85   Q 150.73 167.18 151.80 172.01   Q 154.03 182.05 158.69 191.45   A 1.89 1.88 62.6 0 0 161.27 192.27   Q 163.38 191.14 165.15 189.46   C 167.46 187.25 170.37 185.72 172.51 183.46   C 176.02 179.78 179.83 176.53 183.12 172.56   Q 195.35 157.80 203.99 144.81   Q 207.62 139.37 209.88 131.33   Q 211.59 125.26 213.64 119.20   Q 216.84 109.76 214.71 100.62   C 213.94 97.30 209.31 96.07 206.38 95.63   Q 196.25 94.08 187.53 97.47   Q 174.61 102.51 167.48 112.37   Q 159.68 123.16 154.69 134.21   Z   M 85.82 310.86   C 80.49 323.05 79.64 337.01 81.20 350.33   Q 81.42 352.22 82.11 354.16   C 83.24 357.36 84.04 359.80 87.39 361.48   C 95.71 365.65 103.11 363.53 110.36 358.96   Q 113.98 356.68 117.16 353.01   Q 125.90 342.93 131.88 333.07   C 134.15 329.34 133.17 325.84 132.12 321.96   C 131.14 318.36 128.95 315.08 127.25 311.79   C 123.45 304.42 115.44 299.55 107.26 296.95   Q 103.42 295.72 100.20 296.72   C 93.80 298.68 88.26 305.26 85.82 310.86   Z"
     id="path897"
     style="fill:#000000;fill-opacity:1;stroke:#000000;stroke-opacity:1;stroke-width:1.0015748;stroke-miterlimit:4;stroke-dasharray:none" />
  <path
     fill="#2b2385"
     d="   M 417.93 204.59   Q 418.52 204.12 418.05 203.52   C 416.48 201.55 414.85 199.58 412.25 198.85   C 406.65 197.29 401.48 194.93 395.52 193.88   Q 383.59 191.77 371.34 190.98   C 369.60 190.87 367.40 189.89 365.80 190.22   Q 360.67 191.28 356.03 192.28   C 352.27 193.08 348.24 194.44 345.29 196.94   C 340.92 200.64 336.60 202.13 335.82 208.66   A 1.71 1.70 3.8 0 0 337.50 210.57   C 340.92 210.59 344.70 210.42 348.02 211.42   Q 350.29 212.10 353.35 210.87   C 357.60 209.17 362.45 208.41 366.27 206.91   C 371.13 205.00 376.97 202.13 379.42 197.64   Q 380.27 196.09 381.89 196.80   Q 382.58 197.11 382.67 198.25   A 1.38 1.37 -24.9 0 1 382.28 199.30   Q 377.10 204.66 372.34 206.93   Q 368.60 208.71 363.92 210.37   C 360.90 211.45 358.08 210.45 355.31 212.32   Q 353.54 213.51 351.36 214.16   Q 344.36 216.26 337.18 214.90   A 1.23 1.21 -14.5 0 1 336.47 214.49   L 333.14 210.63   A 0.90 0.87 -65.0 0 1 332.92 209.99   Q 333.18 204.48 337.29 200.47   C 346.60 191.40 356.98 187.64 369.80 188.05   Q 380.11 188.38 388.85 189.28   Q 401.45 190.59 413.66 195.85   Q 417.31 197.43 420.71 199.88   A 2.01 2.00 -54.0 0 0 423.51 199.43   Q 430.35 190.01 441.80 184.70   Q 442.95 184.17 444.28 184.51   Q 444.57 184.59 444.76 184.81   A 0.80 0.79 -34.3 0 1 444.52 186.05   C 437.64 189.52 430.05 194.96 424.84 201.23   C 423.76 202.53 424.33 204.09 425.24 205.24   Q 429.95 211.23 432.38 218.94   Q 438.77 239.23 436.77 257.53   Q 435.04 273.35 423.60 286.51   C 416.21 295.03 408.58 294.70 398.14 294.82   Q 394.52 294.86 390.89 294.19   Q 385.02 293.10 379.33 292.32   A 1.58 1.56 -78.8 0 0 377.60 293.49   C 375.95 299.93 373.84 306.50 372.35 312.87   C 370.64 320.18 368.43 327.47 367.04 334.79   C 366.29 338.73 365.12 342.46 364.48 346.43   Q 362.66 357.80 360.71 362.51   C 356.69 372.27 348.00 373.98 338.58 372.26   C 333.86 371.40 328.89 367.94 325.51 364.71   Q 321.71 361.07 323.37 355.53   Q 323.39 355.47 323.45 355.48   L 323.77 355.57   Q 324.06 355.65 323.97 355.93   Q 322.90 359.39 325.64 362.11   Q 331.65 368.08 340.63 369.91   C 341.83 370.15 342.45 369.70 343.45 369.23   Q 343.90 369.02 344.32 369.28   Q 346.73 370.80 349.25 369.25   Q 353.03 366.94 355.96 364.47   Q 358.49 362.33 359.09 358.01   C 360.26 349.47 362.38 341.45 364.02 333.31   C 365.34 326.77 367.59 320.30 369.08 313.44   Q 371.18 303.72 374.50 293.03   A 1.83 1.82 -70.9 0 0 373.41 290.78   C 366.86 288.26 361.61 284.61 355.94 280.69   A 14.76 14.71 -2.2 0 1 352.90 277.88   Q 348.20 272.04 342.84 265.59   Q 341.84 264.39 341.30 262.53   Q 341.13 261.94 341.69 262.19   Q 345.61 263.94 347.24 266.70   Q 348.17 268.25 349.30 269.66   Q 353.79 275.21 358.91 279.84   Q 362.12 282.73 365.34 284.00   Q 369.35 285.58 373.69 287.40   Q 375.62 288.20 375.99 286.15   Q 377.61 277.16 379.39 269.76   Q 381.52 260.89 383.75 252.04   Q 385.62 244.56 390.56 234.41   Q 391.82 231.82 393.91 228.98   C 396.15 225.93 397.72 222.81 400.54 220.09   Q 409.98 210.97 417.93 204.59   Z   M 389.07 245.42   Q 388.25 247.61 387.71 249.69   Q 384.81 260.96 382.07 272.96   Q 380.57 279.53 379.22 286.94   A 2.56 2.54 9.3 0 0 381.37 289.92   Q 387.35 290.79 393.03 292.30   Q 394.97 292.81 396.66 292.59   Q 400.89 292.03 405.44 292.36   Q 407.72 292.52 410.18 291.66   C 416.30 289.50 421.33 286.95 424.85 281.24   C 427.83 276.39 430.56 271.23 431.85 265.51   Q 432.89 260.90 433.18 256.76   Q 434.33 240.61 429.55 221.11   C 428.54 216.98 426.02 213.35 424.18 209.54   Q 423.13 207.38 421.12 206.47   A 1.59 1.58 -52.4 0 0 419.47 206.69   Q 413.82 211.35 408.03 216.74   Q 401.90 222.46 398.30 227.73   Q 392.53 236.18 389.07 245.42   Z"
     id="path899"
     style="fill:#000000;fill-opacity:1;stroke:#000000;stroke-opacity:1;stroke-width:1.0015748;stroke-miterlimit:4;stroke-dasharray:none" />
</svg>
