<?xml version="1.0" standalone="no"?>
<!DOCTYPE svg PUBLIC "-//W3C//DTD SVG 20010904//EN"
 "http://www.w3.org/TR/2001/REC-SVG-20010904/DTD/svg10.dtd">
<svg version="1.0" xmlns="http://www.w3.org/2000/svg"
 width="500.000000pt" height="499.000000pt" viewBox="0 0 500.000000 499.000000"
 preserveAspectRatio="xMidYMid meet">

<g transform="translate(0.000000,499.000000) scale(0.100000,-0.100000)"
fill="#000000" stroke="none">
<path d="M3440 4040 c-364 -37 -527 -81 -868 -236 -316 -143 -601 -385 -776
-657 -68 -105 -145 -255 -181 -352 -15 -38 -36 -80 -48 -93 -60 -65 -527 -306
-625 -323 -110 -20 -109 -6 14 204 83 142 394 643 429 692 12 17 48 80 80 140
46 88 75 129 148 204 156 164 207 249 154 259 -44 9 -67 -9 -118 -88 -64 -101
-183 -212 -281 -264 -113 -60 -225 -136 -236 -161 -19 -40 39 -65 69 -29 20
24 181 134 196 134 22 0 7 -36 -52 -125 -29 -44 -62 -98 -73 -120 -20 -40 -84
-145 -259 -425 -50 -80 -119 -192 -154 -249 -51 -84 -70 -106 -96 -115 -57
-19 -60 -31 -18 -69 l38 -35 -28 -23 c-15 -13 -57 -69 -93 -124 -36 -55 -107
-157 -159 -227 -87 -117 -173 -263 -173 -293 0 -23 27 -24 51 -1 24 23 35 38
179 246 91 131 232 280 266 280 15 0 27 -11 38 -34 9 -19 16 -38 16 -44 0 -5
20 -69 44 -143 63 -191 178 -443 293 -639 28 -47 69 -119 93 -160 104 -182
159 -248 289 -352 278 -222 549 -200 818 69 93 93 133 152 133 198 0 41 -23
29 -77 -38 -131 -164 -255 -265 -380 -309 -127 -45 -262 -31 -385 40 -90 53
-242 208 -299 307 -25 44 -78 134 -116 200 -134 229 -201 381 -183 415 16 29
114 100 138 100 15 0 26 -10 36 -35 17 -39 68 -75 107 -75 15 0 55 9 90 19 35
10 90 22 122 25 44 5 84 20 165 63 59 31 118 65 131 75 35 27 97 41 121 28 27
-14 26 -21 -15 -70 -38 -45 -44 -67 -20 -76 17 -7 50 12 136 80 97 77 189 92
219 36 16 -30 3 -78 -31 -122 -59 -75 -22 -106 54 -44 46 38 220 126 248 126
16 0 17 -7 12 -48 -11 -95 58 -110 187 -41 89 48 110 47 110 -5 0 -25 7 -40
26 -55 47 -37 98 -23 239 64 39 25 76 45 82 45 11 0 22 -25 43 -93 15 -48 67
-101 114 -117 30 -10 45 -9 89 6 72 23 242 109 297 149 308 227 721 962 856
1525 24 96 28 138 29 255 0 129 -2 144 -24 185 -69 130 -259 249 -461 289
-259 50 -573 71 -770 51z m719 -69 c85 -18 180 -43 213 -56 91 -37 196 -112
228 -162 93 -147 50 -459 -127 -903 -110 -279 -223 -487 -394 -726 -185 -258
-223 -298 -365 -386 -112 -69 -222 -118 -266 -118 -65 0 -98 62 -98 180 0 75
13 101 99 199 67 76 157 195 323 426 67 94 175 241 240 328 64 87 139 194 165
238 26 44 82 133 124 197 93 142 99 155 99 184 0 34 -27 68 -54 68 -61 0 -182
-78 -282 -182 -190 -195 -336 -390 -472 -628 -127 -224 -167 -312 -220 -486
-60 -194 -76 -226 -141 -287 -52 -49 -197 -147 -217 -147 -45 0 -30 94 30 195
40 66 42 88 8 93 -16 2 -39 -12 -80 -51 -31 -30 -72 -62 -91 -72 -19 -9 -55
-37 -81 -61 -80 -75 -131 -78 -106 -5 7 20 27 44 51 60 47 31 50 51 13 69 -33
16 -81 1 -221 -69 -53 -26 -104 -46 -111 -43 -8 3 -20 19 -26 35 -34 81 -131
117 -215 80 -60 -26 -89 -26 -126 0 -48 34 -97 35 -166 5 l-59 -27 -44 25
c-25 13 -70 32 -101 41 -31 8 -64 23 -72 33 -28 30 -40 143 -34 320 6 236 25
284 136 344 42 23 43 61 1 78 -16 7 -30 18 -30 24 0 32 36 129 76 205 229 434
788 831 1363 967 197 47 269 53 596 49 269 -2 286 -4 434 -34z m195 -600 c3
-5 -12 -35 -33 -67 -236 -357 -255 -386 -380 -554 -136 -185 -268 -370 -301
-425 -13 -21 -56 -76 -95 -120 -39 -45 -80 -94 -91 -110 -43 -58 -42 -17 1
117 70 219 200 452 407 730 134 178 247 294 369 378 82 57 112 69 123 51z
m-2828 -1022 c0 -143 5 -213 17 -267 10 -41 15 -77 12 -82 -2 -4 -20 -10 -39
-13 -55 -9 -263 -103 -349 -158 -43 -28 -86 -49 -95 -47 -9 2 -27 22 -40 45
-27 49 -119 317 -128 372 -6 36 -3 40 37 73 51 41 137 91 194 112 90 33 302
124 335 144 19 12 40 20 45 19 6 -2 10 -78 11 -198z m105 -451 c16 -18 29 -37
29 -43 0 -19 -229 -115 -275 -115 -32 0 -26 30 17 81 40 48 91 82 148 100 42
12 50 10 81 -23z"/>
<path d="M3203 2469 c-25 -9 -73 -76 -73 -101 0 -32 41 -20 86 26 24 24 44 48
44 54 0 18 -33 30 -57 21z"/>
</g>
</svg>
